<svg width="147" height="123" viewBox="0 0 147 123" fill="none" xmlns="http://www.w3.org/2000/svg">
<path d="M71.5633 113.759L10.6575 73.7887C8.71709 72.5647 7.05599 70.5941 8.94494 69.3008L70.0712 30.1745C70.99 29.5422 72.3828 29.1301 73.3126 29.7298L137.258 70.9368C139.198 72.1853 139.543 75.6818 137.603 76.9302L79.5931 113.694C78.3758 114.481 76.9945 114.9 75.586 114.912C74.1776 114.923 72.7909 114.526 71.5633 113.759Z" fill="#096EA6"/>
<path opacity="0.32" d="M77.4946 98.574L89.5045 106.228L108.012 93.6945L95.4103 85.6897" fill="url(#paint0_linear_109_477)"/>
<path d="M42.3838 4.0427C42.53 4.0427 42.6702 3.97822 42.7736 3.86345C42.8769 3.74868 42.935 3.59302 42.935 3.43071C42.935 3.2684 42.8769 3.11274 42.7736 2.99797C42.6702 2.8832 42.53 2.81873 42.3838 2.81873C42.2376 2.81873 42.0974 2.8832 41.994 2.99797C41.8906 3.11274 41.8325 3.2684 41.8325 3.43071C41.8325 3.59302 41.8906 3.74868 41.994 3.86345C42.0974 3.97822 42.2376 4.0427 42.3838 4.0427V4.0427Z" fill="#E6E6E6"/>
<path d="M51.0459 70.4921L51.3215 70.6717L78.7481 88.4274L79.5051 87.2687L81.7726 86.6567L81.7836 85.6612L84.0988 85.1553L84.595 84.1109L86.2414 83.9354L87.0021 82.5686L88.2626 82.2586L89.1152 81.2141L91.0189 80.9L91.8715 79.4598L64.3237 61.9815L63.0264 61.7L62.692 63.0259L61.8651 62.3119L61.2514 63.6501H60.0864L59.8034 64.8782L58.2893 65.0455L58.1717 65.9226L56.6576 66.2572L56.2901 67.3425L55.1876 67.1385L54.776 68.3583L53.1039 68.0605L52.9202 69.003L51.6964 69.4436" fill="white"/>
<path d="M101.801 90.349V91.5322L101.478 90.9406L101.801 90.349Z" fill="#756373"/>
<path d="M57.0986 83.658V84.7963L57.9255 84.1843L57.0986 83.658Z" fill="#756373"/>
<path d="M57.7671 86.0284L83.4664 102.372C83.9092 102.657 84.4118 102.807 84.9235 102.807C85.4352 102.807 85.9379 102.657 86.3807 102.372L101.147 92.7643C101.348 92.635 101.516 92.4491 101.632 92.2253C101.748 92.0015 101.809 91.7477 101.809 91.4893C101.809 91.231 101.748 90.9772 101.632 90.7534C101.516 90.5296 101.348 90.3437 101.147 90.2144L75.3373 73.6663C74.9508 73.4161 74.5113 73.2843 74.0639 73.2843C73.6165 73.2843 73.1771 73.4161 72.7905 73.6663L57.7708 83.458C57.5648 83.5856 57.3932 83.7718 57.2736 83.9975C57.154 84.2232 57.0907 84.4802 57.0903 84.742C57.09 85.0039 57.1525 85.2611 57.2714 85.4872C57.3904 85.7133 57.5615 85.9001 57.7671 86.0284V86.0284Z" fill="#513F2C"/>
<path d="M57.7672 84.8942L83.4665 101.238C83.9093 101.523 84.4119 101.673 84.9237 101.673C85.4354 101.673 85.938 101.523 86.3808 101.238L101.147 91.6301C101.348 91.5008 101.516 91.3149 101.632 91.0911C101.748 90.8673 101.809 90.6135 101.809 90.3551C101.809 90.0968 101.748 89.843 101.632 89.6192C101.516 89.3954 101.348 89.2095 101.147 89.0802L75.3374 72.5158C74.9509 72.2656 74.5115 72.1338 74.064 72.1338C73.6166 72.1338 73.1772 72.2656 72.7906 72.5158L57.7709 82.3075C57.5614 82.4338 57.3863 82.6205 57.2642 82.8479C57.1422 83.0752 57.0775 83.3349 57.0772 83.5996C57.0768 83.8644 57.1407 84.1243 57.2621 84.3521C57.3835 84.5799 57.558 84.7672 57.7672 84.8942V84.8942Z" fill="#FF8B08"/>
<path d="M60.733 83.4948L65.2459 86.4241C65.3538 86.4973 65.4778 86.536 65.6042 86.536C65.7307 86.536 65.8547 86.4973 65.9625 86.4241L68.4762 84.6535C68.5332 84.6143 68.5803 84.5597 68.6129 84.4947C68.6455 84.4297 68.6626 84.3566 68.6626 84.2822C68.6626 84.2078 68.6455 84.1346 68.6129 84.0697C68.5803 84.0047 68.5332 83.95 68.4762 83.9109L63.7465 80.8918C63.6476 80.8287 63.5346 80.7983 63.4207 80.804C63.3067 80.8098 63.1967 80.8516 63.1034 80.9244L60.7183 82.7808C60.6676 82.8224 60.6266 82.8769 60.5988 82.9398C60.571 83.0026 60.5573 83.072 60.5587 83.142C60.5601 83.212 60.5767 83.2806 60.6071 83.342C60.6374 83.4034 60.6806 83.4558 60.733 83.4948V83.4948Z" fill="white"/>
<path d="M82.544 96.4036C83.8592 96.4036 84.9254 95.5707 84.9254 94.5432C84.9254 93.5157 83.8592 92.6827 82.544 92.6827C81.2288 92.6827 80.1626 93.5157 80.1626 94.5432C80.1626 95.5707 81.2288 96.4036 82.544 96.4036Z" fill="#FF4700"/>
<path d="M85.1094 98.0152C86.4246 98.0152 87.4908 97.1822 87.4908 96.1547C87.4908 95.1273 86.4246 94.2943 85.1094 94.2943C83.7942 94.2943 82.728 95.1273 82.728 96.1547C82.728 97.1822 83.7942 98.0152 85.1094 98.0152Z" fill="#FFDF24"/>
<path d="M65.8965 77.0322L94.8371 95.7181L99.3096 92.8092L69.9978 74.3517L65.8965 77.0322Z" fill="#513F2C"/>
<path opacity="0.32" d="M126.472 82.9807C128.806 81.172 131.277 79.5926 133.858 78.2602L120.687 72.1404L116.343 75.6613C119.405 77.84 122.477 79.9942 125.501 82.2259C125.828 82.4829 126.148 82.7155 126.472 82.9807Z" fill="url(#paint1_linear_109_477)"/>
<path d="M124.068 63.2136C124.043 63.0982 123.997 62.9898 123.932 62.8953C123.813 62.7349 123.672 62.5971 123.513 62.4873C121.378 60.8839 118.42 60.4474 116.163 62.01C115.649 62.369 114.881 63.1809 115.186 63.9479C115.362 64.3927 115.899 64.6538 116.288 64.8333C117.53 65.3793 118.827 65.7547 120.151 65.9512C120.628 66.0409 121.113 66.1307 121.595 66.1797C121.928 66.2153 122.264 66.1573 122.571 66.0112C122.879 65.865 123.148 65.6353 123.355 65.3433C123.682 64.87 124.215 63.9112 124.068 63.2136Z" fill="#754C24"/>
<path d="M115.127 63.597C115.127 63.597 117.075 65.5554 120.441 65.2698C123.807 64.9842 124.068 63.2299 124.068 63.2299C124.068 63.2299 123.197 75.6164 122.738 75.8286C122.279 76.0407 120.559 76.9628 119.728 77.0322C118.898 77.1015 116.274 75.9347 116.207 75.6124C116.141 75.29 115.127 63.597 115.127 63.597Z" fill="#FF8F6F"/>
<path d="M115.74 45.5435C115.637 45.3109 115.318 45.5149 115.424 45.7475C117.729 50.9045 118.177 56.7102 118.592 62.3486C118.611 62.6056 118.978 62.6097 118.96 62.3486C118.537 56.6327 118.074 50.7698 115.74 45.5435Z" fill="#007F68"/>
<path d="M115.446 45.5884C115.446 45.5884 116.089 48.2648 115.424 49.603C114.759 50.9412 114.212 51.2064 115.005 52.8669C115.799 54.5274 117.923 54.7518 118.063 56.0248C118.203 57.2977 117.045 47.865 115.446 45.5884Z" fill="#007F68"/>
<path d="M122.815 50.4231C121.04 54.5433 120.04 59.0215 119.875 63.5849C119.875 63.9031 120.312 63.899 120.323 63.5849C120.479 59.1083 121.453 54.7136 123.186 50.6679C123.322 50.3864 122.936 50.1375 122.815 50.4231Z" fill="#007F68"/>
<path d="M123.113 51.7287C123.113 51.4594 123.057 50.9127 123.083 50.4598L122.826 50.6394C121.951 53.0016 120.643 58.5503 120.253 60.2475C120.786 58.9746 122.966 58.7992 123.605 56.9836C123.887 56.213 123.9 55.3532 123.642 54.5724C123.326 53.663 123.148 52.7024 123.113 51.7287V51.7287Z" fill="#007F68"/>
<path opacity="0.32" d="M25.6733 76.102L37.9772 83.658L63.3752 67.0487L51.8063 59.7008" fill="url(#paint2_linear_109_477)"/>
<path d="M24.7769 57.2365V74.7025C24.7775 74.965 24.8407 75.2225 24.9599 75.4492C25.0791 75.6758 25.2501 75.8634 25.4557 75.9931C25.6612 76.1227 25.894 76.1897 26.1304 76.1873C26.3668 76.1849 26.5984 76.1133 26.8018 75.9795L50.1491 60.5493C50.3482 60.4174 50.5132 60.2304 50.6278 60.0066C50.7425 59.7828 50.8029 59.5298 50.8032 59.2723V41.484C50.8031 41.222 50.7407 40.9648 50.6224 40.7382C50.5041 40.5116 50.334 40.3236 50.1294 40.1932C49.9248 40.0629 49.6928 39.9948 49.4568 39.9957C49.2209 39.9967 48.9894 40.0668 48.7856 40.1988L25.9051 55.0496C25.5615 55.2732 25.2766 55.5926 25.0787 55.9763C24.8808 56.3599 24.7767 56.7944 24.7769 57.2365V57.2365Z" fill="#5DA024"/>
<path d="M25.7803 57.669V75.135C25.781 75.3975 25.8441 75.655 25.9633 75.8817C26.0825 76.1083 26.2536 76.2959 26.4591 76.4256C26.6646 76.5552 26.8974 76.6222 27.1338 76.6198C27.3702 76.6175 27.6018 76.5458 27.8052 76.412L51.1525 60.9818C51.3516 60.8499 51.5166 60.6629 51.6313 60.4391C51.7459 60.2153 51.8063 59.9623 51.8066 59.7048V41.9165C51.8065 41.6545 51.7441 41.3973 51.6258 41.1707C51.5075 40.9441 51.3374 40.7561 51.1328 40.6257C50.9282 40.4954 50.6962 40.4273 50.4603 40.4282C50.2243 40.4292 49.9928 40.4992 49.789 40.6313L26.9085 55.4821C26.5649 55.7057 26.28 56.0251 26.0821 56.4088C25.8842 56.7924 25.7801 57.2269 25.7803 57.669V57.669Z" fill="#79C83B"/>
<path d="M49.9663 58.7698C50.4619 57.3736 50.1718 55.9391 49.3183 55.5657C48.4648 55.1922 47.3711 56.0213 46.8755 57.4175C46.3798 58.8136 46.6699 60.2482 47.5234 60.6216C48.3769 60.995 49.4706 60.166 49.9663 58.7698Z" fill="#FBF472"/>
<path d="M47.5986 60.231C48.0942 58.8348 47.8041 57.4003 46.9506 57.0268C46.0971 56.6534 45.0034 57.4825 44.5078 58.8786C44.0121 60.2748 44.3023 61.7093 45.1558 62.0828C46.0093 62.4562 47.103 61.6271 47.5986 60.231Z" fill="#E2347C"/>
<path d="M28.6909 56.5838C28.9849 56.3961 29.1833 56.494 29.2458 56.849L29.0216 57.0774C28.9628 56.8816 28.8526 56.8326 28.6909 56.9346C28.569 57.0177 28.4728 57.1401 28.4153 57.2855C28.3389 57.4696 28.3012 57.6704 28.305 57.873C28.2871 58.031 28.3253 58.1905 28.4116 58.3177C28.4498 58.3529 28.4979 58.3721 28.5476 58.3721C28.5972 58.3721 28.6453 58.3529 28.6835 58.3177C28.7717 58.2542 28.847 58.1709 28.9045 58.0733C28.9621 57.9756 29.0007 57.8657 29.018 57.7506L29.2421 57.6935C29.2185 57.8944 29.1544 58.0868 29.0545 58.2563C28.9546 58.4259 28.8215 58.5682 28.6652 58.6727C28.6006 58.7286 28.521 58.759 28.4392 58.759C28.3573 58.759 28.2777 58.7286 28.2131 58.6727C28.1429 58.5852 28.0905 58.482 28.0595 58.3701C28.0284 58.2582 28.0194 58.1401 28.0331 58.024C28.03 57.7164 28.0943 57.4125 28.2205 57.1386C28.3257 56.9071 28.4891 56.7144 28.6909 56.5838Z" fill="white"/>
<path d="M30.1132 56.8327L30.4807 57.5099L30.2014 57.6894L29.8339 57.0366L29.7016 57.1182V57.9995L29.4517 58.1586V56.1187L29.9441 55.8045C30.205 55.6372 30.352 55.776 30.352 56.1268C30.3581 56.3876 30.2724 56.6408 30.1132 56.8327V56.8327ZM29.9588 56.6123C30.0112 56.58 30.0543 56.5317 30.0829 56.4732C30.1115 56.4147 30.1246 56.3483 30.1205 56.2819C30.1205 56.1268 30.0678 56.0833 29.9625 56.1513L29.7199 56.3063V56.7674L29.9625 56.6123" fill="white"/>
<path d="M31.502 54.8253V55.1762L30.9177 55.5434L30.914 55.9718L31.3807 55.678V56.0289L30.914 56.3226L30.9103 56.8857L31.513 56.5062V56.8571L30.6567 57.3957L30.6678 55.3516L31.502 54.8253Z" fill="white"/>
<path d="M32.1709 54.4009C32.4907 54.201 32.7994 54.3112 32.7957 55.0252C32.8076 55.3019 32.7558 55.5775 32.6452 55.8259C32.5346 56.0743 32.3688 56.2874 32.1636 56.445L31.7446 56.7102V54.6702L32.1709 54.4009ZM32.3878 55.8208C32.4924 55.6308 32.5448 55.411 32.5384 55.1884C32.5384 54.9273 32.4833 54.7804 32.3914 54.7437C32.3402 54.7292 32.2867 54.7272 32.2347 54.7377C32.1827 54.7483 32.1334 54.7712 32.0901 54.8049L31.9982 54.862V56.2043L32.0901 56.1471C32.2141 56.0675 32.3188 55.9554 32.3951 55.8208" fill="white"/>
<path d="M33.277 53.6992L33.266 55.7432L33.0161 55.9024L33.0235 53.8583L33.277 53.6992Z" fill="white"/>
<path d="M34.4864 52.9323V53.2831L34.1116 53.5198L34.1042 55.2129L33.8543 55.372L33.8617 53.6789L33.4868 53.9155L33.4905 53.5646L34.4864 52.9323Z" fill="white"/>
<path d="M35.7099 52.1162C36.0039 51.9286 36.2023 52.0265 36.2648 52.3814L36.0406 52.6099C35.9818 52.4141 35.8716 52.3651 35.7099 52.4671C35.5882 52.5506 35.4922 52.6729 35.4343 52.818C35.3579 53.002 35.3202 53.2029 35.324 53.4055C35.3061 53.5635 35.3443 53.723 35.4306 53.8502C35.4691 53.8846 35.5171 53.9034 35.5666 53.9034C35.616 53.9034 35.664 53.8846 35.7025 53.8502C35.7907 53.7866 35.8659 53.7034 35.9235 53.6057C35.9811 53.5081 36.0197 53.3982 36.037 53.2831L36.2611 53.226C36.2381 53.424 36.1757 53.6138 36.0785 53.7818C35.9812 53.9497 35.8516 54.0915 35.6989 54.197C35.6343 54.2529 35.5547 54.2833 35.4728 54.2833C35.3909 54.2833 35.3114 54.2529 35.2468 54.197C35.1766 54.1095 35.1242 54.0063 35.0931 53.8944C35.0621 53.7825 35.0531 53.6644 35.0668 53.5483C35.0633 53.2406 35.1277 52.9367 35.2542 52.6629C35.3566 52.4366 35.5146 52.2471 35.7099 52.1162V52.1162Z" fill="white"/>
<path d="M37.0401 51.3003L37.4884 53.0547L37.2202 53.226L37.1246 52.818L36.6946 53.0914L36.5954 53.6381L36.3271 53.8094L36.7939 51.4757L37.0401 51.3003ZM36.7682 52.6793L37.0511 52.4998L36.9115 51.8837L36.7645 52.6997" fill="white"/>
<path d="M38.3082 51.6389L38.6757 52.3161L38.3964 52.4957L38.0289 51.8429L37.9003 51.9245V52.8057L37.6504 52.9648V50.9249L38.1392 50.6148C38.4001 50.4475 38.5471 50.5863 38.5471 50.9371C38.5522 51.1965 38.4666 51.448 38.3082 51.6389V51.6389ZM38.1539 51.4186C38.2053 51.3863 38.2475 51.3385 38.2754 51.2808C38.3034 51.223 38.316 51.1576 38.3119 51.0922C38.3119 50.9371 38.2604 50.8923 38.1575 50.9616L37.915 51.1166V51.5777L38.1575 51.4226" fill="white"/>
<path d="M39.2859 49.8927C39.602 49.6928 39.9107 49.8029 39.907 50.521C39.9182 50.7971 39.8661 51.0718 39.7556 51.3194C39.645 51.5671 39.4796 51.7795 39.2749 51.9367L38.856 52.2019V50.1619L39.2859 49.8927ZM39.5028 51.3125C39.6066 51.1221 39.659 50.9026 39.6534 50.6801C39.6534 50.419 39.5983 50.2721 39.5064 50.2354C39.4552 50.2209 39.4017 50.2189 39.3497 50.2295C39.2977 50.24 39.2484 50.2629 39.2051 50.2966L39.1132 50.3578V51.7001L39.2051 51.6389C39.329 51.5589 39.4336 51.447 39.5101 51.3125" fill="white"/>
<path d="M28.5586 61.9815V65.2454C28.5581 65.3832 28.5904 65.5186 28.6521 65.6381C28.7139 65.7576 28.8029 65.8569 28.9102 65.926C29.0176 65.9951 29.1394 66.0316 29.2635 66.0317C29.3876 66.0318 29.5095 65.9956 29.617 65.9267L33.722 63.3238C33.8324 63.2569 33.9247 63.1584 33.9893 63.0386C34.0539 62.9188 34.0885 62.782 34.0895 62.6424V59.3091C34.0893 59.1697 34.0556 59.0329 33.9918 58.9128C33.9281 58.7926 33.8366 58.6936 33.7269 58.6258C33.6172 58.558 33.4931 58.524 33.3676 58.5272C33.242 58.5304 33.1195 58.5708 33.0127 58.6441L28.9077 61.3165C28.8029 61.3846 28.7157 61.4816 28.6545 61.5981C28.5933 61.7146 28.5603 61.8466 28.5586 61.9815V61.9815Z" fill="#D1D1F5"/>
<path d="M35.6952 59.2275L35.7908 59.1663L35.6695 61.2062L35.4527 61.349L35.5446 59.8231L35.2983 60.2066L35.3241 59.8109L35.6952 59.2275Z" fill="white"/>
<path d="M36.3825 58.7543H36.4119C36.6361 58.6074 36.7574 58.7542 36.7353 59.1092C36.7197 59.3011 36.6749 59.4887 36.603 59.6641L36.2723 60.5086L36.6949 60.2271L36.6729 60.5616L35.9048 61.0512V60.9044L36.3899 59.6804C36.4489 59.5441 36.4874 59.398 36.5038 59.2479C36.5038 59.0806 36.4671 59.0154 36.3715 59.0806C36.3243 59.1263 36.2857 59.1819 36.2579 59.2442C36.2302 59.3066 36.2138 59.3744 36.2098 59.4438L36.015 59.5131C36.0304 59.351 36.0754 59.1941 36.1473 59.0521C36.2041 58.9341 36.2846 58.8322 36.3825 58.7543Z" fill="white"/>
<path d="M37.0439 58.3299L37.7311 57.8729V58.0035L37.4114 58.8399L37.4592 58.7991C37.6429 58.6807 37.7422 58.848 37.7238 59.2071C37.7137 59.408 37.6648 59.6042 37.5805 59.7823C37.5192 59.9214 37.4284 60.0418 37.3159 60.1332L37.2791 60.1577C37.1689 60.2352 37.077 60.2393 37.0108 60.1781C36.9718 60.1332 36.9425 60.0789 36.9253 60.0195C36.9081 59.9601 36.9034 59.8971 36.9116 59.8354L37.1211 59.6518C37.1211 59.8313 37.1946 59.8884 37.2975 59.8231C37.3582 59.7663 37.4073 59.6958 37.4415 59.6163C37.4757 59.5369 37.4943 59.4502 37.4959 59.3621C37.4959 59.1295 37.4408 59.0561 37.3306 59.1295C37.2938 59.1589 37.2615 59.1947 37.235 59.2356L37.1615 59.0887L37.4188 58.4115L37.0513 58.6644L37.0439 58.3299Z" fill="white"/>
<path d="M38.6279 58.5503L38.7602 58.4605L38.7418 58.7991L38.6058 58.8848L38.5838 59.2642L38.367 59.407L38.389 59.0276L37.8745 59.3703V59.1827L38.4662 57.3712L38.694 57.2202L38.6279 58.5503ZM38.4111 58.6931L38.4552 57.9179L38.1538 58.8644L38.4074 58.6931" fill="white"/>
<path d="M40.1088 57.567L40.2448 57.4772L40.2227 57.8159L40.0904 57.9016L40.0684 58.2851L39.8552 58.4279L39.8773 58.0484L39.3628 58.3911V58.2075L39.9581 56.3961L40.186 56.2451L40.1088 57.567ZM39.892 57.7098L39.9398 56.9305L39.6384 57.8812L39.892 57.7098" fill="white"/>
<path d="M40.6273 55.9513L41.2484 55.5433L41.2263 55.882L40.7853 56.1757L40.7302 56.6204C40.7704 56.5559 40.8201 56.4993 40.8772 56.4532H40.9066C41.1492 56.29 41.2741 56.4532 41.2374 56.8815C41.2276 57.0829 41.1814 57.2799 41.1014 57.4609C41.042 57.6047 40.951 57.7295 40.8368 57.824L40.7927 57.8281C40.7581 57.8613 40.715 57.8816 40.6695 57.886C40.6239 57.8904 40.5783 57.8787 40.5391 57.8526C40.5028 57.8091 40.4754 57.7574 40.4589 57.7011C40.4424 57.6447 40.4372 57.585 40.4436 57.5262L40.653 57.3263C40.653 57.5017 40.7192 57.5547 40.8147 57.4895C40.8752 57.4317 40.9232 57.3595 40.955 57.2782C40.9868 57.197 41.0017 57.1088 40.9985 57.0203C40.9985 56.7877 40.9507 56.7143 40.8331 56.7918H40.8147C40.7238 56.8744 40.6531 56.981 40.6089 57.1019L40.4766 57.1467L40.6273 55.9513Z" fill="white"/>
<path d="M42.1521 55.8248C42.1912 55.8824 42.2189 55.9485 42.2335 56.0188C42.248 56.0891 42.2491 56.162 42.2366 56.2328C42.224 56.4255 42.1752 56.6131 42.0933 56.7836C42.0322 56.925 41.9414 57.0481 41.8287 57.1426L41.7956 57.1671C41.7571 57.2033 41.7083 57.2232 41.6578 57.2232C41.6073 57.2232 41.5585 57.2033 41.52 57.1671C41.479 57.1106 41.4498 57.0447 41.4345 56.9741C41.4193 56.9036 41.4184 56.8301 41.4318 56.7591C41.4406 56.6194 41.4679 56.482 41.5127 56.3511L41.9243 55.0496L42.1631 54.8905L41.8581 55.8207H41.8875C41.9978 55.7473 42.086 55.7473 42.1521 55.8248ZM42.0198 56.3715C42.0198 56.1675 41.961 56.0941 41.8544 56.1675C41.7971 56.2213 41.7507 56.2881 41.7184 56.3634C41.6861 56.4387 41.6686 56.5207 41.667 56.6041C41.667 56.7999 41.7295 56.8774 41.8324 56.8081C41.8902 56.7535 41.937 56.6861 41.9699 56.6102C42.0028 56.5343 42.0211 56.4516 42.0235 56.3674" fill="white"/>
<path d="M42.4572 54.7355L43.1849 54.25L43.1775 54.405L42.6116 56.5959L42.3984 56.7347L42.9093 54.76L42.4352 55.0741L42.4572 54.7355Z" fill="white"/>
<path d="M44.3387 54.3888C44.4416 54.4214 44.4857 54.5479 44.471 54.7723C44.4609 54.9603 44.4119 55.1432 44.3277 55.3067C44.2673 55.4371 44.1805 55.5502 44.0741 55.6372L44.0411 55.6617C44.0028 55.6951 43.9556 55.7133 43.9069 55.7133C43.8583 55.7133 43.811 55.6951 43.7728 55.6617C43.7335 55.609 43.7055 55.5471 43.6909 55.4807C43.6762 55.4143 43.6753 55.345 43.6883 55.2782C43.6979 55.0638 43.763 54.857 43.8757 54.6825C43.8059 54.6336 43.7765 54.5234 43.7875 54.348C43.7978 54.1864 43.8391 54.0292 43.9088 53.8869C43.962 53.7642 44.0415 53.6577 44.1403 53.5769H44.166C44.2689 53.5116 44.3461 53.5075 44.4049 53.5769C44.4378 53.6228 44.4615 53.6762 44.4742 53.7332C44.4868 53.7902 44.4883 53.8496 44.4784 53.9073C44.4679 54.0781 44.42 54.2433 44.3387 54.3888V54.3888ZM44.2542 54.9192C44.2599 54.8874 44.2596 54.8547 44.2533 54.8231C44.247 54.7914 44.2348 54.7616 44.2175 54.7356C44.1881 54.707 44.1476 54.707 44.0962 54.7356C44.0477 54.7748 44.0086 54.8266 43.9823 54.8865C43.946 54.9623 43.9247 55.0457 43.9198 55.1313C43.9138 55.1631 43.914 55.1958 43.9203 55.2275C43.9267 55.2592 43.939 55.2889 43.9565 55.3149C43.9859 55.3435 44.0264 55.3475 44.0741 55.3149C44.1226 55.2757 44.1618 55.2238 44.1881 55.1639C44.2246 55.0883 44.2459 55.0048 44.2505 54.9192M44.2726 54.0461C44.2726 53.891 44.2285 53.8298 44.1403 53.8869C44.0957 53.9288 44.0596 53.9805 44.0343 54.0389C44.009 54.0972 43.995 54.1608 43.9933 54.2256C43.9933 54.3806 44.0374 54.45 44.1219 54.3928C44.1675 54.35 44.2045 54.297 44.2304 54.2372C44.2564 54.1775 44.2708 54.1124 44.2726 54.0461" fill="white"/>
<path d="M45.3974 52.9322C45.4384 52.9887 45.4676 53.0546 45.4829 53.1251C45.4981 53.1957 45.499 53.2691 45.4856 53.3402C45.4785 53.4797 45.4525 53.6172 45.4084 53.7481L44.9968 55.0456L44.7543 55.2047L45.0593 54.2744H45.0336C44.9233 54.3479 44.8339 54.3479 44.7653 54.2744C44.7271 54.2164 44.7001 54.1501 44.6862 54.0799C44.6723 54.0097 44.6717 53.937 44.6844 53.8665C44.7009 53.6813 44.7523 53.502 44.8351 53.3402C44.8963 53.1988 44.987 53.0757 45.0997 52.9811L45.1328 52.9566C45.1676 52.9193 45.2129 52.8964 45.2612 52.8919C45.3094 52.8875 45.3575 52.9017 45.3974 52.9322V52.9322ZM45.2688 53.4707C45.2688 53.2749 45.2063 53.1974 45.0997 53.2708C45.0421 53.3255 44.9954 53.393 44.9625 53.4688C44.9296 53.5447 44.9113 53.6273 44.9086 53.7114C44.9086 53.9154 44.9674 53.9889 45.0777 53.9113C45.135 53.8575 45.1814 53.7907 45.2137 53.7155C45.246 53.6402 45.2635 53.5582 45.2651 53.4748" fill="white"/>
<path d="M45.6874 52.5895L46.4188 52.104L46.4077 52.255L45.8455 54.4459L45.6323 54.5846L46.1431 52.6099L45.6691 52.9281L45.6874 52.5895Z" fill="white"/>
<path d="M47.2383 51.7082C47.2786 51.7651 47.3074 51.8311 47.3227 51.9015C47.3379 51.9719 47.3392 52.0452 47.3265 52.1162C47.3199 52.2558 47.2939 52.3934 47.2493 52.5242L46.8377 53.8216L46.5952 53.9807L46.9002 53.0505H46.8745C46.7642 53.128 46.6724 53.128 46.6062 53.0505C46.5691 52.9918 46.5429 52.9255 46.529 52.8555C46.5151 52.7855 46.5139 52.7131 46.5254 52.6425C46.5414 52.4577 46.5914 52.2786 46.6724 52.1162C46.7333 51.9746 46.824 51.8515 46.937 51.7572L46.97 51.7327C47.0766 51.647 47.1685 51.6429 47.2383 51.7082ZM47.1097 52.2508C47.1097 52.055 47.0472 51.9775 46.9406 52.0509C46.883 52.1057 46.8363 52.1731 46.8034 52.249C46.7705 52.3248 46.7522 52.4074 46.7495 52.4915C46.7495 52.6955 46.8083 52.769 46.9186 52.6915C46.9759 52.6376 47.0223 52.5709 47.0546 52.4956C47.0869 52.4203 47.1045 52.3383 47.106 52.2549" fill="white"/>
<path d="M31.7703 68.1503L31.4322 69.3049L31.785 70.0882L31.5388 70.28L31.3036 69.7537L31.039 70.6635L30.7891 70.8552L31.1896 69.4926L30.8883 68.8275L31.1345 68.6399L31.3183 69.0478L31.5277 68.3379L31.7703 68.1503Z" fill="white"/>
<path d="M33.8137 66.5836L33.4756 67.7382L33.8284 68.5216L33.5785 68.7133L33.347 68.187L33.0787 69.0968L32.8325 69.2886L33.2294 67.9259L32.9317 67.2609L33.178 67.0732L33.3617 67.4812L33.5712 66.7713L33.8137 66.5836Z" fill="white"/>
<path d="M32.7923 67.3669L32.4542 68.5216L32.807 69.3049L32.5571 69.4967L32.3255 68.9703L32.0573 69.8802L31.811 70.0719L32.2079 68.7092L31.9103 68.0442L32.1565 67.8565L32.3402 68.2645L32.5497 67.5546L32.7923 67.3669Z" fill="white"/>
<path d="M35.2615 65.4697L34.9234 66.6284L35.2762 67.4118L35.0263 67.6035L34.7948 67.0772L34.5265 67.987L34.2803 68.1747L34.6808 66.8161L34.3795 66.147L34.6257 65.9593L34.8095 66.3714L35.0189 65.6574L35.2615 65.4697Z" fill="white"/>
<path d="M36.2835 64.6864L35.9454 65.8451L36.2982 66.6284L36.0483 66.8202L35.8167 66.2898L35.5485 67.2037L35.3022 67.3914L35.7028 66.0328L35.4015 65.3637L35.6477 65.176L35.8314 65.584L36.0409 64.8741L36.2835 64.6864Z" fill="white"/>
<path d="M37.3047 63.9031L36.9666 65.0618L37.3194 65.8451L37.0732 66.0328L36.838 65.5065L36.5734 66.4163L36.3198 66.6081L36.7204 65.2494L36.4227 64.5803L36.6689 64.3927L36.8527 64.8007L37.0622 64.0908L37.3047 63.9031Z" fill="white"/>
<path opacity="0.32" d="M88.4756 74.0131L99.3095 81.2671L115.873 70.4309L104.304 63.083" fill="url(#paint3_linear_109_477)"/>
<path d="M64.4303 26.4618C63.8828 26.8806 63.4401 27.447 63.1438 28.1079C62.8474 28.7687 62.7072 29.5023 62.7362 30.2398C62.8427 33.7281 63.5447 34.4013 63.5447 34.4013L68.5537 31.68L75.8192 25.7845C75.8192 25.7845 69.6966 24.1158 64.4303 26.4618Z" fill="#666666"/>
<path d="M55.522 45.7924C55.522 45.7924 54.3533 50.6434 60.3326 55.6821C66.3118 60.7208 88.4757 74.0131 88.4757 74.0131L104.921 63.2299V54.8988L61.9238 38.5179" fill="#E6E6E6"/>
<path d="M104.921 54.8987L80.7397 35.205C80.7397 35.205 76.9691 31.5983 73.6543 31.9411C70.3394 32.2838 57.0947 42.1408 57.0947 42.1408L89.7765 65.5798L104.921 54.8987Z" fill="#333333"/>
<path d="M76.4033 50.8106L80.4826 54.3846L90.5594 47.665L86.7301 44.295L76.4033 50.8106Z" fill="#70F9E9"/>
<path d="M71.1885 47.8078L89.4936 63.2298L101.801 55.4128L83.4813 39.9907L71.1885 47.8078Z" fill="#FF8B08"/>
<path d="M89.7766 64.8455L69.792 48.2729C69.792 48.2729 61.0933 38.9136 57.7564 41.7084C57.7564 41.7084 55.8454 42.4754 55.522 45.7883C55.522 45.7883 58.2525 43.2751 61.1116 45.2171C63.9708 47.1591 89.1262 68.6031 89.1262 68.6031L89.7766 64.8455Z" fill="#666666"/>
<path d="M89.7764 64.8455L104.921 54.8987V58.1055L89.126 68.6071L89.7764 64.8455Z" fill="#515151"/>
<path d="M89.1261 68.6071L88.4756 74.013C88.4756 74.013 104.921 63.6256 104.921 63.2298V58.1055L89.1261 68.6071Z" fill="#CCCCCC"/>
<path d="M69.5896 42.859L77.9098 37.8121C77.9098 37.8121 77.7922 28.8608 74.6023 23.3938C74.3106 22.9149 73.8733 22.5688 73.3704 22.419C72.8675 22.2691 72.3329 22.3255 71.8644 22.5778L64.4482 26.47C64.4482 26.47 67.289 24.6014 69.5896 42.859Z" fill="#E6E6E6"/>
<path d="M70.1152 31.933L75.444 28.6895" stroke="#999999" stroke-width="1.015" stroke-miterlimit="10"/>
<path d="M70.4902 33.2997L75.8227 30.0562" stroke="#999999" stroke-width="1.015" stroke-miterlimit="10"/>
<path d="M70.7031 34.6216L76.0355 31.3781" stroke="#999999" stroke-width="1.015" stroke-miterlimit="10"/>
<path d="M71.4604 40.1417L76.7892 36.8982" stroke="#999999" stroke-width="1.015" stroke-miterlimit="10"/>
<path d="M92.0108 52.2305C91.7058 54.1154 88.9863 55.1558 85.9397 54.556C82.8931 53.9563 80.6697 51.9367 80.9748 50.0681C81.2798 48.1995 83.9993 47.1429 87.0459 47.7426C90.0924 48.3423 92.3195 50.3456 92.0108 52.2305Z" fill="#01C56F"/>
<path d="M85.3408 52.7241H87.7773L86.8035 48.7666" stroke="#F2F2F2" stroke-width="2.03" stroke-miterlimit="10"/>
<defs>
<linearGradient id="paint0_linear_109_477" x1="95.7079" y1="101.238" x2="93.2564" y2="97.7997" gradientUnits="userSpaceOnUse">
<stop stop-color="white" stop-opacity="0"/>
<stop offset="0.98" stop-color="#0800BF"/>
</linearGradient>
<linearGradient id="paint1_linear_109_477" x1="128.632" y1="80.1288" x2="119.279" y2="73.3381" gradientUnits="userSpaceOnUse">
<stop stop-color="white" stop-opacity="0"/>
<stop offset="0.98" stop-color="#0800BF"/>
</linearGradient>
<linearGradient id="paint2_linear_109_477" x1="46.8083" y1="76.2366" x2="41.5741" y2="67.5742" gradientUnits="userSpaceOnUse">
<stop stop-color="white" stop-opacity="0"/>
<stop offset="0.98" stop-color="#0800BF"/>
</linearGradient>
<linearGradient id="paint3_linear_109_477" x1="104.172" y1="76.2978" x2="99.0876" y2="67.8791" gradientUnits="userSpaceOnUse">
<stop stop-color="white" stop-opacity="0"/>
<stop offset="0.98" stop-color="#0800BF"/>
</linearGradient>
</defs>
</svg>
