<svg width="147" height="123" viewBox="0 0 147 123" fill="none" xmlns="http://www.w3.org/2000/svg">
<path d="M71.1482 117.444L5.09739 74.1069C2.99529 72.7973 1.19086 70.6472 3.24151 69.2518L69.5275 26.8209C70.5234 26.1354 72.0338 25.6866 73.0445 26.3394L142.377 71.0144C144.479 72.3689 144.858 76.155 142.745 77.5136L79.8542 117.395C78.5321 118.242 77.0337 118.692 75.507 118.701C73.9803 118.71 72.478 118.276 71.1482 117.444Z" fill="#5A5A5A"/>
<path d="M18.125 34.0749V73.295L61.0453 45.2375V5.51965L18.125 34.0749Z" fill="#FF8B08"/>
<path d="M76.1939 92.6174C84.0446 92.6174 90.4088 91.3022 90.4088 89.6798C90.4088 88.0575 84.0446 86.7423 76.1939 86.7423C68.3432 86.7423 61.979 88.0575 61.979 89.6798C61.979 91.3022 68.3432 92.6174 76.1939 92.6174Z" fill="#194E72"/>
<path d="M21.5978 75.6818L21.2671 75.9306C29.7747 81.3039 52.3061 95.7467 68.5496 106.179L68.8657 105.91C52.0232 95.0939 30.1863 81.0836 21.5978 75.6818Z" fill="#FF8B08"/>
<path d="M126.673 76.718L82.125 105.4L82.4925 105.64L127.081 76.9302L126.673 76.718Z" fill="#FF8B08"/>
<path d="M82.1254 106.807C83.2234 106.807 84.1136 106.183 84.1136 105.412C84.1136 104.641 83.2234 104.017 82.1254 104.017C81.0273 104.017 80.1372 104.641 80.1372 105.412C80.1372 106.183 81.0273 106.807 82.1254 106.807Z" fill="#FF8B08"/>
<path d="M68.8622 107.574C69.9602 107.574 70.8504 106.95 70.8504 106.179C70.8504 105.408 69.9602 104.784 68.8622 104.784C67.7642 104.784 66.874 105.408 66.874 106.179C66.874 106.95 67.7642 107.574 68.8622 107.574Z" fill="#FF8B08"/>
<path d="M21.8554 77.1954C22.9534 77.1954 23.8435 76.5707 23.8435 75.8001C23.8435 75.0295 22.9534 74.4048 21.8554 74.4048C20.7573 74.4048 19.8672 75.0295 19.8672 75.8001C19.8672 76.5707 20.7573 77.1954 21.8554 77.1954Z" fill="#FF8B08"/>
<path d="M126.361 78.4642C127.459 78.4642 128.349 77.8395 128.349 77.0689C128.349 76.2983 127.459 75.6736 126.361 75.6736C125.263 75.6736 124.373 76.2983 124.373 77.0689C124.373 77.8395 125.263 78.4642 126.361 78.4642Z" fill="#FF8B08"/>
<path d="M83.8193 73.6092C83.8193 73.6092 86.0023 73.8662 86.6491 75.1554C87.2959 76.4447 87.8692 78.5377 88.2881 79.3251C88.7071 80.1125 89.2547 79.2231 89.4127 77.9787C89.5707 76.7344 88.8504 75.5512 89.2877 74.4415C89.7251 73.3317 89.3171 72.7361 88.4057 72.4015C87.4943 72.067 85.9141 71.6998 84.1574 70.8838" fill="#4E62D4"/>
<path d="M89.2803 66.559C89.2803 66.559 91.342 65.743 92.4335 66.559C93.5249 67.375 94.8663 69.007 95.5572 69.5047C96.2481 70.0025 96.3841 68.9417 96.035 67.7463C95.6858 66.5509 94.565 65.841 94.5209 64.6292C94.4768 63.4175 93.8741 63.0789 92.9149 63.2176C91.9557 63.3563 90.4049 63.8173 88.5049 63.9275" fill="#4E62D4"/>
<path d="M64.6104 59.2234C64.6104 59.2234 69.8877 71.3815 71.4826 71.7079C73.0775 72.0343 83.1728 77.175 83.9997 76.5018C84.8265 75.8286 85.2675 70.8715 84.9331 70.3819C84.5987 69.8923 74.463 67.1425 74.3381 66.914C74.2131 66.6855 69.6635 57.9382 69.6635 57.9382L64.6104 59.2234Z" fill="#ED9B2F"/>
<path d="M65.8486 58.383C65.8486 58.383 73.2427 67.2119 74.6466 68.1054C77.1676 69.7373 89.6663 68.4726 90.2323 67.526C90.7982 66.5795 90.5005 63.4461 90.0338 63.1075C89.5671 62.7689 77.5388 63.1075 77.3404 62.9402C77.1419 62.7729 71.8279 57.2692 71.8279 57.2692L65.8486 58.383Z" fill="#FBB03B"/>
<path d="M75.9513 49.7172C76.3556 49.6764 76.7819 49.6234 77.1972 49.5337C77.8012 49.1468 78.3864 48.7246 78.9501 48.2689C79.1582 48.0355 79.3989 47.8412 79.6631 47.6936C79.7107 47.6609 79.7644 47.6407 79.8201 47.6346C79.8758 47.6284 79.932 47.6365 79.9845 47.6581C80.0369 47.6798 80.0843 47.7144 80.1228 47.7595C80.1614 47.8045 80.1902 47.8587 80.207 47.918C80.234 48.0664 80.2251 48.2201 80.1812 48.3634C80.1373 48.5068 80.06 48.6346 79.9571 48.734C79.7954 48.9217 79.6227 49.1012 79.4499 49.2807C80.18 49.1951 80.9034 49.0506 81.6145 48.8482C82.0702 48.7299 82.2834 49.5051 81.824 49.6234L81.3315 49.7499C81.6392 49.7408 81.9472 49.7503 82.254 49.7784C82.6215 49.8152 82.8126 50.4598 82.3716 50.5699C81.7766 50.7207 81.1722 50.8203 80.5635 50.8678C80.9726 50.8977 81.3842 50.914 81.7983 50.9167C82.265 50.9167 82.2944 51.7327 81.824 51.7327C81.2458 51.7327 80.6688 51.7042 80.0931 51.647C80.2952 51.7735 80.4936 51.9041 80.6884 52.055C81.0853 52.3284 80.7509 53.0505 80.3503 52.7731C79.9497 52.4957 79.5786 52.2631 79.1817 52.0306H79.1339C77.8525 52.1856 76.5687 52.3121 75.2825 52.41C74.8121 52.4467 74.79 51.6348 75.2568 51.594L75.8484 51.545C75.8264 51.4869 75.815 51.4245 75.815 51.3614C75.815 51.2984 75.8264 51.236 75.8484 51.1779C75.7897 51.1486 75.739 51.1027 75.7012 51.0449C75.6635 50.987 75.6401 50.9192 75.6334 50.8481C75.6267 50.7771 75.637 50.7053 75.6631 50.64C75.6892 50.5747 75.7303 50.5182 75.7823 50.4761C75.7142 50.4315 75.6609 50.3637 75.6302 50.2827C75.5996 50.2018 75.5934 50.112 75.6123 50.0268C75.6313 49.9416 75.6746 49.8654 75.7356 49.8097C75.7967 49.7539 75.8723 49.7215 75.9513 49.7172Z" fill="#FFC285"/>
<path d="M79.4866 49.7743C79.3616 50.4271 79.1632 51.1248 78.5494 51.3777C78.4245 51.4308 78.3473 51.2186 78.4723 51.1656C79.0162 50.9412 79.1742 50.3129 79.2844 49.7417C79.3102 49.5989 79.516 49.6315 79.4866 49.7743Z" fill="#6D320B"/>
<path d="M80.0892 49.9376C80.6734 49.825 81.2514 49.6751 81.8201 49.4888C81.9156 49.4561 81.9744 49.6152 81.8789 49.6479C81.298 49.8377 80.7078 49.9902 80.1112 50.1048C80.012 50.1293 79.9936 49.958 80.0892 49.9376Z" fill="#6D320B"/>
<path d="M80.1812 50.827C80.913 50.8214 81.641 50.7076 82.3457 50.4884C82.4413 50.4598 82.5001 50.619 82.4045 50.6475C81.6867 50.8715 80.9452 50.9881 80.1995 50.9943C80.115 50.9943 80.0819 50.827 80.1812 50.827Z" fill="#6D320B"/>
<path d="M79.7475 51.6348C80.3438 51.7002 80.9445 51.7002 81.5409 51.6348C81.6401 51.6348 81.6585 51.7939 81.5592 51.8062C80.9482 51.8734 80.3327 51.8734 79.7217 51.8062C79.6188 51.7898 79.6372 51.6226 79.7475 51.6348Z" fill="#6D320B"/>
<path d="M76.2895 44.1278C76.1499 43.3118 75.9771 42.5285 75.8044 41.7248C75.6008 40.563 75.2816 39.43 74.8526 38.3466C74.4373 37.9876 73.6766 38.0121 73.2209 38.1793C72.6476 38.3874 72.2654 38.9708 71.7509 39.3054C71.082 39.7419 70.3985 39.8072 69.6745 40.0316C68.9374 40.2876 68.2844 40.7785 67.7966 41.4432C67.3522 42.0498 66.778 42.523 66.1263 42.8195C65.4747 43.116 64.7664 43.2264 64.0665 43.1405C63.2286 43.0263 62.5671 42.9202 61.7439 43.1935C60.4686 43.6015 59.4617 44.6174 59.3037 46.1311C59.1603 47.4978 59.6895 48.8116 60.906 49.2848C61.5191 49.4704 62.1692 49.4391 62.7655 49.1951C63.3315 49.0196 63.9599 49.0278 64.5111 48.7871L64.5736 48.7585C65.0636 48.4755 65.5693 48.2275 66.0877 48.016C66.7749 47.812 67.4952 47.7671 68.1935 47.608C69.1196 47.3917 69.7958 46.792 70.5161 46.1311C71.4348 45.3151 72.1515 45.3151 73.2723 45.4008H73.4708C74.2171 45.3957 74.9465 45.1536 75.5729 44.7031C75.8262 44.5345 76.0659 44.3421 76.2895 44.1278Z" fill="#EE6300"/>
<path d="M53.236 48.7217C52.8685 48.5055 52.501 48.2729 52.1555 48.0077C51.7379 47.3877 51.3503 46.7436 50.9942 46.0779C50.8855 45.7724 50.7329 45.4886 50.5422 45.2375C50.5098 45.1866 50.4674 45.1446 50.4182 45.1147C50.369 45.0848 50.3142 45.0679 50.2582 45.0651C50.2021 45.0623 50.1462 45.0739 50.0948 45.0988C50.0434 45.1237 49.9978 45.1614 49.9615 45.2089C49.8807 45.3352 49.8321 45.4835 49.8211 45.6379C49.8101 45.7924 49.8371 45.9473 49.8991 46.0861C49.9836 46.3309 50.0755 46.5716 50.171 46.8123C49.5299 46.4151 48.9158 45.9664 48.3335 45.47C47.966 45.164 47.4846 45.7801 47.8631 46.0902L48.271 46.4207C47.992 46.2784 47.7061 46.1531 47.4148 46.0453C47.0473 45.9147 46.6577 46.4288 47.0252 46.7226C47.518 47.1213 48.0377 47.4773 48.5797 47.7874C48.1926 47.6351 47.8092 47.4705 47.4295 47.2938C46.9995 47.0898 46.6945 47.8241 47.1208 48.0281C47.6524 48.2784 48.1926 48.5041 48.7414 48.7054C48.5136 48.734 48.2821 48.7666 48.0542 48.8074C47.5912 48.889 47.6463 49.6968 48.1093 49.6234C48.5724 49.5499 48.9987 49.4887 49.447 49.452L49.4875 49.4806C50.6096 50.1823 51.7451 50.8623 52.8942 51.5205C53.3131 51.7572 53.6292 51.0228 53.2029 50.7861L52.6737 50.4842C52.7133 50.4382 52.7441 50.3837 52.7643 50.3241C52.7845 50.2646 52.7937 50.2011 52.7913 50.1374C52.8555 50.136 52.9183 50.1159 52.9734 50.0791C53.0284 50.0424 53.0738 49.9902 53.1051 49.9279C53.1363 49.8655 53.1523 49.7952 53.1514 49.7239C53.1505 49.6525 53.1328 49.5827 53.1 49.5214C53.1922 49.533 53.285 49.5055 53.3596 49.4443C53.4343 49.3832 53.4854 49.2929 53.5026 49.1917C53.5198 49.0904 53.5019 48.9857 53.4525 48.8985C53.403 48.8114 53.3257 48.7482 53.236 48.7217Z" fill="#FFC285"/>
<path d="M49.9799 47.2203C49.8623 47.8731 49.7998 48.6034 50.2739 49.1052C50.3694 49.2072 50.5164 49.044 50.4209 48.9461C50.0019 48.5014 50.0791 47.8527 50.1783 47.2815C50.1894 47.1469 49.9799 47.0857 49.9799 47.2203Z" fill="#6D320B"/>
<path d="M49.3515 47.1183C48.8539 46.7602 48.3754 46.3706 47.9182 45.9514C47.841 45.8821 47.7308 46.0004 47.808 46.0738C48.2768 46.5034 48.7677 46.9025 49.278 47.2693C49.3588 47.3264 49.436 47.1795 49.3515 47.1183Z" fill="#6D320B"/>
<path d="M48.9582 47.8935C48.2872 47.5688 47.6581 47.1462 47.0877 46.6369C47.0105 46.5676 46.9002 46.69 46.9774 46.7593C47.5569 47.2767 48.1958 47.7061 48.8774 48.0363C48.9692 48.0853 49.0464 47.9384 48.9582 47.8935Z" fill="#6D320B"/>
<path d="M49.0798 48.8318C48.4999 48.6292 47.9397 48.3627 47.4076 48.0363C47.3194 47.9832 47.2423 48.1301 47.3305 48.1831C47.8691 48.5081 48.4354 48.7732 49.021 48.9746C49.1312 49.0277 49.1716 48.8522 49.0798 48.8318Z" fill="#6D320B"/>
<path d="M64.129 47.4325L61.7402 48.4076C59.8998 49.5502 57.7348 49.8656 55.6911 49.2889C54.4736 48.9426 53.2968 48.4386 52.1852 47.7874C51.7737 48.6496 51.499 49.5839 51.373 50.5495C51.2969 51.0418 51.2527 51.5394 51.2407 52.0387C53.3428 53.5442 57.536 55.3597 61.0272 54.6254C61.0272 54.6254 64.0261 59.5457 65.6173 62.2221C65.6173 62.2221 69.2556 61.8957 72.3573 57.6363C72.3646 57.6323 65.485 48.1016 64.129 47.4325Z" fill="#4E62D4"/>
<path d="M63.0005 48.0975C63.0005 48.0975 69.0018 48.734 77.7777 48.783C77.7777 48.783 78.6964 51.3982 78.2995 52.8996C78.2995 52.8996 69.847 54.9395 66.1242 52.6507" fill="#4E62D4"/>
<path d="M59.965 47.2203C59.965 47.2203 60.5457 50.1456 62.5375 50.2925C64.5294 50.4394 65.1468 46.8817 63.4489 45.0866C61.7511 43.2914 59.7041 44.548 59.965 47.2203Z" fill="#FFC285"/>
<path d="M65.2788 47.9506C65.1807 48.0558 65.0601 48.1316 64.9283 48.1709C64.7965 48.2102 64.6579 48.2116 64.5255 48.175C64.1947 48.0852 64.033 47.7466 63.864 47.4488C63.7656 47.248 63.6216 47.0794 63.4461 46.9599C63.2707 46.8403 63.0701 46.7739 62.8644 46.7674C62.3499 46.7389 61.8501 46.9755 61.3356 46.8653L61.1775 46.8205C61.2454 46.8347 61.3143 46.8416 61.3833 46.8409C62.1183 46.8409 62.9599 46.3839 63.2907 46.3554C63.6214 46.3268 63.8272 47.6976 64.5365 47.8731C65.2458 48.0485 64.6394 44.3154 63.5773 43.9074C62.5152 43.4994 59.9648 43.9074 59.8398 45.8739C59.9306 45.9788 60.0263 46.0782 60.1265 46.1718C60.3506 46.5261 60.6675 46.7954 61.0342 46.9429C61.6075 47.1713 62.1367 46.9429 62.7247 46.9429C62.9053 46.9243 63.087 46.9591 63.2516 47.0436C63.4162 47.1282 63.5577 47.2595 63.6618 47.4243C63.8006 47.7197 63.9861 47.9851 64.2094 48.2076C64.3919 48.3383 64.609 48.3957 64.8249 48.3705C65.0409 48.3453 65.2425 48.2389 65.3964 48.0689C65.4699 47.9873 65.3523 47.8772 65.2788 47.9506Z" fill="#EE6300"/>
<path d="M26.3462 40.6803L34.1519 44.8581L38.1907 36.3148L45.5334 40.5865L53.7102 35.2051" fill="#FF8B08"/>
<path d="M26.3462 40.6803L34.1519 44.8581L38.1907 36.3148L45.5334 40.5865L53.7102 35.2051" stroke="#2E3192" stroke-width="1.015" stroke-miterlimit="10"/>
<path d="M34.1518 44.858L29.8447 55.5229" stroke="#2E3192" stroke-width="1.015" stroke-miterlimit="10"/>
<path d="M45.5332 40.5865L47.9734 30.1256" stroke="#2E3192" stroke-width="1.015" stroke-miterlimit="10"/>
<path d="M42.0455 48.9951L38.1904 36.3147L32.6265 34.4094" stroke="#2E3192" stroke-width="1.015" stroke-miterlimit="10"/>
<path d="M26.5262 41.9981C26.9179 41.9981 27.2354 41.4739 27.2354 40.8272C27.2354 40.1805 26.9179 39.6562 26.5262 39.6562C26.1344 39.6562 25.8169 40.1805 25.8169 40.8272C25.8169 41.4739 26.1344 41.9981 26.5262 41.9981Z" fill="#0D517F"/>
<path d="M29.8445 56.6939C30.2363 56.6939 30.5538 56.1697 30.5538 55.523C30.5538 54.8763 30.2363 54.3521 29.8445 54.3521C29.4528 54.3521 29.1353 54.8763 29.1353 55.523C29.1353 56.1697 29.4528 56.6939 29.8445 56.6939Z" fill="#0D517F"/>
<path d="M32.6268 35.5804C33.0185 35.5804 33.336 35.0561 33.336 34.4095C33.336 33.7628 33.0185 33.2385 32.6268 33.2385C32.235 33.2385 31.9175 33.7628 31.9175 34.4095C31.9175 35.0561 32.235 35.5804 32.6268 35.5804Z" fill="#0D517F"/>
<path d="M42.0457 50.1661C42.4374 50.1661 42.755 49.6418 42.755 48.9951C42.755 48.3485 42.4374 47.8242 42.0457 47.8242C41.654 47.8242 41.3364 48.3485 41.3364 48.9951C41.3364 49.6418 41.654 50.1661 42.0457 50.1661Z" fill="#0D517F"/>
<path d="M47.9734 31.2965C48.3652 31.2965 48.6827 30.7722 48.6827 30.1255C48.6827 29.4788 48.3652 28.9546 47.9734 28.9546C47.5817 28.9546 47.2642 29.4788 47.2642 30.1255C47.2642 30.7722 47.5817 31.2965 47.9734 31.2965Z" fill="#0D517F"/>
<path d="M53.7063 36.3759C54.0981 36.3759 54.4156 35.8517 54.4156 35.205C54.4156 34.5583 54.0981 34.0341 53.7063 34.0341C53.3146 34.0341 52.9971 34.5583 52.9971 35.205C52.9971 35.8517 53.3146 36.3759 53.7063 36.3759Z" fill="#0D517F"/>
<path d="M38.1904 36.3148L42.0455 31.2965" stroke="#2E3192" stroke-width="1.015" stroke-miterlimit="10"/>
<path d="M42.0457 32.4675C42.4374 32.4675 42.755 31.9432 42.755 31.2965C42.755 30.6499 42.4374 30.1256 42.0457 30.1256C41.654 30.1256 41.3364 30.6499 41.3364 31.2965C41.3364 31.9432 41.654 32.4675 42.0457 32.4675Z" fill="#0D517F"/>
<path d="M38.1906 37.9916C38.7589 37.9916 39.2196 37.2409 39.2196 36.3148C39.2196 35.3887 38.7589 34.6379 38.1906 34.6379C37.6223 34.6379 37.1616 35.3887 37.1616 36.3148C37.1616 37.2409 37.6223 37.9916 38.1906 37.9916Z" fill="#0D517F"/>
<path d="M34.1516 46.535C34.7199 46.535 35.1806 45.7842 35.1806 44.8581C35.1806 43.932 34.7199 43.1813 34.1516 43.1813C33.5833 43.1813 33.1226 43.932 33.1226 44.8581C33.1226 45.7842 33.5833 46.535 34.1516 46.535Z" fill="#0D517F"/>
<path d="M45.5334 41.7084C46.1017 41.7084 46.5624 40.9577 46.5624 40.0316C46.5624 39.1055 46.1017 38.3547 45.5334 38.3547C44.9651 38.3547 44.5044 39.1055 44.5044 40.0316C44.5044 40.9577 44.9651 41.7084 45.5334 41.7084Z" fill="#0D517F"/>
<path d="M120.963 61.5857C121.308 61.5857 121.587 61.2313 121.587 60.7942C121.587 60.3571 121.308 60.0027 120.963 60.0027C120.618 60.0027 120.338 60.3571 120.338 60.7942C120.338 61.2313 120.618 61.5857 120.963 61.5857Z" fill="#0D517F"/>
<path d="M85.8628 45.2334V6.01331L128.783 34.0749V73.7886L85.8628 45.2334Z" fill="#FF8B08"/>
<path d="M91.3569 16.0867V24.9197L105.359 34.4014V46.074" fill="#FF8B08"/>
<path d="M91.3569 16.0867V24.9197L105.359 34.4014V46.074" stroke="#2E3192" stroke-width="1.015" stroke-miterlimit="10"/>
<path d="M91.2834 16.7272C91.6285 16.7272 91.9082 16.3728 91.9082 15.9357C91.9082 15.4985 91.6285 15.1442 91.2834 15.1442C90.9384 15.1442 90.6587 15.4985 90.6587 15.9357C90.6587 16.3728 90.9384 16.7272 91.2834 16.7272Z" fill="#0D517F"/>
<path d="M105.359 46.8653C105.704 46.8653 105.983 46.511 105.983 46.0739C105.983 45.6367 105.704 45.2823 105.359 45.2823C105.014 45.2823 104.734 45.6367 104.734 46.0739C104.734 46.511 105.014 46.8653 105.359 46.8653Z" fill="#0D517F"/>
<path d="M98.3579 29.6604V33.9321L117.078 46.0738V36.9716" stroke="#2E3192" stroke-width="1.015" stroke-miterlimit="10"/>
<path d="M113.33 34.9562V55.8371L120.963 60.8309" stroke="#2E3192" stroke-width="1.015" stroke-miterlimit="10"/>
<path d="M113.197 51.3492L120.963 56.1186" stroke="#2E3192" stroke-width="1.015" stroke-miterlimit="10"/>
<path d="M113.33 35.7435C113.675 35.7435 113.955 35.3892 113.955 34.952C113.955 34.5149 113.675 34.1605 113.33 34.1605C112.985 34.1605 112.705 34.5149 112.705 34.952C112.705 35.3892 112.985 35.7435 113.33 35.7435Z" fill="#0D517F"/>
<path d="M117.078 37.653C117.423 37.653 117.703 37.2986 117.703 36.8614C117.703 36.4243 117.423 36.0699 117.078 36.0699C116.733 36.0699 116.454 36.4243 116.454 36.8614C116.454 37.2986 116.733 37.653 117.078 37.653Z" fill="#0D517F"/>
<path d="M120.963 56.6898C121.308 56.6898 121.587 56.3354 121.587 55.8983C121.587 55.4612 121.308 55.1068 120.963 55.1068C120.618 55.1068 120.338 55.4612 120.338 55.8983C120.338 56.3354 120.618 56.6898 120.963 56.6898Z" fill="#0D517F"/>
<path d="M95.4399 27.6858V42.0756L90.6587 39.236" stroke="#2E3192" stroke-width="1.015" stroke-miterlimit="10"/>
<path d="M90.4197 40.0438C90.7647 40.0438 91.0444 39.6895 91.0444 39.2523C91.0444 38.8152 90.7647 38.4608 90.4197 38.4608C90.0746 38.4608 89.7949 38.8152 89.7949 39.2523C89.7949 39.6895 90.0746 40.0438 90.4197 40.0438Z" fill="#0D517F"/>
</svg>
