<svg width="36" height="36" viewBox="0 0 36 36" fill="white" xmlns="http://www.w3.org/2000/svg">
<path d="M3.85714 0H32.1429C34.2723 0 36 1.72768 36 3.85714V32.1429C36 34.2723 34.2723 36 32.1429 36H3.85714C1.72768 36 0 34.2723 0 32.1429V3.85714C0 1.72768 1.72768 0 3.85714 0ZM30.7045 15.5009L27.1205 6.14732C27.0482 5.9625 26.9116 5.80179 26.7509 5.69732C26.6223 5.61696 26.4777 5.56875 26.333 5.55268C26.1884 5.53661 26.0357 5.56071 25.8991 5.60893C25.7625 5.66518 25.6339 5.74554 25.5375 5.85804C25.4411 5.97054 25.3688 6.09911 25.3286 6.24375L22.9018 13.6527H13.0259L10.6795 6.24375C10.6393 6.09911 10.5589 5.97054 10.4625 5.85804C10.2937 5.75357 10.2375 5.66518 10.1009 5.61696C9.89196 5.56071 9.81161 5.47232 9.66696 5.55268C9.52232 5.56875 9.37768 5.61696 9.24911 5.69732C9.08839 5.80179 8.95982 5.9625 8.8875 6.14732L5.29875 15.5009L5.26098 15.5973C4.74509 16.9473 4.68161 18.4259 5.08018 19.8161C5.47875 21.2062 6.31768 22.4277 7.4708 23.2955L7.48446 23.3036L7.515 23.3277L12.9696 27.4179L17.325 30.7045C17.4455 30.7848 17.7509 30.9295 17.992 30.9295C18.233 30.9295 18.4741 30.7848 18.667 30.7045L23.0143 27.4179L28.5107 23.3036L28.5268 23.2955C29.6839 22.4196 30.5196 21.1982 30.9214 19.8161C31.3152 18.4259 31.1866 16.9473 30.7366 15.5973L30.7045 15.5009Z" fill="white"/>
</svg>
