<svg width="394" height="79" viewBox="0 0 394 79" fill="none" xmlns="http://www.w3.org/2000/svg">
<g clip-path="url(#clip0_19_32)">
<rect width="394" height="79" fill="#1E1E1E"/>
<path d="M54.527 38.1026C31.0319 28.7198 4.31886 18.055 0 16.3419V0H394L387.806 16.6447C382.945 29.7058 367.519 35.275 355.436 28.3307L348.424 24.3007C340.925 19.9911 331.345 22.9144 327.53 30.6764C323.241 39.4021 311.902 41.7879 304.46 35.5302L301.944 33.414C292.32 25.3212 277.558 29.6821 273.877 41.7052L269.907 54.6709C265.284 69.772 245.094 72.5289 236.591 59.2202L217.944 30.0334C210.393 18.2139 193.556 17.0803 184.489 27.7808C177.774 35.7046 166.25 37.4735 157.468 31.9283L146.089 24.7435C132.817 16.3628 115.662 17.4572 103.562 27.4565L99.1317 31.1176C86.6582 41.4256 69.5545 44.1039 54.527 38.1026Z" fill="white"/>
</g>
<defs>
<clipPath id="clip0_19_32">
<rect width="394" height="79" fill="white"/>
</clipPath>
</defs>
</svg>
