<svg width="147" height="123" viewBox="0 0 147 123" fill="none" xmlns="http://www.w3.org/2000/svg">
<g clip-path="url(#clip0_109_749)">
<path opacity="0.18" d="M135.323 103.694C134.953 107.63 133.568 111.364 131.334 114.447C124.708 123.374 112.629 123.902 102.315 122.274C91.8065 120.627 81.4017 117.485 70.7929 117.751C56.3564 118.129 42.0786 124.801 27.8332 122.162C21.3986 120.987 14.7147 117.248 12.3993 110.475C11.2788 107.196 11.3177 103.896 11.9815 100.584C13.2963 94.0413 17.0528 87.455 19.1285 80.9155C24.7665 63.1304 17.9822 41.8077 26.4893 25.4895C34.135 10.8178 54.5915 1.86949 69.2353 0.140237C85.3492 -1.76158 98.7041 16.0271 105.061 30.4435C111.24 44.4645 114.776 60.0242 122.985 72.697C125.961 77.2988 129.517 81.4548 132.033 86.3837C134.688 91.5642 135.955 97.8449 135.323 103.694Z" fill="#FF8B08"/>
<path opacity="0.18" d="M135.323 103.694C134.953 107.63 133.568 111.364 131.334 114.447C124.708 123.374 112.629 123.902 102.315 122.274C91.8065 120.627 81.4017 117.485 70.7929 117.751C56.3564 118.129 42.0786 124.801 27.8332 122.162C21.3986 120.987 14.7147 117.248 12.3993 110.475C11.2788 107.196 11.3177 103.896 11.9815 100.584C12.8816 100.83 13.7691 101.129 14.6402 101.48C23.3513 104.762 32.3539 105.391 41.4957 105.38C72.7845 105.344 104.196 101.296 135.323 103.694Z" fill="#FF8B08"/>
<path d="M49.8538 64.989C48.3447 64.6834 46.9846 63.8098 45.644 62.9685C45.5032 62.8528 45.3297 62.7967 45.155 62.8104C45.0273 62.8595 44.915 62.948 44.8311 63.0656C44.0235 64.0177 43.5472 65.2576 43.4872 66.5637C43.4726 66.708 43.4915 66.8541 43.5423 66.9879C43.6103 67.1112 43.7049 67.2138 43.8175 67.2863C45.7191 68.7312 47.9172 69.6225 50.21 69.8784C50.7608 69.9732 51.3238 69.9252 51.8551 69.7382C52.5028 69.4649 52.9691 68.8646 53.416 68.3001C53.9515 67.6612 54.4138 66.9512 54.7923 66.1862C55.6569 64.27 55.1161 64.1082 53.6394 64.6475C52.4232 65.1116 51.1215 65.2291 49.8538 64.989V64.989Z" fill="#FF8B08"/>
<path d="M49.8538 64.989C48.3447 64.6834 46.9846 63.8098 45.644 62.9685C45.5032 62.8528 45.3297 62.7967 45.155 62.8104C45.0273 62.8595 44.915 62.948 44.8311 63.0656C44.0235 64.0177 43.5472 65.2576 43.4872 66.5637C43.4726 66.708 43.4915 66.8541 43.5423 66.9879C43.6103 67.1112 43.7049 67.2138 43.8175 67.2863C45.7191 68.7312 47.9172 69.6225 50.21 69.8784C50.7608 69.9732 51.3238 69.9252 51.8551 69.7382C52.5028 69.4649 52.9691 68.8646 53.416 68.3001C53.9515 67.6612 54.4138 66.9512 54.7923 66.1862C55.6569 64.27 55.1161 64.1082 53.6394 64.6475C52.4232 65.1116 51.1215 65.2291 49.8538 64.989V64.989Z" fill="url(#paint0_linear_109_749)"/>
<path d="M45.3879 62.7456C45.566 63.0332 45.4559 63.4215 45.3394 63.7486L44.6917 65.5858C44.4942 66.1502 44.2351 66.7757 43.7202 66.9663C43.6795 66.9862 43.6345 66.9925 43.5907 66.9843C43.4935 66.9555 43.4611 66.8189 43.4547 66.7038C43.4027 65.908 43.5572 65.1123 43.8998 64.4108C44.2424 63.7094 44.7588 63.1315 45.3879 62.7456Z" fill="url(#paint1_linear_109_749)"/>
<path d="M59.3516 92.3263L62.5348 106.912L69.1249 96.1803L84.2543 107.951L78.7686 78.0393L59.3516 92.3263Z" fill="#FF8B08"/>
<path d="M59.3516 92.3263L62.5348 106.912L69.1249 96.1803L84.2543 107.951L78.7686 78.0393L59.3516 92.3263Z" fill="url(#paint2_linear_109_749)"/>
<path d="M48.8626 77.8921C48.8626 77.8921 47.3373 79.8622 47.8911 83.5472C48.4449 87.2322 52.7065 109.939 52.7065 109.939L55.0187 110.46L56.5828 94.9545C56.5828 94.9545 62.3049 88.2712 69.0277 93.4518C75.7505 98.6324 78.8981 111.197 78.8981 111.197L82.0199 111.255L78.6812 81.1565L48.8626 77.8921Z" fill="#FF8B08"/>
<path d="M48.8626 77.8921C48.8626 77.8921 47.3373 79.8622 47.8911 83.5472C48.4449 87.2322 52.7065 109.939 52.7065 109.939L55.0187 110.46L56.5828 94.9545C56.5828 94.9545 62.3049 88.2712 69.0277 93.4518C75.7505 98.6324 78.8981 111.197 78.8981 111.197L82.0199 111.255L78.6812 81.1565L48.8626 77.8921Z" fill="url(#paint3_linear_109_749)"/>
<path d="M61.8192 57.5113C61.8192 57.5113 47.5187 69.1128 47.794 80.0671C47.794 80.0671 52.3568 87.3508 64.6624 85.4921C76.9681 83.6335 78.6812 81.1564 78.6812 81.1564C78.6812 81.1564 80.7764 59.4419 78.8593 57.5652C76.9422 55.6886 64.4681 55.1026 61.8192 57.5113Z" fill="#FF8B08"/>
<path d="M61.8192 57.5112C61.8192 57.5112 47.5187 69.1127 47.794 80.0671C47.794 80.0671 52.3568 87.3508 64.6624 85.4921C76.9681 83.6334 80.7634 88.947 80.7634 88.947C80.7634 88.947 77.0653 75.1345 78.8593 57.5652C79.1443 54.743 64.4681 55.1025 61.8192 57.5112Z" fill="url(#paint4_linear_109_749)"/>
<path d="M77.0783 55.9868L75.6534 62.2999L73.0627 62.1093L73.542 63.648C73.542 63.648 60.0285 68.2534 59.6172 69.0407L67.9591 60.3513L75.1223 55.6201L77.0783 55.9868Z" fill="url(#paint5_linear_109_749)"/>
<path d="M65.5822 55.6489L60.9093 58.7911L61.4404 60.3909L59.52 61.1099L59.5459 71.0037C59.5459 71.0037 59.7888 66.1035 61.0906 64.4066C62.3924 62.7098 67.8037 56.4974 67.8037 56.4974L65.5822 55.6489Z" fill="url(#paint6_linear_109_749)"/>
<path d="M67.804 56.4795C67.804 56.4795 59.7827 62.7961 59.6143 69.0301C59.6143 69.0301 66.5443 61.2754 73.3998 59.068C73.9309 58.8954 74.8215 57.0907 74.8215 57.0907L67.804 56.4795Z" fill="white"/>
<path d="M47.655 112.484C47.4219 112.66 47.1693 112.894 47.179 113.203C47.1956 113.362 47.2555 113.511 47.3506 113.631C48.0307 114.595 49.3163 114.656 50.4108 114.505C51.4678 114.356 52.5091 114.092 53.5196 113.717C53.844 113.56 54.1958 113.485 54.5494 113.498C54.683 113.527 54.8183 113.545 54.9542 113.552C55.0885 113.531 55.2166 113.475 55.3289 113.391C55.4411 113.306 55.5344 113.194 55.6019 113.063C56.1621 112.136 55.8221 110.759 55.0028 110.104C53.8726 109.198 52.8202 109.691 51.7321 110.266C50.3558 111.003 48.9504 111.514 47.655 112.484Z" fill="#FF8B08"/>
<path d="M86.1488 113.879C86.3593 114.084 86.5828 114.354 86.5342 114.663C86.4989 114.817 86.4221 114.955 86.314 115.058C85.5238 115.914 84.2415 115.777 83.176 115.468C82.1463 115.165 81.1461 114.75 80.1903 114.228C79.8852 114.029 79.5449 113.907 79.1929 113.868C79.0582 113.881 78.9228 113.881 78.7881 113.868C78.656 113.829 78.5339 113.756 78.4311 113.655C78.3284 113.555 78.2478 113.43 78.1955 113.289C77.7551 112.286 78.257 110.971 79.1476 110.446C80.3781 109.727 81.3593 110.359 82.3697 111.089C83.6618 111.999 84.9798 112.718 86.1488 113.879Z" fill="#FF8B08"/>
<path d="M47.655 112.484C47.4219 112.66 47.1693 112.894 47.179 113.203C47.1956 113.362 47.2555 113.511 47.3506 113.631C48.0307 114.595 49.3163 114.656 50.4108 114.505C51.4678 114.356 52.5091 114.092 53.5196 113.717C53.844 113.56 54.1958 113.485 54.5494 113.498C54.683 113.527 54.8183 113.545 54.9542 113.552C55.0885 113.531 55.2166 113.475 55.3289 113.391C55.4411 113.306 55.5344 113.194 55.6019 113.063C56.1621 112.136 55.8221 110.759 55.0028 110.104C53.8726 109.198 52.8202 109.691 51.7321 110.266C50.3558 111.003 48.9504 111.514 47.655 112.484Z" fill="url(#paint7_linear_109_749)"/>
<path d="M86.1488 113.879C86.3593 114.084 86.5828 114.354 86.5342 114.663C86.4989 114.817 86.4221 114.955 86.314 115.058C85.5238 115.914 84.2415 115.777 83.176 115.468C82.1463 115.165 81.1461 114.75 80.1903 114.228C79.8852 114.029 79.5449 113.907 79.1929 113.868C79.0582 113.881 78.9228 113.881 78.7881 113.868C78.656 113.829 78.5339 113.756 78.4311 113.655C78.3284 113.555 78.2478 113.43 78.1955 113.289C77.7551 112.286 78.257 110.971 79.1476 110.446C80.3781 109.727 81.3593 110.359 82.3697 111.089C83.6618 111.999 84.9798 112.718 86.1488 113.879Z" fill="url(#paint8_linear_109_749)"/>
<path d="M73.1695 58.766C73.8439 58.6134 74.4852 58.3167 75.0575 57.8924C76.3528 56.8642 76.9066 55.0414 77.2369 53.3122C77.3859 52.5105 77.5089 51.7052 77.5964 50.8927C77.6741 50.1736 77.6805 49.3288 77.1689 48.8902C76.6572 48.4516 72.7648 51.2881 72.2078 51.6764C70.9124 52.5824 69.5977 53.5602 68.7395 55.0127C66.4889 58.8343 70.4882 59.467 73.1695 58.766Z" fill="#F6C1B1"/>
<path d="M73.1695 58.766C73.8439 58.6134 74.4852 58.3167 75.0575 57.8924C76.3528 56.8642 76.9066 55.0414 77.2369 53.3122C77.3859 52.5105 77.5089 51.7052 77.5964 50.8927C77.6741 50.1736 77.6805 49.3288 77.1689 48.8902C76.6572 48.4516 72.7648 51.2881 72.2078 51.6764C70.9124 52.5824 69.5977 53.5602 68.7395 55.0127C66.4889 58.8343 70.4882 59.467 73.1695 58.766Z" fill="url(#paint9_linear_109_749)"/>
<path d="M65.4202 44.105C65.0964 45.9745 64.358 47.7361 64.018 49.6056C63.678 51.475 63.7946 53.6069 64.9604 54.9983C65.6922 55.8791 66.735 56.35 67.7712 56.67C69.0018 57.0511 70.3263 57.2488 71.5471 56.8426C72.0404 56.6607 72.5183 56.4309 72.9752 56.1559C74.2932 55.4153 75.6695 54.6208 76.4791 53.2474C76.875 52.5169 77.1594 51.7189 77.3211 50.8854C77.6888 49.383 77.8106 47.8195 77.6805 46.2693C77.6705 46.0532 77.615 45.8426 77.5186 45.6545C77.4015 45.4908 77.2548 45.3561 77.0879 45.2591L74.1734 43.2566C73.5623 42.8075 72.9112 42.4292 72.2304 42.1277C71.5146 41.8705 70.7704 41.7229 70.0186 41.6891C68.8496 41.6028 67.4992 41.5129 66.3496 41.8113C65.2 42.1097 65.5983 43.0948 65.4202 44.105Z" fill="#F6C1B1"/>
<path d="M76.1038 52.1725L76.813 50.9717C76.841 50.9119 76.8837 50.8621 76.936 50.8279C77.0915 50.738 77.2599 50.943 77.3117 51.1299C77.4391 51.7126 77.3724 52.3268 77.1239 52.8592C76.9198 53.3697 76.5248 53.9161 76.0261 53.8334C76.3238 54.3375 76.5214 54.9062 76.6057 55.5016C78.2929 53.4092 78.6685 50.4001 78.6945 47.5923C78.6945 47.5168 78.9665 46.956 78.9211 46.8984C78.8873 46.8595 78.8449 46.831 78.7981 46.8157C77.9755 46.4814 76.7871 46.7259 75.9063 46.7223C75.0254 46.7187 74.9866 46.9811 75.155 47.9806C75.3233 48.98 76.6673 51.2162 76.1038 52.1725Z" fill="#E5E1E2"/>
<path d="M76.1038 52.1725L76.813 50.9717C76.841 50.9119 76.8837 50.8621 76.936 50.8279C77.0915 50.738 77.2599 50.943 77.3117 51.1299C77.4391 51.7126 77.3724 52.3268 77.1239 52.8592C76.9198 53.3697 76.5248 53.9161 76.0261 53.8334C76.3238 54.3375 76.5214 54.9062 76.6057 55.5016C78.2929 53.4092 78.6685 50.4001 78.6945 47.5923C78.6945 47.5168 78.9665 46.956 78.9211 46.8984C78.8873 46.8595 78.8449 46.831 78.7981 46.8157C77.9755 46.4814 76.7871 46.7259 75.9063 46.7223C75.0254 46.7187 74.9866 46.9811 75.155 47.9806C75.3233 48.98 76.6673 51.2162 76.1038 52.1725Z" fill="url(#paint10_linear_109_749)"/>
<path d="M82.9202 46.6791C84.0925 46.4993 85.3457 46.1901 86.1261 45.2051C86.4111 44.8456 86.6086 44.2811 86.3366 43.9072C86.2276 43.7928 86.0987 43.7042 85.9579 43.6467C85.8171 43.5892 85.6672 43.5641 85.5173 43.5729C82.7583 43.3248 79.983 43.2529 77.2401 42.8539C73.1303 42.247 69.1267 40.9537 65.3652 39.0179C64.2253 38.4391 62.1463 37.5259 61.6702 39.5104C61.2169 41.4014 63.4707 42.3865 64.6333 43.0552C68.1865 45.1347 72.0745 46.4151 76.0743 46.8229C78.3538 47.0627 80.6505 47.0144 82.9202 46.6791V46.6791Z" fill="#FF8B08"/>
<path d="M82.9202 46.6791C84.0925 46.4993 85.3457 46.1901 86.1261 45.2051C86.4111 44.8456 86.6086 44.2811 86.3366 43.9072C86.2276 43.7928 86.0987 43.7042 85.9579 43.6467C85.8171 43.5892 85.6672 43.5641 85.5173 43.5729C82.7583 43.3248 79.983 43.2529 77.2401 42.8539C73.1303 42.247 69.1267 40.9537 65.3652 39.0179C64.2253 38.4391 62.1463 37.5259 61.6702 39.5104C61.2169 41.4014 63.4707 42.3865 64.6333 43.0552C68.1865 45.1347 72.0745 46.4151 76.0743 46.8229C78.3538 47.0627 80.6505 47.0144 82.9202 46.6791V46.6791Z" fill="url(#paint11_linear_109_749)"/>
<path d="M66.8711 40.3554L67.5576 22.1209C67.5576 22.1209 74.9119 19.4317 82.3665 23.6884C89.8212 27.945 88.0012 28.7215 88.0012 28.7215L78.8983 43.102C78.8983 43.102 68.6263 42.7389 66.8711 40.3554Z" fill="#FF8B08"/>
<path d="M86.3367 43.9074C86.2277 43.7929 86.0988 43.7043 85.958 43.6468C85.8171 43.5893 85.6673 43.5642 85.5174 43.573C82.7584 43.325 79.9831 43.2531 77.2402 42.854" fill="url(#paint12_linear_109_749)"/>
<path d="M66.8711 40.3554L67.5576 22.1209C67.5576 22.1209 74.9119 19.4317 82.3665 23.6884C89.8212 27.945 88.0012 28.7215 88.0012 28.7215L78.8983 43.102C78.8983 43.102 68.6263 42.7389 66.8711 40.3554Z" fill="url(#paint13_linear_109_749)"/>
<path d="M62.9235 52.0645C62.609 52.6079 62.2033 53.079 61.7285 53.4522C61.2266 53.7794 60.5012 53.7901 60.1353 53.2904C60.1418 53.5918 60.2229 53.8854 60.3697 54.1391C60.5165 54.3927 60.7233 54.5966 60.9675 54.7285C61.458 54.9847 61.9963 55.1079 62.5381 55.088C63.4216 55.1414 64.3052 54.9833 65.1288 54.6242C65.5368 54.443 65.9084 54.1736 66.2219 53.8317C66.5354 53.4898 66.7847 53.0822 66.9552 52.6325C66.8135 53.3791 66.8617 54.1548 67.0944 54.8727C67.327 55.5906 67.735 56.2226 68.2726 56.6978C68.8103 57.1731 69.4564 57.473 70.1388 57.5639C70.8211 57.6548 71.5128 57.5332 72.1365 57.2127C71.7461 57.2542 71.3543 57.1492 71.0239 56.9146C70.6934 56.6801 70.4433 56.3293 70.3133 55.9185C70.0478 55.0089 70.4234 53.9987 70.2065 53.0783C69.8826 51.723 68.0692 50.7343 66.9681 50.2705C65.3587 49.5982 63.8723 50.7019 62.9235 52.0645Z" fill="#E5E1E2"/>
<path d="M62.9235 52.0645C62.609 52.6079 62.2033 53.079 61.7285 53.4522C61.2266 53.7794 60.5012 53.7901 60.1353 53.2904C60.1418 53.5918 60.2229 53.8854 60.3697 54.1391C60.5165 54.3927 60.7233 54.5966 60.9675 54.7285C61.458 54.9847 61.9963 55.1079 62.5381 55.088C63.4216 55.1414 64.3052 54.9833 65.1288 54.6242C65.5368 54.443 65.9084 54.1736 66.2219 53.8317C66.5354 53.4898 66.7847 53.0822 66.9552 52.6325C66.8135 53.3791 66.8617 54.1548 67.0944 54.8727C67.327 55.5906 67.735 56.2226 68.2726 56.6978C68.8103 57.1731 69.4564 57.473 70.1388 57.5639C70.8211 57.6548 71.5128 57.5332 72.1365 57.2127C71.7461 57.2542 71.3543 57.1492 71.0239 56.9146C70.6934 56.6801 70.4433 56.3293 70.3133 55.9185C70.0478 55.0089 70.4234 53.9987 70.2065 53.0783C69.8826 51.723 68.0692 50.7343 66.9681 50.2705C65.3587 49.5982 63.8723 50.7019 62.9235 52.0645Z" fill="url(#paint14_linear_109_749)"/>
<path d="M78.8594 57.5652C78.8594 57.5652 81.7124 60.3226 82.8458 65.7297C83.9792 71.1368 84.7143 79.6393 89.5362 80.9227C94.3581 82.2062 93.5938 82.7203 93.5938 82.7203L91.8646 87.2178C91.8646 87.2178 85.0284 86.4736 83.5161 83.957C82.0038 81.4404 77.8944 71.3741 76.2266 66.6357C75.5045 64.6044 73.9242 59.8697 78.8594 57.5652Z" fill="#FF8B08"/>
<path d="M78.8594 57.5652C78.8594 57.5652 81.7124 60.3226 82.8458 65.7297C83.9792 71.1368 84.7143 79.6393 89.5362 80.9227C94.3581 82.2062 93.5938 82.7203 93.5938 82.7203L91.8646 87.2178C91.8646 87.2178 85.0284 86.4736 83.5161 83.957C82.0038 81.4404 77.8944 71.3741 76.2266 66.6357C75.5045 64.6044 73.9242 59.8697 78.8594 57.5652Z" fill="url(#paint15_linear_109_749)"/>
<path d="M92.1463 82.6555C91.7674 82.8993 91.4226 83.2033 91.123 83.5579C90.8894 83.7918 90.6914 84.0662 90.5369 84.3704C90.3001 84.9688 90.2769 85.6448 90.4721 86.2614C90.5368 86.5863 90.6947 86.879 90.9222 87.0955C91.1139 87.2379 91.3392 87.3142 91.5699 87.3148C92.5414 87.3615 93.3931 86.5958 93.9177 85.697C94.2566 85.1664 94.4316 84.5281 94.4164 83.8779C94.316 82.5513 93.1308 82.0839 92.1463 82.6555Z" fill="#FF8B08"/>
<path d="M92.1463 82.6555C91.7674 82.8993 91.4226 83.2033 91.123 83.5579C90.8894 83.7918 90.6914 84.0662 90.5369 84.3704C90.3001 84.9688 90.2769 85.6448 90.4721 86.2614C90.5368 86.5863 90.6947 86.879 90.9222 87.0955C91.1139 87.2379 91.3392 87.3142 91.5699 87.3148C92.5414 87.3615 93.3931 86.5958 93.9177 85.697C94.2566 85.1664 94.4316 84.5281 94.4164 83.8779C94.316 82.5513 93.1308 82.0839 92.1463 82.6555Z" fill="url(#paint16_linear_109_749)"/>
<path d="M95.1808 82.8784C96.3077 82.562 97.4217 82.1594 98.581 82.0659C99.7403 81.9724 100.984 82.278 101.819 83.1876C102.239 83.6666 102.521 84.2732 102.63 84.9305C102.739 85.5878 102.67 86.2662 102.431 86.8798C102.328 87.1681 102.153 87.4176 101.926 87.5988C101.579 87.7904 101.187 87.8606 100.803 87.8001L98.3964 87.6851C98.2741 87.6931 98.1523 87.6606 98.0467 87.5916C97.82 87.4155 97.8945 87.0308 97.8427 86.7252C97.8005 86.5231 97.6941 86.3446 97.5431 86.2224C97.392 86.1003 97.2064 86.0426 97.0201 86.0601C96.4275 86.1392 96.1555 86.9049 95.7248 87.3687C95.1257 88.0051 94.1574 88.0374 93.39 87.6887C92.6417 87.2836 91.9701 86.7235 91.4113 86.0385C91.0292 85.6251 90.6147 85.1218 90.673 84.5286C90.7133 84.2625 90.8186 84.0138 90.9774 83.8095C91.5571 82.9863 91.8874 83.2415 92.7196 83.2667C93.5522 83.264 94.3805 83.1333 95.1808 82.8784V82.8784Z" fill="#F6C1B1"/>
<path d="M96.4049 86.0348L94.2417 88.2171L97.7553 92.1681L99.6368 92.0459L101.674 89.4214L102.221 87.4657L98.8952 85.571L96.4049 86.0348Z" fill="#FF8B08"/>
<path d="M102.221 87.4659L101.67 89.4216L99.64 92.046L99.4619 92.0604L97.7553 92.1647L94.2417 88.2172L96.4049 86.035L98.8952 85.5676L99.2061 85.7474L102.221 87.4659Z" fill="url(#paint17_linear_109_749)"/>
<path d="M102.221 87.4658L101.67 89.4215L99.64 92.046L99.4619 92.0604L95.9678 88.1273L98.131 85.945L99.2061 85.7473L102.221 87.4658Z" fill="url(#paint18_linear_109_749)"/>
<path d="M97.7549 92.1681L96.9453 116.536L97.3339 116.565L99.6364 92.0459L97.7549 92.1681Z" fill="#FF8B08"/>
<path d="M67.1009 56.4183C66.9536 56.1324 66.7122 55.9211 66.4274 55.8287C66.3074 55.8187 66.1868 55.8355 66.0728 55.8781C65.9588 55.9208 65.8536 55.9883 65.7635 56.0768C65.5506 56.2614 65.3746 56.4932 65.2469 56.7576C65.1192 57.0219 65.0426 57.3129 65.0219 57.6119C65.0359 57.8739 64.9914 58.1357 64.8924 58.3741C64.7386 58.5569 64.5492 58.6983 64.3386 58.7875C64.1411 58.9098 63.95 59.147 64.0148 59.3771C64.0444 59.4871 64.1045 59.584 64.1864 59.6539C64.7046 60.1537 65.4818 60.0782 66.1456 59.8625C66.8095 59.6468 67.4572 59.3088 68.1372 59.3807C68.4571 60.0105 68.8209 60.6115 69.2253 61.1783C69.52 61.5953 69.873 62.0195 70.349 62.0914C70.4126 62.1071 70.4785 62.1081 70.5425 62.0945C70.6066 62.0809 70.6674 62.053 70.7214 62.0123C70.7696 61.9699 70.8084 61.9158 70.8347 61.8542C71.042 61.412 70.8347 60.7073 71.2525 60.5024C71.3578 60.4633 71.4662 60.4356 71.5763 60.4197C71.809 60.3334 72.0131 60.1719 72.1625 59.9559C72.3665 59.7263 72.5234 59.4503 72.6223 59.147C72.6688 58.9949 72.68 58.8322 72.6552 58.6739C72.6303 58.5156 72.57 58.3668 72.4798 58.2411C72.2175 57.9247 71.7739 57.9247 71.3853 57.9534C70.4915 58.011 69.5135 58.2123 68.6197 58.1404C67.9397 58.0937 67.4928 56.9936 67.1009 56.4183Z" fill="#FF8B08"/>
<path d="M42.4218 60.4917C41.311 59.4132 39.7048 59.3197 38.212 59.2765C38.03 59.2594 37.8468 59.2789 37.6712 59.3341C37.5173 59.4029 37.3836 59.5175 37.2848 59.6653C37.1859 59.8131 37.1258 59.9884 37.1109 60.1717C37.0866 60.5415 37.1896 60.9077 37.3991 61.1963C37.5252 61.3408 37.6341 61.5028 37.723 61.6781C37.8622 62.0699 37.6712 62.5625 37.8849 62.9112C37.9917 63.091 38.2087 63.206 38.2281 63.4145C38.2323 63.5367 38.2159 63.6586 38.1796 63.774C38.1432 64.0106 38.1639 64.2536 38.2395 64.4784C38.3152 64.7032 38.4431 64.9018 38.6103 65.0539C38.949 65.3572 39.3551 65.5534 39.7858 65.6219C41.0811 65.8808 42.5125 65.5213 43.7301 66.1181C43.8946 66.2337 44.0916 66.2785 44.2838 66.2439C44.3768 66.189 44.4573 66.1113 44.5191 66.0165C44.5808 65.9218 44.6222 65.8127 44.64 65.6974C44.7825 65.1797 45.0448 64.2989 44.9185 63.7561C44.8117 63.2959 44.449 63.1701 44.1252 62.8069C43.4904 62.0915 43.1213 61.1532 42.4218 60.4917Z" fill="#F6C1B1"/>
<path d="M46.6832 75.6522C47.862 78.2407 48.4967 81.2354 47.9786 84.0755C47.4604 86.9157 45.5855 89.5401 43.0628 90.2951C42.0351 90.5729 40.9693 90.6327 39.9216 90.4713C36.9359 90.0938 34.0052 88.573 32.1172 85.9774C30.2293 83.3817 29.5266 79.6643 30.6405 76.5689C31.4696 74.2824 33.1503 72.5316 34.7824 70.8599L38.9112 66.596C41.6865 63.7523 41.761 66.2617 42.9851 68.8754C44.0926 71.2158 45.5952 73.2938 46.6832 75.6522Z" fill="#FF8B08"/>
<path d="M47.9498 84.0755C47.4122 86.9192 45.5599 89.5365 43.034 90.295C42.006 90.5711 40.9406 90.6308 39.8928 90.4712C39.4977 90.4209 39.1059 90.3526 38.714 90.2627C36.1493 89.6767 33.727 88.2314 32.0884 85.9773C30.2005 83.378 29.4977 79.6678 30.6117 76.5688C31.4407 74.2788 33.1214 72.5315 34.7536 70.8598L38.9116 66.5924C39.3603 66.0692 39.9062 65.6607 40.5113 65.3952C41.8067 64.9782 42.0592 66.898 42.9854 68.8753C44.0832 71.2157 45.5761 73.2901 46.6642 75.6485C47.8494 78.2406 48.4841 81.2353 47.9498 84.0755Z" fill="url(#paint19_linear_109_749)"/>
<path d="M44.1188 85.2835C43.1668 87.7821 41.1104 89.8457 38.714 90.2627C36.1493 89.6767 33.727 88.2315 32.0884 85.9774C30.2005 83.3781 29.4977 79.6679 30.6117 76.5689C31.4407 74.2788 33.1214 72.5316 34.7536 70.8599L38.9116 66.5924C39.3603 66.0693 39.9062 65.6608 40.5113 65.3953C41.4051 65.6973 41.4116 67.4193 41.907 69.3032C42.5741 71.8198 43.6914 74.1961 44.3293 76.7379C45.0418 79.5349 45.1421 82.6087 44.1188 85.2835Z" fill="url(#paint20_linear_109_749)"/>
<path d="M34.8277 51.734C34.8044 51.6766 34.7936 51.6138 34.7963 51.5509C34.799 51.488 34.815 51.4267 34.8431 51.372C34.8712 51.3173 34.9106 51.2708 34.958 51.2362C35.0054 51.2016 35.0596 51.18 35.1159 51.1731C35.8949 50.9005 36.7229 50.8488 37.5245 51.0227C38.326 51.1967 39.0756 51.5907 39.7047 52.169C39.8676 52.3595 40.0732 52.4984 40.3005 52.5716C40.5166 52.591 40.7332 52.5425 40.9255 52.4314C42.0006 51.9497 43.1211 51.4715 44.2804 51.5254C45.1256 51.565 46.1036 52.0863 46.1684 53.0246C46.2493 54.193 44.9637 54.8222 44.3679 55.7785C44.1652 56.156 43.996 56.5546 43.8627 56.9685C43.3478 58.3238 42.5123 59.485 41.6833 60.6355C41.6161 60.7617 41.5252 60.8704 41.4168 60.9542C41.3084 61.0379 41.185 61.0948 41.055 61.1208C40.8482 61.102 40.6537 61.0042 40.5045 60.844C37.8232 58.5791 35.4851 55.5556 34.8277 51.734Z" fill="#FF8B08"/>
<path d="M44.3649 55.7784C44.1632 56.1561 43.9951 56.5546 43.8629 56.9684C43.348 58.3238 42.5125 59.485 41.6835 60.6354C41.6386 60.7592 41.5656 60.8679 41.4717 60.9511C41.3777 61.0342 41.266 61.0889 41.1473 61.1099C41.0286 61.1309 40.9071 61.1174 40.7945 61.0708C40.6819 61.0242 40.5821 60.9461 40.5048 60.844C40.3785 60.7361 40.249 60.6283 40.1259 60.5168C37.7198 58.3957 35.6473 55.6382 34.9219 52.2193C34.8863 52.0611 34.8571 51.8957 34.828 51.7339C34.7931 51.6081 34.8012 51.4725 34.8507 51.3528C34.9179 51.26 35.0115 51.1954 35.1162 51.1695C35.8103 50.9289 36.5438 50.8622 37.2639 50.9741C37.984 51.086 38.6728 51.3737 39.2807 51.8166C39.4264 51.9281 39.5689 52.0431 39.7049 52.1761C39.8679 52.3656 40.0719 52.5054 40.2975 52.5824C40.5148 52.5989 40.7321 52.5492 40.9258 52.4386C41.8296 51.9754 42.7935 51.6733 43.782 51.5434C43.9481 51.5326 44.1146 51.5326 44.2807 51.5434C45.1259 51.5829 46.1039 52.1078 46.1686 53.0461C46.2496 54.193 44.964 54.8113 44.3649 55.7784Z" fill="url(#paint21_linear_109_749)"/>
<path d="M42.7327 54.5164C42.6386 54.9454 42.5833 55.3838 42.5676 55.825C42.4348 57.2846 41.9458 58.6723 41.4633 60.0385C41.3662 60.3117 41.2399 60.6173 40.9905 60.7108C40.787 60.7583 40.5751 60.7292 40.3882 60.6281L40.1259 60.5166C37.7198 58.3955 35.6473 55.6381 34.9219 52.2191C35.7366 52.1184 36.5609 52.2483 37.3182 52.5966C37.5236 52.7289 37.7577 52.7961 37.9951 52.7907C38.2071 52.7352 38.4018 52.6172 38.5585 52.4492C38.7949 52.2371 39.0346 52.0214 39.2807 51.8164C39.4264 51.9279 39.5689 52.0429 39.7049 52.176C39.8679 52.3654 40.0719 52.5053 40.2975 52.5822C40.5148 52.5987 40.7321 52.549 40.9257 52.4384C41.8295 51.9752 42.7934 51.6731 43.782 51.5432C43.9601 52.5355 43.0242 53.481 42.7327 54.5164Z" fill="url(#paint22_linear_109_749)"/>
<path d="M38.1894 78.5823C37.9683 78.4893 37.752 78.3824 37.5418 78.2623C37.3321 78.1412 37.1391 77.9874 36.9686 77.8057C36.7986 77.6275 36.6621 77.4137 36.567 77.1766C36.4638 76.9043 36.4227 76.6079 36.4472 76.3137C36.4619 76.0257 36.5302 75.7441 36.648 75.4869C36.7594 75.2536 36.9113 75.0471 37.0949 74.8793C37.2819 74.7185 37.4937 74.5967 37.7199 74.5198C37.9571 74.4406 38.204 74.403 38.4517 74.4083L38.4971 73.6282L38.9634 73.6641L38.9116 74.4371C39.0722 74.4561 39.2313 74.4886 39.3876 74.5341C39.553 74.5835 39.7135 74.6509 39.8669 74.7355C40.0207 74.8189 40.1661 74.9201 40.3008 75.0375C40.4357 75.1554 40.5565 75.2919 40.6603 75.4437L40.0968 75.8571C39.967 75.6157 39.7814 75.4171 39.5592 75.2819C39.3486 75.1508 39.1161 75.0688 38.8759 75.0411L38.6946 78.0142C38.9342 78.1257 39.1706 78.2479 39.4006 78.3737C39.6226 78.505 39.8265 78.6708 40.0061 78.8663C40.1808 79.0562 40.3205 79.2821 40.4174 79.5314C40.5087 79.8106 40.548 80.1075 40.533 80.4041C40.518 80.7008 40.4489 80.9909 40.33 81.257C40.2219 81.4948 40.0696 81.7043 39.8831 81.8718C39.6894 82.0356 39.4697 82.1576 39.2354 82.2313C38.9793 82.3156 38.7121 82.3508 38.4452 82.3356L38.3999 83.1121L37.9304 83.0798L37.9789 82.2996C37.5669 82.2634 37.1685 82.1193 36.8164 81.879C36.4926 81.6556 36.2137 81.3607 35.9971 81.0126L36.5767 80.6207C36.6494 80.7891 36.7505 80.9405 36.8747 81.0665C36.9926 81.1889 37.1218 81.2974 37.26 81.39C37.387 81.4749 37.5215 81.5448 37.6616 81.5986C37.7765 81.6442 37.8962 81.6732 38.0178 81.6848L38.1894 78.5823ZM38.4064 74.9871C38.086 74.9726 37.7722 75.0904 37.5256 75.3179C37.4001 75.4373 37.2988 75.585 37.2285 75.751C37.1581 75.9171 37.1203 76.0979 37.1175 76.2814C37.0985 76.4506 37.1133 76.6224 37.1609 76.7846C37.2085 76.9468 37.2877 77.0953 37.3928 77.2197C37.6311 77.4767 37.9207 77.6676 38.238 77.7769L38.4064 74.9871ZM38.4712 81.7028C38.6219 81.7047 38.7722 81.6842 38.918 81.6417C39.0734 81.5995 39.2198 81.5238 39.3487 81.4188C39.4835 81.3055 39.594 81.1607 39.6726 80.9946C39.7694 80.7875 39.8236 80.5591 39.8313 80.3259C39.8451 80.1516 39.8251 79.976 39.7726 79.811C39.7201 79.646 39.6363 79.4955 39.5269 79.3696C39.281 79.0845 38.9797 78.8656 38.646 78.7297L38.4712 81.7028Z" fill="#FF8B08"/>
</g>
<defs>
<linearGradient id="paint0_linear_109_749" x1="58.8019" y1="69.3138" x2="42.771" y2="65.0557" gradientUnits="userSpaceOnUse">
<stop offset="0.01"/>
<stop offset="0.83" stop-opacity="0.07"/>
<stop offset="1" stop-opacity="0"/>
</linearGradient>
<linearGradient id="paint1_linear_109_749" x1="42.0616" y1="59.1016" x2="48.3083" y2="71.3206" gradientUnits="userSpaceOnUse">
<stop offset="0.01"/>
<stop offset="0.83" stop-opacity="0.07"/>
<stop offset="1" stop-opacity="0"/>
</linearGradient>
<linearGradient id="paint2_linear_109_749" x1="67.2082" y1="73.2264" x2="80.0528" y2="134.26" gradientUnits="userSpaceOnUse">
<stop offset="0.01"/>
<stop offset="0.83" stop-opacity="0.07"/>
<stop offset="1" stop-opacity="0"/>
</linearGradient>
<linearGradient id="paint3_linear_109_749" x1="47.0419" y1="93.8079" x2="82.9467" y2="95.9787" gradientUnits="userSpaceOnUse">
<stop offset="0.01"/>
<stop offset="0.83" stop-opacity="0.07"/>
<stop offset="1" stop-opacity="0"/>
</linearGradient>
<linearGradient id="paint4_linear_109_749" x1="107.157" y1="76.1024" x2="11.7982" y2="66.1694" gradientUnits="userSpaceOnUse">
<stop offset="0.01"/>
<stop offset="0.83" stop-opacity="0.07"/>
<stop offset="1" stop-opacity="0"/>
</linearGradient>
<linearGradient id="paint5_linear_109_749" x1="67.0548" y1="54.9358" x2="71.2539" y2="74.8954" gradientUnits="userSpaceOnUse">
<stop offset="0.01"/>
<stop offset="0.83" stop-opacity="0.07"/>
<stop offset="1" stop-opacity="0"/>
</linearGradient>
<linearGradient id="paint6_linear_109_749" x1="61.8693" y1="53.1478" x2="67.6898" y2="80.7972" gradientUnits="userSpaceOnUse">
<stop offset="0.01"/>
<stop offset="0.83" stop-opacity="0.07"/>
<stop offset="1" stop-opacity="0"/>
</linearGradient>
<linearGradient id="paint7_linear_109_749" x1="51.378" y1="89.4648" x2="51.8507" y2="142.6" gradientUnits="userSpaceOnUse">
<stop offset="0.01"/>
<stop offset="0.83" stop-opacity="0.07"/>
<stop offset="1" stop-opacity="0"/>
</linearGradient>
<linearGradient id="paint8_linear_109_749" x1="82.1142" y1="89.1896" x2="82.5866" y2="142.329" gradientUnits="userSpaceOnUse">
<stop offset="0.01"/>
<stop offset="0.83" stop-opacity="0.07"/>
<stop offset="1" stop-opacity="0"/>
</linearGradient>
<linearGradient id="paint9_linear_109_749" x1="69.5426" y1="64.777" x2="74.2234" y2="53.0527" gradientUnits="userSpaceOnUse">
<stop offset="0.01"/>
<stop offset="0.83" stop-opacity="0.07"/>
<stop offset="1" stop-opacity="0"/>
</linearGradient>
<linearGradient id="paint10_linear_109_749" x1="83.9373" y1="35.6169" x2="72.477" y2="53.8062" gradientUnits="userSpaceOnUse">
<stop offset="0.01"/>
<stop offset="0.83" stop-opacity="0.07"/>
<stop offset="1" stop-opacity="0"/>
</linearGradient>
<linearGradient id="paint11_linear_109_749" x1="68.5045" y1="35.1434" x2="84.3436" y2="51.9105" gradientUnits="userSpaceOnUse">
<stop offset="0.01"/>
<stop offset="0.83" stop-opacity="0.07"/>
<stop offset="1" stop-opacity="0"/>
</linearGradient>
<linearGradient id="paint12_linear_109_749" x1="77.2286" y1="43.0396" x2="86.3576" y2="43.5916" gradientUnits="userSpaceOnUse">
<stop offset="0.01"/>
<stop offset="0.83" stop-opacity="0.07"/>
<stop offset="1" stop-opacity="0"/>
</linearGradient>
<linearGradient id="paint13_linear_109_749" x1="66.9914" y1="31.5068" x2="87.9334" y2="32.7729" gradientUnits="userSpaceOnUse">
<stop offset="0.01"/>
<stop offset="0.83" stop-opacity="0.07"/>
<stop offset="1" stop-opacity="0"/>
</linearGradient>
<linearGradient id="paint14_linear_109_749" x1="65.7959" y1="61.2249" x2="66.3701" y2="52.834" gradientUnits="userSpaceOnUse">
<stop offset="0.01"/>
<stop offset="0.83" stop-opacity="0.07"/>
<stop offset="1" stop-opacity="0"/>
</linearGradient>
<linearGradient id="paint15_linear_109_749" x1="70.4902" y1="69.1364" x2="98.615" y2="74.2414" gradientUnits="userSpaceOnUse">
<stop offset="0.01"/>
<stop offset="0.83" stop-opacity="0.07"/>
<stop offset="1" stop-opacity="0"/>
</linearGradient>
<linearGradient id="paint16_linear_109_749" x1="88.0912" y1="82.4502" x2="97.213" y2="86.6656" gradientUnits="userSpaceOnUse">
<stop offset="0.01"/>
<stop offset="0.83" stop-opacity="0.07"/>
<stop offset="1" stop-opacity="0"/>
</linearGradient>
<linearGradient id="paint17_linear_109_749" x1="101.16" y1="84.7825" x2="94.101" y2="92.0402" gradientUnits="userSpaceOnUse">
<stop offset="0.02" stop-color="white" stop-opacity="0"/>
<stop offset="0.39" stop-color="white" stop-opacity="0.39"/>
<stop offset="1" stop-color="white"/>
</linearGradient>
<linearGradient id="paint18_linear_109_749" x1="101.485" y1="85.4192" x2="95.8064" y2="91.2619" gradientUnits="userSpaceOnUse">
<stop offset="0.02" stop-color="white" stop-opacity="0"/>
<stop offset="0.39" stop-color="white" stop-opacity="0.39"/>
<stop offset="1" stop-color="white"/>
</linearGradient>
<linearGradient id="paint19_linear_109_749" x1="22.895" y1="77.1091" x2="60.0917" y2="78.5128" gradientUnits="userSpaceOnUse">
<stop offset="0.02" stop-color="white" stop-opacity="0"/>
<stop offset="0.39" stop-color="white" stop-opacity="0.39"/>
<stop offset="1" stop-color="white"/>
</linearGradient>
<linearGradient id="paint20_linear_109_749" x1="24.2189" y1="77.1141" x2="54.6491" y2="78.2608" gradientUnits="userSpaceOnUse">
<stop offset="0.02" stop-color="white" stop-opacity="0"/>
<stop offset="0.39" stop-color="white" stop-opacity="0.39"/>
<stop offset="1" stop-color="white"/>
</linearGradient>
<linearGradient id="paint21_linear_109_749" x1="23.716" y1="55.3169" x2="60.9126" y2="56.7207" gradientUnits="userSpaceOnUse">
<stop offset="0.02" stop-color="white" stop-opacity="0"/>
<stop offset="0.39" stop-color="white" stop-opacity="0.39"/>
<stop offset="1" stop-color="white"/>
</linearGradient>
<linearGradient id="paint22_linear_109_749" x1="26.3077" y1="55.3946" x2="55.1709" y2="56.4817" gradientUnits="userSpaceOnUse">
<stop offset="0.02" stop-color="white" stop-opacity="0"/>
<stop offset="0.39" stop-color="white" stop-opacity="0.39"/>
<stop offset="1" stop-color="white"/>
</linearGradient>
<clipPath id="clip0_109_749">
<rect width="147" height="123" fill="white"/>
</clipPath>
</defs>
</svg>
