<svg width="147" height="123" viewBox="0 0 147 123" fill="none" xmlns="http://www.w3.org/2000/svg">
<path d="M71.3979 117.68L5.3508 74.3435C3.2487 73.0339 1.44428 70.8838 3.49493 69.468L69.7809 27.037C70.7768 26.3516 72.2873 25.9028 73.2979 26.5556L142.63 71.2469C144.733 72.6014 145.111 76.3875 142.998 77.7461L80.115 117.611C78.7931 118.464 77.2936 118.919 75.7648 118.931C74.2359 118.943 72.7307 118.512 71.3979 117.68V117.68Z" fill="#096EA6"/>
<path style="mix-blend-mode:multiply" d="M48.3407 64.0662L23.2368 78.5988L33.9641 86.8402L57.44 69.7046C55.3416 68.1828 50.4612 65.539 48.3407 64.0662Z" fill="url(#paint0_linear_109_653)"/>
<path d="M44.1259 52.4997C44.1259 52.4997 42.2296 70.1045 42.7294 70.6593C43.2292 71.2142 50.2117 74.8657 50.5094 74.7392C50.8071 74.6127 59.0501 68.8723 59.0501 68.8723C59.0501 68.8723 52.6225 65.5513 52.2146 64.6659C51.8067 63.7806 51.7258 52.0427 51.7258 52.0427" fill="#204A51"/>
<path d="M61.8354 7.12305C63.7353 5.99292 65.334 7.36376 65.4038 10.1911L66.3703 48.6932C66.4144 50.423 65.5067 52.3855 64.3454 53.0791L29.635 73.7642C27.735 74.8943 26.1364 73.5234 26.0666 70.6961L25.0927 31.9574C25.0523 30.3581 25.8902 28.5425 26.967 27.902L61.8354 7.12305Z" fill="#FF8B08"/>
<path d="M119.265 70.231L105.891 62.0712C105.634 61.9147 105.42 61.6845 105.271 61.4046C105.121 61.1247 105.043 60.8054 105.042 60.48V33.2753C105.044 32.9574 105.122 32.6458 105.266 32.3714C105.411 32.097 105.617 31.8696 105.866 31.7118C106.115 31.554 106.396 31.4714 106.682 31.4723C106.969 31.4732 107.25 31.5575 107.497 31.7167L120.871 40.2845C121.12 40.4438 121.327 40.6733 121.471 40.9498C121.615 41.2263 121.69 41.54 121.69 41.8594V68.6398C121.69 68.9557 121.616 69.2662 121.476 69.5406C121.335 69.815 121.132 70.0438 120.887 70.2045C120.642 70.3652 120.363 70.4521 120.079 70.4568C119.794 70.4614 119.514 70.3836 119.265 70.231V70.231Z" fill="#FF8B08"/>
<path d="M118.456 51.2757V57.8035C118.456 59.6966 115.807 59.7007 115.807 57.8035V51.2757C115.807 49.3826 118.456 49.3786 118.456 51.2757Z" fill="#56403D"/>
<path d="M114.855 44.5888V55.1027C114.855 56.9958 112.205 56.9999 112.205 55.1027V44.5888C112.205 42.6998 114.855 42.6957 114.855 44.5888Z" fill="#FFA197"/>
<path d="M110.588 36.9716V53.1117C110.588 55.0048 107.938 55.0089 107.938 53.1117V36.9716C107.938 35.0826 110.588 35.0785 110.588 36.9716Z" fill="#F2F2F2"/>
<path d="M113.881 59.6151L117.155 61.5245C117.618 61.7937 117.207 62.5771 116.744 62.3078L113.469 60.3984C113.006 60.1251 113.418 59.3458 113.881 59.6151Z" fill="#F2F2F2"/>
<path d="M108.14 59.1377C111.186 60.9519 114.263 62.6981 117.372 64.3763C117.842 64.6292 117.431 65.4126 116.96 65.1596C113.851 63.4814 110.774 61.7352 107.729 59.921C107.266 59.6436 107.677 58.8643 108.14 59.1377Z" fill="#F2F2F2"/>
<path d="M99.6366 45.7107L86.1751 37.5061C85.916 37.3487 85.6997 37.1168 85.549 36.8346C85.3984 36.5525 85.3189 36.2306 85.3188 35.9027V8.51428C85.3188 8.19343 85.3949 7.87823 85.5394 7.60035C85.6839 7.32248 85.8917 7.09173 86.142 6.9313C86.3923 6.77087 86.6762 6.68641 86.9652 6.6864C87.2542 6.6864 87.5382 6.77085 87.7884 6.93128L101.25 15.5603C101.5 15.7207 101.708 15.9515 101.853 16.2293C101.997 16.5072 102.073 16.8224 102.073 17.1433V44.1114C102.073 44.4283 101.998 44.7396 101.856 45.0147C101.714 45.2898 101.51 45.5193 101.265 45.6806C101.019 45.8418 100.74 45.9294 100.454 45.9347C100.169 45.94 99.8871 45.8628 99.6366 45.7107V45.7107Z" fill="#FF8B08"/>
<path d="M94.6351 19.4362C93.834 18.5264 92.974 18.045 92.1655 18.045C92.0136 18.0451 91.8621 18.0629 91.7135 18.098C91.0918 18.2669 90.5477 18.6837 90.1847 19.2689C89.8291 18.7185 89.4438 18.1926 89.0308 17.6941C89.6298 16.9147 90.4413 16.3733 91.3423 16.1519C92.8969 15.7888 94.5212 16.462 95.9177 18.049C96.3307 18.5253 96.7 19.046 97.0202 19.6035C96.5094 19.9462 96.0133 20.3134 95.5135 20.6806C95.2584 20.2346 94.9642 19.8178 94.6351 19.4362Z" fill="#56403D"/>
<path d="M94.6274 33.4588C95.4837 33.1732 96.193 32.3001 96.6377 30.9701C97.1755 29.1812 97.2544 27.2614 96.8655 25.4255C96.6478 24.2446 96.2619 23.1098 95.7226 22.0637C96.2224 21.6965 96.7185 21.3334 97.2293 20.9866C97.8859 22.235 98.3551 23.5937 98.6185 25.0094C99.077 27.2141 98.9727 29.5171 98.3171 31.6596C97.6777 33.5649 96.5862 34.8542 95.2118 35.3315C95.0317 34.7032 94.8443 34.0708 94.6274 33.4588Z" fill="#FFA197"/>
<path d="M87.8323 20.9621C88.0564 20.2753 88.371 19.6291 88.7657 19.0446C89.1868 19.5608 89.5783 20.1059 89.938 20.6765C89.7699 20.9903 89.6284 21.3209 89.5154 21.6639C88.9838 23.4518 88.91 25.3685 89.3023 27.2003C89.6166 29.053 90.389 30.7722 91.533 32.1655C92.415 33.1692 93.3705 33.6506 94.2452 33.5404C94.4693 34.1647 94.6604 34.8052 94.8405 35.4458C94.5662 35.5104 94.2867 35.5432 94.0063 35.5437C92.7163 35.5437 91.4117 34.8542 90.2651 33.5486C88.8844 31.8845 87.949 29.8259 87.564 27.6042C87.0962 25.4055 87.1891 23.1055 87.8323 20.9621V20.9621Z" fill="#F2F2F2"/>
<path d="M92.6396 28.1988C93.2529 28.123 93.6495 27.0595 93.5256 25.8233C93.4017 24.5871 92.8041 23.6464 92.1909 23.7222C91.5777 23.798 91.181 24.8615 91.3049 26.0977C91.4288 27.3338 92.0264 28.2745 92.6396 28.1988Z" fill="#F2F2F2"/>
<path d="M87.7477 35.9394L96.1304 40.6109C96.1637 40.6294 96.1934 40.655 96.2178 40.6862C96.2422 40.7174 96.2608 40.7537 96.2726 40.7929C96.2843 40.8321 96.2891 40.8735 96.2864 40.9147C96.2838 40.9559 96.2738 40.9962 96.2572 41.0332C96.2405 41.0701 96.2175 41.1031 96.1894 41.1302C96.1612 41.1573 96.1286 41.1779 96.0933 41.191C96.0579 41.2041 96.0207 41.2093 95.9835 41.2064C95.9464 41.2034 95.9101 41.1924 95.8768 41.1739L87.4942 36.4983C87.4341 36.457 87.3901 36.3921 87.3709 36.3165C87.3518 36.241 87.3588 36.1602 87.3906 36.0901C87.4224 36.02 87.4767 35.9656 87.5428 35.9377C87.6089 35.9098 87.682 35.9104 87.7477 35.9394V35.9394Z" fill="#F2F2F2"/>
<path d="M87.7482 34.4951L96.1309 39.1707C96.1981 39.208 96.2493 39.2735 96.273 39.3527C96.2968 39.4319 96.2913 39.5183 96.2576 39.593C96.224 39.6676 96.1651 39.7244 96.0937 39.7508C96.0224 39.7772 95.9445 39.7711 95.8773 39.7337L87.4946 35.0582C87.4274 35.0208 87.3762 34.9554 87.3524 34.8762C87.3287 34.797 87.3342 34.7106 87.3678 34.6359C87.4014 34.5612 87.4604 34.5045 87.5317 34.4781C87.6031 34.4517 87.6809 34.4578 87.7482 34.4951V34.4951Z" fill="#F2F2F2"/>
<path style="mix-blend-mode:multiply" d="M133.196 71.6997L123.167 78.4846C123.167 78.4846 122.55 80.2471 129.492 83.4865L139.944 76.2651" fill="url(#paint1_linear_109_653)"/>
<path d="M136.236 77.7502C139.27 77.7502 141.73 75.213 141.73 72.0832C141.73 68.9535 139.27 66.4163 136.236 66.4163C133.201 66.4163 130.742 68.9535 130.742 72.0832C130.742 75.213 133.201 77.7502 136.236 77.7502Z" fill="#FF8B08"/>
<path d="M136.232 71.2061C138.504 71.2061 140.345 70.101 140.345 68.7378C140.345 67.3745 138.504 66.2694 136.232 66.2694C133.961 66.2694 132.12 67.3745 132.12 68.7378C132.12 70.101 133.961 71.2061 136.232 71.2061Z" fill="#1D3F75"/>
<path d="M136.023 48.8278V68.1991C136.046 68.2823 136.093 68.355 136.156 68.4066C136.219 68.4583 136.295 68.4861 136.374 68.4861C136.452 68.4861 136.529 68.4583 136.592 68.4066C136.655 68.355 136.702 68.2823 136.725 68.1991V48.8278C136.702 48.7446 136.655 48.6719 136.592 48.6203C136.529 48.5686 136.452 48.5408 136.374 48.5408C136.295 48.5408 136.219 48.5686 136.156 48.6203C136.093 48.6719 136.046 48.7446 136.023 48.8278Z" fill="#1C7377"/>
<path d="M137.673 48.1056C137.781 47.8799 137.846 47.6321 137.864 47.3774C137.883 47.1227 137.854 46.8665 137.78 46.6246C137.618 46.0902 137.386 45.5761 137.195 45.0539C137.004 44.5316 136.828 44.0706 136.633 43.5933C136.427 43.7075 134.953 46.1718 134.891 47.204C134.829 48.2362 136.056 49.1052 136.056 49.1052L136.423 49.3663C136.49 49.4153 137.129 48.8278 137.203 48.7584C137.396 48.5762 137.555 48.3546 137.673 48.1056V48.1056Z" fill="#1C7377"/>
<path d="M136.578 53.7482C138.132 53.5809 139.209 52.1162 139.94 50.6189C138.29 50.7127 136.772 51.8673 136.578 53.7482Z" fill="#1C7377"/>
<path d="M136.456 53.6829C135.986 52.0306 134.479 51.1656 132.998 50.6842C133.424 52.4549 134.758 53.8624 136.456 53.6829Z" fill="#1C7377"/>
<path d="M136.372 58.5053C138.353 58.2931 139.72 56.4409 140.653 54.5233C138.548 54.6416 136.618 56.1104 136.372 58.5053Z" fill="#1C7377"/>
<path d="M136.218 58.4196C135.619 56.3144 133.7 55.2169 131.808 54.6008C132.359 56.857 134.057 58.644 136.218 58.4196Z" fill="#1C7377"/>
<path d="M136.522 64.0826C138.779 63.8378 140.337 61.7285 141.399 59.5416C139.007 59.6803 136.805 61.3531 136.522 64.0826Z" fill="#1C7377"/>
<path d="M136.343 63.9887C135.659 61.5897 133.476 60.3168 131.326 59.6395C131.933 62.2099 133.884 64.2498 136.343 63.9887Z" fill="#1C7377"/>
<path d="M46.2488 21.0597C46.397 19.9406 46.0498 18.9572 45.4735 18.8632C44.8972 18.7691 44.3099 19.6001 44.1618 20.7193C44.0136 21.8384 44.3608 22.8218 44.9371 22.9158C45.5134 23.0099 46.1007 22.1789 46.2488 21.0597Z" fill="#124577"/>
<path d="M44.4379 43.8911C45.1729 43.4546 45.7903 43.9849 45.8197 45.0784L46.1872 59.9782C46.1944 60.3111 46.1265 60.6407 45.9898 60.9371C45.8531 61.2335 45.6519 61.4873 45.4044 61.6754L31.9723 69.6598C31.2373 70.0963 30.6199 69.5659 30.5905 68.4725L30.223 53.4789C30.2174 53.1697 30.2817 52.8639 30.4101 52.5895C30.5385 52.315 30.7269 52.0808 30.958 51.9081L44.4379 43.8911Z" fill="white"/>
<path d="M62.4933 33.2629C63.2283 32.8264 63.8457 33.3568 63.8751 34.4502L64.2426 49.35C64.2498 49.6829 64.1819 50.0125 64.0452 50.3089C63.9085 50.6053 63.7073 50.8591 63.4598 51.0472L50.0314 59.052C49.2964 59.4885 48.679 58.9582 48.6496 57.8647L48.2821 42.8711C48.2764 42.5619 48.3408 42.2561 48.4692 41.9817C48.5976 41.7073 48.786 41.473 49.0171 41.3003L62.4933 33.2629Z" fill="white"/>
<path d="M44.0341 24.4095C44.7691 23.973 45.3865 24.5034 45.4159 25.5968L45.7834 40.4966C45.7906 40.8295 45.7227 41.1591 45.586 41.4555C45.4493 41.7519 45.2481 42.0057 45.0006 42.1938L31.5685 50.2027C30.8335 50.6392 30.2161 50.1088 30.1867 49.0154L29.8192 34.0218C29.8135 33.7126 29.8779 33.4068 30.0063 33.1324C30.1347 32.8579 30.3231 32.6237 30.5542 32.451L44.0341 24.4095Z" fill="white"/>
<path d="M61.7398 14.1731C62.4748 13.7365 63.0922 14.2669 63.1216 15.3603L63.4891 30.2601C63.4963 30.593 63.4285 30.9226 63.2918 31.219C63.1551 31.5154 62.9538 31.7692 62.7064 31.9574L49.2926 39.9622C48.5576 40.3987 47.9402 39.8683 47.9108 38.7749L47.5433 23.7813C47.5377 23.4721 47.602 23.1663 47.7304 22.8918C47.8588 22.6174 48.0472 22.3831 48.2783 22.2105L61.7398 14.1731Z" fill="white" stroke="#FF9B48" stroke-width="1.015" stroke-miterlimit="10"/>
<path d="M50.8511 38.8525C52.9936 37.7958 55.1288 36.7105 57.1868 35.458L51.395 36.531C51.5163 36.9513 51.0091 37.7632 50.8511 38.8525Z" fill="#204A51"/>
<path d="M62.4087 23.6099C62.4087 23.6099 62.8717 22.0228 62.835 21.3374C62.7982 20.6519 62.4675 19.6524 62.835 19.4443C63.2025 19.2362 63.6839 20.6683 63.6839 20.6683C63.6839 20.6683 64.8452 17.9755 65.1907 18.1469C65.2996 18.2198 65.3903 18.3219 65.4545 18.4437C65.5187 18.5656 65.5543 18.7034 65.5582 18.8445C65.5582 18.8445 65.9257 18.1673 66.0727 18.4366C66.1479 18.7105 66.1479 19.0031 66.0727 19.277C66.0727 19.277 66.4181 19.3464 66.4402 19.5912C66.4622 19.836 65.9551 20.8559 65.9551 20.8559C66.0337 20.8704 66.106 20.9128 66.161 20.9768C66.216 21.0409 66.2508 21.123 66.2601 21.2109C66.2821 21.525 64.0771 23.9648 64.0771 23.9648" fill="#FBC76F"/>
<path d="M56.5952 23.1978C56.5952 23.1978 58.5319 24.9766 59.2816 26.3393C60.0313 27.702 62.5046 22.7408 62.5046 22.7408C62.5046 22.7408 64.2098 23.3651 64.7537 23.618C65.2976 23.871 61.9938 32.2674 59.7153 31.9818C57.4368 31.6962 57.5103 31.1985 57.5103 31.1985" fill="#0096DF"/>
<path d="M51.3951 36.531C52.9226 36.8458 54.4972 36.7236 55.9705 36.176C56.4605 35.904 56.9505 35.6144 57.4405 35.307C57.7198 31.7534 57.9292 28.1957 57.5838 24.6258C57.5806 24.5974 57.5806 24.5686 57.5838 24.5402C57.377 24.0039 57.0445 23.539 56.6209 23.1938C55.5625 22.3982 53.8316 22.7858 52.8063 23.3896C52.5603 23.5377 52.3298 23.7156 52.1191 23.92C50.9761 28.0448 51.4502 32.3001 51.3951 36.531Z" fill="#0096DF"/>
<path d="M55.419 21.5169L53.5374 21.0803L53.3794 23.3855C53.3794 23.3855 54.7979 24.997 56.1981 24.7726L55.8012 22.851C55.6287 22.4238 55.5005 21.9762 55.419 21.5169V21.5169Z" fill="#FCBB5B"/>
<path d="M55.4595 21.7209C54.8453 21.4168 54.1998 21.1976 53.5375 21.0681L53.4897 22.3329C53.4897 22.3329 54.8973 23.4793 55.7315 22.6634C55.6182 22.3578 55.5272 22.0427 55.4595 21.7209Z" fill="#DB9231"/>
<path d="M56.775 18.9996C56.775 18.9996 58.0282 18.1551 57.7783 17.3677C57.5284 16.5802 56.5545 16.3844 56.5545 16.3844C56.5545 16.3844 56.4001 15.3971 55.6762 15.2828C54.9522 15.1686 53.7064 15.8214 53.7064 15.8214C53.7064 15.8214 52.6222 15.7112 52.2364 16.3844C51.8505 17.0576 51.9938 18.2652 51.9938 18.2652C51.9938 18.2652 52.8979 21.3048 53.2984 21.3823C53.699 21.4598 54.6986 20.3419 54.6986 20.3419" fill="#204A51"/>
<path d="M56.7897 18.0409C56.7897 18.0409 57.0837 22.0677 55.5439 22.3329C54.0041 22.5981 53.3389 20.2603 53.3389 20.2603C53.3389 20.2603 52.4018 19.2934 52.9898 19.0772C53.5778 18.8609 53.6623 19.2241 53.6623 19.2241C53.6623 19.2241 53.089 17.7716 53.6917 17.7716C54.2944 17.7716 56.0327 18.8691 56.7897 18.0409Z" fill="#FBC76F"/>
<path d="M53.3795 22.7408C53.3795 22.7408 54.1145 23.5079 54.5996 23.5568L55.3346 24.0097L55.952 24.7237V23.72C55.952 23.72 55.7682 22.8265 55.7976 22.8347C55.827 22.8428 56.4812 23.9648 56.4812 23.9648L57.0986 25.1072L56.2019 25.0093L55.8123 25.7396C55.8123 25.7396 53.5816 24.638 52.7988 23.3773L53.3795 22.7408Z" fill="white"/>
<path d="M65.4518 18.7018C65.05 19.4579 64.6666 20.2263 64.3015 21.0069C64.2538 21.1089 64.3897 21.1946 64.4375 21.0967C64.8001 20.316 65.1835 19.5477 65.5878 18.7915C65.5937 18.772 65.5935 18.7509 65.5871 18.7316C65.5807 18.7123 65.5685 18.696 65.5526 18.6855C65.5366 18.6749 65.5179 18.6708 65.4996 18.6738C65.4812 18.6768 65.4644 18.6866 65.4518 18.7018V18.7018Z" fill="#204A51"/>
<path d="M65.9588 19.2322L64.9114 21.3619C64.8636 21.4598 64.9996 21.5496 65.0474 21.4516L66.0947 19.3219C66.1499 19.2199 66.0102 19.1302 65.9588 19.2322Z" fill="#204A51"/>
<path d="M65.8854 20.8519C65.6775 21.1194 65.4941 21.4091 65.3378 21.7168C65.3318 21.7363 65.3321 21.7575 65.3385 21.7768C65.3449 21.7961 65.3571 21.8124 65.373 21.8229C65.389 21.8334 65.4077 21.8375 65.426 21.8346C65.4443 21.8316 65.4612 21.8217 65.4738 21.8066C65.6233 21.5163 65.798 21.243 65.9956 20.9906C66.0618 20.8886 65.9515 20.7662 65.8854 20.8519Z" fill="#204A51"/>
<path d="M63.8382 20.9376C63.75 20.8846 63.6692 21.0356 63.7574 21.0886C64.0041 21.2583 64.2035 21.5007 64.3333 21.7889C64.463 22.0771 64.5181 22.3996 64.4924 22.7206C64.4924 22.7438 64.5007 22.7661 64.5155 22.7826C64.5303 22.799 64.5504 22.8083 64.5714 22.8083C64.5923 22.8083 64.6124 22.799 64.6272 22.7826C64.642 22.7661 64.6504 22.7438 64.6504 22.7206C64.6769 22.369 64.6151 22.0162 64.4717 21.7014C64.3283 21.3866 64.109 21.1222 63.8382 20.9376V20.9376Z" fill="#204A51"/>
<path d="M52.1077 23.9241C51.3257 24.4801 50.6914 25.2575 50.2702 26.1762C49.6271 27.649 47.8337 34.336 49.9394 35.2744C52.0452 36.2127 55.7018 34.0504 55.7018 34.0504L55.4924 30.4927L52.3355 30.9945" fill="#0096DF"/>
<path d="M56.176 27.702C56.1503 27.8163 55.2095 34.3278 55.2095 34.3278L58.9249 33.2221L59.715 26.5637L56.176 27.702Z" fill="#FF7F5C"/>
<path d="M54.71 30.9007C54.71 30.9007 55.3641 29.0362 55.7059 29.1504C56.0477 29.2647 55.9411 30.2153 55.9411 30.2153C55.9411 30.2153 57.6242 29.3014 58.0689 29.7216C58.5136 30.1418 57.3964 31.2108 57.095 31.4352C56.7937 31.6596 54.8533 32.4633 54.8533 32.4633L54.71 30.9007Z" fill="#FBC76F"/>
<path d="M51.3948 35.5192C52.488 35.245 53.5675 34.9072 54.6288 34.5074C54.6288 34.5074 54.9191 32.6388 54.9338 32.7C54.9485 32.7612 54.8934 35.0989 54.7611 35.2581C54.6288 35.4172 51.3911 36.531 51.3911 36.531L51.3948 35.5192Z" fill="#363942"/>
<path d="M37.1176 66.9874C38.9551 65.9878 40.7927 64.9067 42.5309 63.7235C42.7478 60.2678 42.575 57.9137 42.2332 57.2732C41.7886 56.4368 39.0764 55.7718 37.8416 56.1512C36.6068 56.5306 34.7583 58.1218 34.7583 58.1218C34.7583 58.1218 35.2067 62.9157 36.4488 65.7675C36.6405 66.1943 36.8643 66.6023 37.1176 66.9874Z" fill="#A5DD73"/>
<path d="M39.8075 56.6367C40.2412 56.7387 40.322 55.4128 40.1383 55.2781C39.2989 55.1395 38.4456 55.1395 37.6062 55.2781C36.919 55.6168 37.6062 56.7469 37.6062 56.7469" fill="#A5DD73"/>
<path d="M36.9706 51.3737C37.3381 51.2309 37.2389 50.5169 37.9114 50.0681C38.584 49.6193 39.499 49.9457 39.8518 50.1456C40.2046 50.3455 40.3627 49.7907 40.7596 50.1456C41.1565 50.5006 41.0242 51.1248 41.252 51.3084H41.2851C41.3946 51.4565 41.4683 51.6331 41.4991 51.8216C41.53 52.01 41.517 52.2041 41.4615 52.3855C41.3356 52.647 41.1786 52.8885 40.9948 53.1036L38.0217 55.5189C37.5917 55.2781 36.4451 52.5283 36.4414 52.1611C36.4327 51.9818 36.4809 51.8049 36.5776 51.661C36.6743 51.5171 36.8134 51.4154 36.9706 51.3737V51.3737Z" fill="#200904"/>
<path d="M40.6641 51.8673C40.8331 52.0182 40.8258 55.5392 39.896 55.8411C38.9662 56.143 37.6579 54.9231 37.4999 54.5274C37.3419 54.1316 37.0993 51.904 37.4521 51.6306C37.8049 51.3573 39.6314 50.9575 40.6641 51.8673Z" fill="#F67770"/>
<path d="M40.0869 50.9453C40.0869 50.9453 40.3846 51.7164 39.2711 52.0591C38.1575 52.4018 38.1208 52.6956 38.0473 53.1607C37.9076 54.0297 37.2461 55.1313 36.6324 52.6874C36.603 52.5691 37.1837 50.7291 38.0436 50.4475C38.9036 50.166 40.0869 50.9453 40.0869 50.9453Z" fill="#200904"/>
<path d="M38.007 53.6217C38.007 53.6217 37.5586 53.0016 37.3271 53.3728C37.0956 53.7441 37.4006 54.4663 37.8049 54.6417" fill="#F67770"/>
<path d="M43.5524 62.9891C43.2754 62.0716 43.0809 61.1259 42.9718 60.1658C42.7366 58.0565 42.2368 57.2568 42.2368 57.2568L41.2739 60.8675C41.2849 62.0108 41.4407 63.1466 41.737 64.2416C42.347 63.8391 42.9522 63.4216 43.5524 62.9891Z" fill="#A5DD73"/>
<path d="M37.7752 66.6324L37.4077 66.2245C37.4077 66.2245 36.7646 56.7591 34.7654 58.1136C34.7654 58.1136 34.2288 58.2401 34.3023 60.378C34.3758 62.5158 34.8389 66.661 35.6952 67.7463C36.3983 67.3899 37.0917 67.0187 37.7752 66.6324Z" fill="#A5DD73"/>
<path d="M42.1374 63.9479L41.961 58.8848C41.961 58.6971 41.6891 58.6971 41.6964 58.8848L41.8765 64.0826L42.1374 63.9479Z" fill="#75A542"/>
<path d="M37.9997 66.506L38.2349 66.3754C38.008 65.5491 37.8602 64.6985 37.7939 63.8377L37.386 61.0593C37.3603 60.8716 37.103 60.9532 37.1288 61.1368L37.5771 64.1927C37.6441 64.9782 37.7857 65.7536 37.9997 66.506V66.506Z" fill="#75A542"/>
<path d="M71.2545 59.6436L65.6611 56.0002L74.2937 50.3333L79.7437 54.1031L71.2545 59.6436Z" fill="#5B434D"/>
<path d="M65.8047 55.8779L64.6323 48.8278L73.1032 43.5443L74.2939 50.3333L65.8047 55.8779Z" fill="#172D51"/>
<path style="mix-blend-mode:multiply" d="M65.6762 116.171L84.6722 103.237L79.292 99.035L59.7925 113.6C61.6925 114.62 63.7321 115.273 65.6762 116.171Z" fill="url(#paint2_linear_109_653)"/>
<path d="M75.874 100.536C75.874 100.618 74.404 104.376 74.0365 104.616C73.669 104.857 72.6731 104.115 72.3239 104.531C71.9748 104.947 71.5191 105.828 72.2982 106.199C73.0773 106.571 75.3926 106.917 75.8115 106.713C76.2166 106.468 76.5994 106.18 76.9544 105.853C76.9544 105.853 77.1713 103.837 77.4138 104.115C77.6564 104.392 77.5682 106.562 77.7409 106.628C77.9704 106.637 78.1995 106.599 78.4171 106.518L78.1966 100.161" fill="#FF6161"/>
<path d="M82.3016 97.1583C82.3016 97.2358 80.6956 100.936 80.3539 101.157C80.0121 101.377 79.0088 100.602 78.645 101.006C78.2812 101.41 77.7997 102.27 78.5678 102.674C79.3359 103.078 81.6364 103.515 82.0627 103.327C82.4763 103.098 82.869 102.825 83.2351 102.511C83.2351 102.511 83.518 100.504 83.7496 100.789C83.9811 101.075 83.8267 103.237 83.9958 103.315C84.225 103.334 84.4553 103.306 84.6757 103.233V96.8727" fill="#FF6161"/>
<path d="M76.6456 65.9879C76.6456 65.9879 71.9122 92.9153 72.3054 99.1494C72.3054 99.1494 73.2426 103.315 81.3753 101.928C81.3753 101.928 82.0773 98.8026 81.7649 93.5069C81.4525 88.2111 80.5926 65.9879 80.5926 65.9879H76.6456Z" fill="#42210B"/>
<path d="M77.502 97.8111L78.7294 65.7023L83.6208 65.1719C83.6208 65.1719 85.7523 73.4459 85.2819 77.4401C84.8115 81.4344 85.8295 86.7301 86.0647 89.5085C86.2742 92.0013 86.3587 96.3097 85.5833 98.2354C82.9593 99.0799 80.1149 98.7984 77.502 97.8111Z" fill="#42210B"/>
<path d="M81.7175 100.41C82.0955 98.3973 82.3692 96.3622 82.537 94.3147C82.6057 93.314 82.6119 92.3093 82.5554 91.3078C82.4722 90.2753 82.3397 89.2484 82.1585 88.2315C81.8844 86.4094 81.8153 84.5566 81.9527 82.7155C82.0776 80.8224 82.3385 78.9457 82.5039 77.0567C82.7439 74.9306 82.6806 72.7758 82.3165 70.6716C82.2614 70.3983 82.6399 70.2636 82.684 70.5574C83.441 74.3313 82.7134 78.1542 82.3937 81.9322C82.1978 83.8843 82.2312 85.8564 82.4929 87.7991C82.6362 88.7497 82.8089 89.6921 82.9008 90.655C82.9946 91.6811 83.0167 92.7136 82.967 93.7435C82.8186 96.0286 82.5288 98.2997 82.0997 100.541C82.0482 100.798 81.6734 100.667 81.7175 100.41Z" fill="white"/>
<path d="M79.8503 51.594C79.3873 51.7735 77.3771 51.7735 76.7303 53.7441C76.2736 55.2157 75.8896 56.7139 75.58 58.232L70.7694 55.3516C70.7694 55.3516 70.4828 59.8395 71.0561 60.9614C71.6294 62.0834 74.4297 64.6007 76.7303 63.1605C76.7303 63.1605 76.5134 64.9026 76.7303 65.433C76.9471 65.9634 82.2428 66.608 83.4555 64.9393C84.6683 63.2707 83.823 55.3516 83.823 55.3516" fill="#FF6161"/>
<path d="M70.8503 57.5751C70.9274 56.9345 70.9495 56.2899 71.0083 55.6493C70.844 55.5145 70.6925 55.3614 70.5563 55.1924C70.3909 55.0047 70.2329 54.813 70.0785 54.6171C69.9242 54.4213 69.8764 54.2091 69.7698 53.9847L69.6485 53.7236C69.4979 53.3932 69.3619 52.8709 69.0017 52.72C68.9372 52.6901 68.8675 52.6765 68.7976 52.6803C68.7278 52.6841 68.6596 52.7051 68.598 52.7419C68.5364 52.7786 68.4829 52.8301 68.4415 52.8927C68.4001 52.9552 68.3718 53.0272 68.3586 53.1035C68.2998 53.6828 69.2259 54.9109 68.1308 54.8782C67.9252 54.8611 67.7189 54.8611 67.5134 54.8782C67.0944 54.9354 66.7085 55.1557 66.8629 55.6616C66.8845 55.7329 66.9155 55.8002 66.9548 55.8615C66.8833 55.8849 66.8171 55.9247 66.7605 55.9785C66.7039 56.0322 66.6581 56.0986 66.6262 56.1733C66.5943 56.248 66.577 56.3293 66.5753 56.412C66.5737 56.4947 66.5878 56.5768 66.6167 56.653C66.6506 56.7408 66.7009 56.8196 66.7642 56.8843C66.8276 56.949 66.9025 56.9981 66.9842 57.0283C66.9252 57.1028 66.8927 57.1985 66.8927 57.2976C66.8927 57.3967 66.9252 57.4924 66.9842 57.5669C67.0752 57.6976 67.2057 57.7875 67.3517 57.8198C67.3402 57.9066 67.3491 57.9951 67.3774 58.0769C67.517 58.4849 68.0058 58.6113 68.3513 58.6725C69.1278 58.7789 69.9119 58.8007 70.6922 58.7378C70.74 58.3625 70.8025 57.9708 70.8503 57.5751Z" fill="#F7931E"/>
<path d="M77.0499 45.3191C76.7485 45.519 76.7632 50.5373 78.1156 51.1574C79.8796 51.9734 81.2982 49.7621 81.4636 48.5789C81.6289 47.3958 80.5338 42.9854 77.0499 45.3191Z" fill="#F7931E"/>
<path d="M86.3627 53.4014C86.1121 53.2315 85.8977 53.0032 85.7343 52.7323C85.6431 52.4009 85.607 52.0539 85.6277 51.7082C85.5836 50.8596 85.3741 49.962 84.6318 49.4969C84.1577 49.1991 83.4889 49.4602 83.0956 49.0032C82.7024 48.5463 82.7943 47.7262 82.7281 47.0979C82.4084 43.834 77.8367 43.222 76.363 45.8944C76.245 46.1031 76.1654 46.3356 76.1287 46.5787C76.0919 46.8217 76.0989 47.0704 76.1491 47.3104C76.1993 47.5505 76.2918 47.7771 76.4212 47.9773C76.5507 48.1775 76.7145 48.3473 76.9032 48.4769C77.1261 48.6345 77.3767 48.7374 77.6382 48.7788C78.0057 48.8441 78.3732 48.8319 78.5533 49.2644C78.7959 49.9131 78.3475 50.5822 78.127 51.1574C77.7816 52.055 77.675 53.3402 78.4945 53.9889C78.9121 54.2419 79.3639 54.4183 79.8322 54.5111C80.0286 54.5567 80.2094 54.6628 80.3541 54.8171C80.5782 55.1108 80.4349 55.5148 80.3872 55.8452C80.3595 56.0207 80.3595 56.2002 80.3872 56.3756C80.3606 56.5416 80.3694 56.7121 80.4128 56.8736C80.4562 57.0351 80.533 57.1831 80.637 57.3058C81.1332 57.9423 82.0483 57.9668 82.7686 57.926C83.6048 57.8795 84.4266 57.6652 85.1941 57.2936C85.8666 56.9713 86.7008 56.4776 87.0316 55.7514C87.4652 54.8824 87.0022 53.9766 86.3627 53.4014Z" fill="#FCEE21"/>
<path opacity="0.7" d="M78.5714 57.828C78.56 58.8521 78.4101 59.8684 78.1267 60.843C77.885 61.7538 77.3325 62.5238 76.5869 62.9891C76.5594 63.0107 76.5405 63.0432 76.5338 63.0799C76.5272 63.1166 76.5334 63.1547 76.5513 63.1865C76.5691 63.2182 76.5971 63.2412 76.6297 63.2508C76.6623 63.2604 76.6969 63.2558 76.7266 63.2379C77.4722 62.7801 78.0399 62.0336 78.3215 61.1409C78.6618 60.0768 78.8394 58.9571 78.8471 57.828C78.8471 57.6485 78.5751 57.6485 78.5714 57.828Z" fill="#124577"/>
<path d="M38.661 32.3613L38.7051 34.1075C38.7051 34.1075 37.3601 34.7766 36.6802 34.5726V31.7371" fill="#E5B79E"/>
<path d="M39.5246 29.0892C39.5246 29.0892 39.5687 31.9125 39.7121 32.4388C39.8554 32.9651 38.3339 32.7081 38.2788 31.9125" fill="#F7931E"/>
<path d="M39.4585 29.6156C39.4842 29.7053 39.4585 32.549 38.6757 32.8224C37.4409 33.2508 36.6949 32.1084 36.32 31.2271C35.9452 30.3459 36.184 27.7837 37.5254 27.6205C38.8668 27.4573 39.2196 28.8037 39.4585 29.6156Z" fill="#FFD9C0"/>
<path d="M39.4584 29.6156C39.6374 29.5136 39.7834 29.3525 39.8762 29.1544C39.969 28.9563 40.0041 28.7311 39.9766 28.5099C39.9333 27.9533 39.7036 27.4349 39.3328 27.0572C38.9619 26.6795 38.477 26.4699 37.9737 26.47C36.6838 26.47 34.6184 27.3879 35.2101 29.6564C35.8385 32.0798 36.8418 32.1696 36.8418 32.1696C36.8418 32.1696 36.3604 30.864 36.4743 30.2235C36.5882 29.5829 36.7426 28.9465 36.7426 28.9995C36.7426 29.0525 36.7058 29.8604 36.7058 29.8604C37.0287 29.8904 37.3532 29.8904 37.676 29.8604C37.7165 29.7992 37.9627 28.9016 37.9627 28.9016V29.8604L39.4584 29.6156Z" fill="#F7931E"/>
<path d="M36.5881 30.5172C36.5881 30.5172 36.397 29.2932 36.0442 29.5625C35.6914 29.8318 35.7759 30.7865 36.4779 31.0517" fill="#FFD9C0"/>
<path d="M35.122 28.5752C35.122 28.5752 34.8574 32.2471 35.2176 32.8958C35.5777 33.5445 36.7243 33.8219 37.4226 33.6302C38.1208 33.4384 36.5663 31.3454 36.7133 30.4112C36.8603 29.4769 37.0477 28.5752 37.0477 28.5752" fill="#F7931E"/>
<path d="M42.4243 43.7115C42.3287 43.3035 42.2479 42.9649 42.2074 42.6997C42.066 41.2089 41.9949 39.7109 41.9943 38.2118C41.9649 37.2163 41.873 33.4587 41.0866 33.0222C40.8787 32.8913 40.6438 32.8225 40.4049 32.8225C40.1659 32.8225 39.931 32.8913 39.7231 33.0222V35.6905C39.7231 35.6905 40.4398 41.0555 41.0057 44.6662C41.4871 44.3643 41.9612 44.0461 42.4243 43.7115Z" fill="#FFE8D9"/>
<path d="M36.3533 34.2504L37.2977 33.9852C37.3043 34.0343 37.3233 34.0804 37.3526 34.118C37.3819 34.1556 37.4202 34.1831 37.4631 34.1973C37.6933 34.2774 37.9411 34.269 38.1664 34.1735C38.3918 34.078 38.5816 33.901 38.7053 33.671C38.7095 33.6413 38.7095 33.611 38.7053 33.5813L39.4145 33.3813C39.3741 33.4956 40.5758 33.8301 40.517 35.0459C40.4582 36.2618 40.517 37.5551 39.7196 37.7305C39.1935 37.8378 38.6594 37.8884 38.1246 37.8815L36.6914 36.7146L36.1475 35.201L36.3533 34.2504Z" fill="#FFE8D9"/>
<path d="M34.8351 47.82C34.8167 47.9179 34.7984 48.0403 34.78 48.179C37.0034 46.9959 39.2525 45.8372 41.3693 44.4337C41.112 43.0996 40.9319 41.6063 41.3693 40.415C42.3872 37.5346 41.8911 37.7059 41.3693 35.8455C41.1598 35.1152 40.7372 33.0549 40.5865 32.8141C40.4358 32.5734 38.6939 32.8141 38.6939 32.8141C38.8639 32.9939 38.9968 33.2124 39.0834 33.4547C39.09 33.4869 39.09 33.5204 39.0834 33.5526H39.1055C39.1289 33.5678 39.15 33.5871 39.1679 33.6097V33.6097L39.19 33.6342L39.2378 33.7158L39.3113 33.83C39.3367 33.8022 39.3675 33.7812 39.4014 33.7685C39.4352 33.7559 39.4712 33.752 39.5067 33.7571C39.5421 33.7622 39.576 33.7762 39.6058 33.798C39.6356 33.8199 39.6606 33.8489 39.6788 33.8831C40.1455 34.8255 40.3219 36.739 39.2378 37.2735C38.9146 37.4007 38.5636 37.4125 38.2341 37.3071C37.9046 37.2018 37.613 36.9846 37.4003 36.686C37.1355 36.3134 36.9041 35.913 36.7094 35.4906C36.4737 35.1173 36.3455 34.6734 36.3419 34.2176C36.3441 34.1663 36.3594 34.1168 36.3861 34.0749C36.4128 34.033 36.4497 34.0004 36.4925 33.981C36.4631 33.9116 36.4301 33.8504 36.4007 33.7811C36.4002 33.7716 36.4002 33.762 36.4007 33.7525C35.5995 34.1809 34.6771 34.7562 34.3096 35.5395C33.7216 36.7961 35.5701 39.5745 35.8531 41.6267C36.1361 43.6789 35.096 46.5144 34.8351 47.82Z" fill="#603813"/>
<path d="M38.6644 32.8182C38.6644 32.8182 39.8662 33.7566 39.7118 34.1646C39.5575 34.5726 39.1936 35.3233 39.1936 35.3233L38.2712 34.3564C38.2712 34.3564 38.0581 35.7966 37.8523 35.7966C36.9997 35.7966 36.2904 34.1279 36.2463 33.9851C36.2022 33.8423 36.849 33.2058 36.849 33.2058C36.849 33.2058 37.4848 34.1646 38.1426 34.0014C38.8004 33.8382 38.6644 32.8182 38.6644 32.8182Z" fill="#F78B72"/>
<path d="M38.558 35.2948C38.6243 35.2948 38.6878 35.324 38.7347 35.3761C38.7816 35.4281 38.8079 35.4987 38.8079 35.5722C38.8079 35.6458 38.7816 35.7164 38.7347 35.7684C38.6878 35.8204 38.6243 35.8497 38.558 35.8497C38.4917 35.8497 38.4282 35.8204 38.3813 35.7684C38.3344 35.7164 38.3081 35.6458 38.3081 35.5722C38.3081 35.4987 38.3344 35.4281 38.3813 35.3761C38.4282 35.324 38.4917 35.2948 38.558 35.2948V35.2948Z" fill="#7896B5"/>
<path d="M38.7968 36.2861C38.8631 36.2861 38.9266 36.3154 38.9735 36.3674C39.0203 36.4194 39.0467 36.49 39.0467 36.5636C39.0467 36.6371 39.0203 36.7077 38.9735 36.7597C38.9266 36.8118 38.8631 36.841 38.7968 36.841C38.7305 36.841 38.6669 36.8118 38.6201 36.7597C38.5732 36.7077 38.5469 36.6371 38.5469 36.5636C38.5469 36.49 38.5732 36.4194 38.6201 36.3674C38.6669 36.3154 38.7305 36.2861 38.7968 36.2861Z" fill="#7896B5"/>
<path d="M38.3193 46.0372C38.345 46.0984 38.3781 46.1636 38.4075 46.2248C39.0212 45.8821 39.6313 45.5272 40.245 45.16C39.7158 44.344 39.1425 43.528 38.8448 43.0099C38.209 41.9002 35.9048 35.0051 34.5451 34.8705C34.2704 35.0134 34.037 35.2382 33.8709 35.52C33.7047 35.8017 33.6124 36.1291 33.6043 36.4657C33.5455 37.5591 34.4532 39.546 35.3021 40.9251C36.151 42.3041 37.8526 44.9927 38.3193 46.0372Z" fill="#FFE8D9"/>
<path d="M52.8209 57.6975C52.8209 57.6975 52.424 50.0559 53.8058 48.6605C55.1876 47.2652 59.0794 45.0988 59.8328 46.1473C60.5862 47.1959 60.4502 53.0464 60.4502 53.0464" fill="#FF6161"/>
<path d="M55.6025 45.3395L55.7495 47.4651C56.0413 47.5177 56.3404 47.4852 56.6174 47.3707C56.8945 47.2563 57.1399 47.0639 57.3298 46.8123" fill="#EDAF00"/>
<path d="M58.473 42.1938C58.5134 42.3448 58.9213 46.6328 57.3227 46.8245C55.7241 47.0163 55.7535 43.936 55.7461 42.9976C55.7388 42.0592 58.043 40.5782 58.473 42.1938Z" fill="#FFC40C"/>
<path d="M58.098 42.4917C58.098 42.4917 59.0682 42.1164 59.0351 41.3167C59.0021 40.517 58.7007 39.6847 57.8812 40.0356C57.8812 40.0356 56.6096 39.6276 55.8342 39.9989C55.0588 40.3702 55.2609 41.3861 55.2609 41.3861C55.0531 41.408 54.8528 41.4836 54.676 41.6069C54.4993 41.7302 54.351 41.8977 54.2429 42.096C53.9894 42.7243 54.6729 43.5035 54.6729 43.5035C54.5304 43.6678 54.4412 43.88 54.4192 44.1068C54.3973 44.3335 54.4439 44.5619 54.5516 44.7561C54.9191 45.4864 56.0216 45.6659 56.0216 45.6659C56.0216 45.6659 55.7828 42.8671 56.6133 42.9487C57.1404 42.986 57.6635 42.8251 58.098 42.4917V42.4917Z" fill="#545454"/>
<path d="M56.2534 44.4868C56.2534 44.4868 55.9521 43.6708 55.478 43.9319C55.0039 44.193 55.478 44.7479 55.9962 45.0702" fill="#FFC40C"/>
<path d="M55 51.9326C54.9571 51.9376 54.9173 51.9599 54.8882 51.9952C54.8591 52.0305 54.8426 52.0765 54.842 52.1244L54.7023 56.343C54.701 56.3756 54.7073 56.408 54.7205 56.4372C54.7336 56.4664 54.7533 56.4913 54.7776 56.5097C54.8019 56.5281 54.83 56.5393 54.8592 56.5422C54.8885 56.5452 54.918 56.5398 54.9449 56.5266C54.9596 54.9925 55 53.4626 55 51.9326Z" fill="#545454"/>
<path d="M59.3515 52.2305C59.3294 51.4635 59.2559 50.6964 59.1971 49.9294C59.0832 49.8519 58.9068 49.9049 58.9252 50.0885C59.0403 51.269 59.1163 52.4535 59.153 53.6421C59.1539 53.6726 59.1608 53.7024 59.1734 53.7294C59.186 53.7565 59.2038 53.7801 59.2257 53.7984C59.2475 53.8168 59.2728 53.8296 59.2996 53.8357C59.3265 53.8418 59.3542 53.8412 59.3809 53.8339C59.3515 53.3035 59.3698 52.7731 59.3515 52.2305Z" fill="#545454"/>
<defs>
<linearGradient id="paint0_linear_109_653" x1="51.0051" y1="68.6397" x2="34.1132" y2="77.2535" gradientUnits="userSpaceOnUse">
<stop stop-color="#D46A00"/>
<stop offset="1" stop-color="white"/>
</linearGradient>
<linearGradient id="paint1_linear_109_653" x1="134.979" y1="73.042" x2="127.87" y2="80.3455" gradientUnits="userSpaceOnUse">
<stop stop-color="#D46A00"/>
<stop offset="1" stop-color="white"/>
</linearGradient>
<linearGradient id="paint2_linear_109_653" x1="89.5784" y1="97.3704" x2="67.4759" y2="108.098" gradientUnits="userSpaceOnUse">
<stop stop-color="#8C6239"/>
<stop offset="1" stop-color="white"/>
</linearGradient>
</defs>
</svg>
