<svg width="147" height="123" viewBox="0 0 147 123" fill="none" xmlns="http://www.w3.org/2000/svg">
<path opacity="0.3" d="M49.6124 21.623C38.6352 25.4377 20.058 31.7167 17.0225 47.9955C14.7513 60.1821 15.8024 92.0095 36.5 99.7857C64.3418 110.255 112.359 105.155 122.745 81.6751C129.415 66.6039 131.197 36.2046 110.775 27.1105C96.939 20.9498 73.1875 13.455 49.6124 21.623Z" fill="#E6E6E6"/>
<path d="M71.5304 38.9504H69.5532V57.0407H71.5304V38.9504Z" fill="#E6E6E6"/>
<path d="M105.283 35.8358L98.8193 50.2657L100.59 51.2431L107.053 36.8132L105.283 35.8358Z" fill="#E6E6E6"/>
<path d="M77.4796 72.0467L76.2246 73.7428L92.6188 88.6928L93.8737 86.9966L77.4796 72.0467Z" fill="#E6E6E6"/>
<path d="M94.7634 88.3458C94.8502 88.1992 94.8997 88.0294 94.9069 87.8542C94.914 87.679 94.8784 87.5049 94.8039 87.3503L93.0362 88.3295C92.5805 87.3176 93.4037 86.62 95.3588 84.9309C96.5017 83.9517 98.1114 82.6298 100.136 81.006C103.587 78.2439 107.119 75.5267 107.152 75.4982L108.28 77.3015C103.076 81.3161 95.4396 87.3952 94.7634 88.3458Z" fill="#E6E6E6"/>
<path d="M78.6448 64.7966L77.9502 62.7403L98.8315 54.0093L123.09 52.6548L123.193 54.8498L99.2395 56.188L78.6448 64.7966Z" fill="#E6E6E6"/>
<path d="M60.6706 74.3477L45.1846 85.1449L46.2361 87.0037L61.7222 76.2065L60.6706 74.3477Z" fill="#E6E6E6"/>
<path d="M52.1724 50.7976L50.6914 52.2517L60.4543 64.5068L61.9354 63.0527L52.1724 50.7976Z" fill="#E6E6E6"/>
<path d="M25.5852 67.6565L24.626 65.7349L43.3611 54.2092L23.1597 37.2123L24.354 35.462L46.9773 54.4948L25.5852 67.6565Z" fill="#E6E6E6"/>
<path d="M82.5294 67.42C82.5305 65.0427 82.0066 62.7014 81.0036 60.601C80.0005 58.5007 78.5489 56.7054 76.7758 55.3724C75.0028 54.0394 72.9624 53.2094 70.8333 52.955C68.7043 52.7006 66.5515 53.0296 64.5636 53.9131C62.5756 54.7967 60.8131 56.2079 59.4304 58.0232C58.0478 59.8385 57.0871 62.0024 56.6325 64.3255C56.1779 66.6486 56.2433 69.06 56.823 71.3485C57.4027 73.637 58.479 75.7329 59.9575 77.4525C61.8147 79.6508 62.8397 82.5576 62.8204 85.5715V86.0692H75.7821V85.702C75.8073 82.6451 76.9025 79.7189 78.836 77.5422C81.2104 74.8329 82.5359 71.2 82.5294 67.42V67.42Z" fill="#FFD200"/>
<path d="M65.9147 86.1058C65.8089 86.1062 65.7063 86.0656 65.6245 85.9912C65.5427 85.9167 65.4868 85.813 65.4663 85.6978L62.7284 67.3016C62.7185 67.2359 62.7204 67.1688 62.7339 67.1039C62.7474 67.0391 62.7722 66.9778 62.807 66.9237C62.8418 66.8695 62.8859 66.8235 62.9367 66.7882C62.9876 66.7529 63.0442 66.7291 63.1033 66.7181C63.1624 66.7071 63.2229 66.7092 63.2813 66.7242C63.3397 66.7391 63.3949 66.7667 63.4437 66.8054C63.4925 66.844 63.5339 66.893 63.5657 66.9494C63.5975 67.0058 63.6189 67.0686 63.6288 67.1343L66.3667 85.5306C66.386 85.6618 66.3585 85.7963 66.2898 85.9052C66.2211 86.0142 66.1169 86.0891 65.9992 86.114L65.9147 86.1058Z" fill="white"/>
<path d="M72.7652 86.1059H72.688C72.5703 86.0811 72.466 86.0062 72.3974 85.8972C72.3287 85.7882 72.3011 85.6538 72.3205 85.5225L75.0584 67.1262C75.0784 66.9937 75.1449 66.8754 75.2435 66.7973C75.3421 66.7193 75.4645 66.6879 75.5839 66.7101C75.7033 66.7323 75.8099 66.8062 75.8802 66.9156C75.9505 67.025 75.9787 67.1609 75.9587 67.2935L73.2209 85.6898C73.2017 85.8079 73.1454 85.9146 73.0619 85.9908C72.9784 86.067 72.8732 86.1078 72.7652 86.1059Z" fill="white"/>
<path d="M76.8477 83.8374H62.0117V96.84H76.8477V83.8374Z" fill="#24285B"/>
<path d="M70.7766 71.0185C70.1997 71.0185 69.6411 70.635 69.1119 69.872C68.8987 69.5619 68.6892 69.4191 68.4945 69.4355C68.0535 69.4803 67.5537 70.2718 67.392 70.6594C67.3369 70.779 67.2413 70.8694 67.1262 70.9107C67.0111 70.952 66.8859 70.9409 66.7782 70.8798C66.6705 70.8186 66.5891 70.7125 66.5519 70.5847C66.5147 70.4569 66.5247 70.318 66.5798 70.1984C66.657 70.0311 67.3662 68.542 68.4173 68.4359C68.6988 68.4191 68.9793 68.4858 69.2299 68.6292C69.4805 68.7726 69.6922 68.9876 69.8432 69.2519C70.0968 69.615 70.4753 70.0434 70.8391 69.9985C71.2617 69.9495 71.6329 69.3049 71.7285 69.0846C71.7829 68.9686 71.8757 68.8806 71.9874 68.8389C72.0991 68.7973 72.221 68.8053 72.3275 68.8612C72.4339 68.9172 72.5168 69.0167 72.5586 69.139C72.6004 69.2613 72.5979 69.3968 72.5517 69.5171C72.4929 69.6558 71.9416 70.8879 70.9383 71.0062L70.7766 71.0185Z" fill="white"/>
<path opacity="0.21" d="M77.7495 61.2324C78.4479 59.4441 77.343 57.1901 75.2816 56.1979C73.2202 55.2057 70.9829 55.851 70.2845 57.6392C69.5862 59.4274 70.6911 61.6814 72.7525 62.6737C74.8139 63.6659 77.0512 63.0206 77.7495 61.2324Z" fill="white"/>
<path d="M64.4521 96.8401H74.4151C74.4151 97.5061 74.2969 98.1655 74.0674 98.7808C73.8378 99.3961 73.5013 99.9551 73.0771 100.426C72.6529 100.897 72.1494 101.271 71.5952 101.525C71.0409 101.78 70.4469 101.911 69.847 101.911H69.0202C67.8087 101.911 66.6468 101.377 65.7901 100.426C64.9334 99.475 64.4521 98.1851 64.4521 96.8401V96.8401Z" fill="#24285B"/>
<path d="M51.0273 42.8385H39.3151C37.7523 42.8385 36.4854 44.245 36.4854 45.98V58.9827C36.4854 60.7177 37.7523 62.1242 39.3151 62.1242H51.0273C52.5902 62.1242 53.8571 60.7177 53.8571 58.9827V45.98C53.8571 44.245 52.5902 42.8385 51.0273 42.8385Z" fill="#FF8B08"/>
<path d="M104.892 46.437H93.1798C91.617 46.437 90.3501 47.8435 90.3501 49.5785V62.5812C90.3501 64.3162 91.617 65.7227 93.1798 65.7227H104.892C106.455 65.7227 107.722 64.3162 107.722 62.5812V49.5785C107.722 47.8435 106.455 46.437 104.892 46.437Z" fill="#FF8B08"/>
<path opacity="0.09" d="M104.892 46.437H93.1798C91.617 46.437 90.3501 47.8435 90.3501 49.5785V62.5812C90.3501 64.3162 91.617 65.7227 93.1798 65.7227H104.892C106.455 65.7227 107.722 64.3162 107.722 62.5812V49.5785C107.722 47.8435 106.455 46.437 104.892 46.437Z" fill="black"/>
<path d="M48.602 75.2819H36.8898C35.327 75.2819 34.0601 76.6884 34.0601 78.4234V91.426C34.0601 93.1611 35.327 94.5676 36.8898 94.5676H48.602C50.1649 94.5676 51.4318 93.1611 51.4318 91.426V78.4234C51.4318 76.6884 50.1649 75.2819 48.602 75.2819Z" fill="#FF8B08"/>
<path opacity="0.6" d="M48.602 75.2819H36.8898C35.327 75.2819 34.0601 76.6884 34.0601 78.4234V91.426C34.0601 93.1611 35.327 94.5676 36.8898 94.5676H48.602C50.1649 94.5676 51.4318 93.1611 51.4318 91.426V78.4234C51.4318 76.6884 50.1649 75.2819 48.602 75.2819Z" fill="white"/>
<path d="M98.2215 80.7571H89.6184C88.4716 80.7571 87.542 81.7891 87.542 83.0622V92.6133C87.542 93.8864 88.4716 94.9184 89.6184 94.9184H98.2215C99.3683 94.9184 100.298 93.8864 100.298 92.6133V83.0622C100.298 81.7891 99.3683 80.7571 98.2215 80.7571Z" fill="#FF8B08"/>
<path d="M76.2785 26.8943H64.8088C63.2805 26.8943 62.0415 28.2697 62.0415 29.9665V42.6998C62.0415 44.3965 63.2805 45.772 64.8088 45.772H76.2785C77.8068 45.772 79.0457 44.3965 79.0457 42.6998V29.9665C79.0457 28.2697 77.8068 26.8943 76.2785 26.8943Z" fill="#FF8B08"/>
<path opacity="0.46" d="M76.2785 26.8943H64.8088C63.2805 26.8943 62.0415 28.2697 62.0415 29.9665V42.6998C62.0415 44.3965 63.2805 45.772 64.8088 45.772H76.2785C77.8068 45.772 79.0457 44.3965 79.0457 42.6998V29.9665C79.0457 28.2697 77.8068 26.8943 76.2785 26.8943Z" fill="white"/>
<path d="M27.1987 29.942H20.0215C19.0655 29.942 18.2905 30.8024 18.2905 31.8637V39.8317C18.2905 40.893 19.0655 41.7533 20.0215 41.7533H27.1987C28.1547 41.7533 28.9297 40.893 28.9297 39.8317V31.8637C28.9297 30.8024 28.1547 29.942 27.1987 29.942Z" fill="#FF8B08"/>
<path opacity="0.46" d="M27.1987 29.942H20.0215C19.0655 29.942 18.2905 30.8024 18.2905 31.8637V39.8317C18.2905 40.893 19.0655 41.7533 20.0215 41.7533H27.1987C28.1547 41.7533 28.9297 40.893 28.9297 39.8317V31.8637C28.9297 30.8024 28.1547 29.942 27.1987 29.942Z" fill="white"/>
<path d="M27.522 62.7117H22.6857C22.0403 62.7117 21.5171 63.2925 21.5171 64.0091V69.3782C21.5171 70.0948 22.0403 70.6756 22.6857 70.6756H27.522C28.1675 70.6756 28.6907 70.0948 28.6907 69.3782V64.0091C28.6907 63.2925 28.1675 62.7117 27.522 62.7117Z" fill="#FF8B08"/>
<path opacity="0.09" d="M27.522 62.7117H22.6857C22.0403 62.7117 21.5171 63.2925 21.5171 64.0091V69.3782C21.5171 70.0948 22.0403 70.6756 22.6857 70.6756H27.522C28.1675 70.6756 28.6907 70.0948 28.6907 69.3782V64.0091C28.6907 63.2925 28.1675 62.7117 27.522 62.7117Z" fill="black"/>
<path d="M109.346 71.2999H104.509C103.864 71.2999 103.341 71.8808 103.341 72.5973V77.9665C103.341 78.683 103.864 79.2639 104.509 79.2639H109.346C109.991 79.2639 110.514 78.683 110.514 77.9665V72.5973C110.514 71.8808 109.991 71.2999 109.346 71.2999Z" fill="#FF8B08"/>
<path opacity="0.6" d="M109.346 71.2999H104.509C103.864 71.2999 103.341 71.8808 103.341 72.5973V77.9665C103.341 78.683 103.864 79.2639 104.509 79.2639H109.346C109.991 79.2639 110.514 78.683 110.514 77.9665V72.5973C110.514 71.8808 109.991 71.2999 109.346 71.2999Z" fill="white"/>
<path d="M107.361 32.3531H102.525C101.88 32.3531 101.356 32.934 101.356 33.6506V39.0197C101.356 39.7362 101.88 40.3171 102.525 40.3171H107.361C108.007 40.3171 108.53 39.7362 108.53 39.0197V33.6506C108.53 32.934 108.007 32.3531 107.361 32.3531Z" fill="#FF8B08"/>
<path opacity="0.6" d="M107.361 32.3531H102.525C101.88 32.3531 101.356 32.934 101.356 33.6506V39.0197C101.356 39.7362 101.88 40.3171 102.525 40.3171H107.361C108.007 40.3171 108.53 39.7362 108.53 39.0197V33.6506C108.53 32.934 108.007 32.3531 107.361 32.3531Z" fill="white"/>
<path d="M126.714 46.082H118.456C117.354 46.082 116.461 47.0739 116.461 48.2974V57.465C116.461 58.6885 117.354 59.6803 118.456 59.6803H126.714C127.816 59.6803 128.71 58.6885 128.71 57.465V48.2974C128.71 47.0739 127.816 46.082 126.714 46.082Z" fill="#FF8B08"/>
<path d="M55.2683 27.1309H46.9775V36.3351H55.2683V27.1309Z" fill="#E6E6E6"/>
<path d="M93.8744 34.1239H87.7041V39.2115H93.8744V34.1239Z" fill="#E6E6E6"/>
</svg>
