<svg width="400" height="300" viewBox="0 0 400 300" fill="none" xmlns="http://www.w3.org/2000/svg">
<path d="M194.28 291.14L14.5602 184.93C8.84016 181.71 3.93015 176.44 9.51015 173L189.88 69C192.59 67.32 196.7 66.22 199.45 67.82L388.11 177.34C393.83 180.66 394.86 189.94 389.11 193.27L218 291C214.401 293.086 210.319 294.196 206.159 294.22C201.999 294.245 197.904 293.183 194.28 291.14Z" fill="#096EA6"/>
<path d="M324.8 221.48C329.069 221.48 332.53 219.855 332.53 217.85C332.53 215.845 329.069 214.22 324.8 214.22C320.531 214.22 317.07 215.845 317.07 217.85C317.07 219.855 320.531 221.48 324.8 221.48Z" fill="#484887"/>
<path d="M332.53 213.24V217.85H317.07V213.24" fill="#484887"/>
<path d="M324.8 216.87C329.069 216.87 332.53 215.245 332.53 213.24C332.53 211.235 329.069 209.61 324.8 209.61C320.531 209.61 317.07 211.235 317.07 213.24C317.07 215.245 320.531 216.87 324.8 216.87Z" fill="#6969BC"/>
<path d="M326.81 146.42V211.61C326.81 211.61 325.1 214.55 322.81 211.61V144.22C322.81 144.22 323.15 142.31 326.81 146.42Z" fill="#484887"/>
<path d="M249.01 181.59C253.279 181.59 256.74 179.965 256.74 177.96C256.74 175.955 253.279 174.33 249.01 174.33C244.741 174.33 241.28 175.955 241.28 177.96C241.28 179.965 244.741 181.59 249.01 181.59Z" fill="#484887"/>
<path d="M256.75 173.34V177.96H241.28V173.34" fill="#484887"/>
<path d="M249.01 176.97C253.279 176.97 256.74 175.345 256.74 173.34C256.74 171.335 253.279 169.71 249.01 169.71C244.741 169.71 241.28 171.335 241.28 173.34C241.28 175.345 244.741 176.97 249.01 176.97Z" fill="#6969BC"/>
<path d="M251 106.53V171.72C251 171.72 249.29 174.66 247 171.72V104.33C247 104.33 247.36 102.42 251 106.53Z" fill="#484887"/>
<path d="M336.66 91.49L243.55 38.8C242.802 38.3766 241.957 38.1567 241.098 38.1623C240.238 38.168 239.396 38.3989 238.654 38.8321C237.912 39.2653 237.297 39.8856 236.87 40.631C236.442 41.3765 236.218 42.2209 236.22 43.08V100.3C236.218 101.17 236.448 102.025 236.886 102.777C237.323 103.529 237.953 104.151 238.71 104.58L331.82 157.27C332.567 157.693 333.413 157.913 334.272 157.908C335.131 157.902 335.974 157.671 336.716 157.238C337.457 156.805 338.073 156.184 338.5 155.439C338.927 154.694 339.151 153.849 339.15 152.99V95.76C339.149 94.8917 338.919 94.039 338.481 93.2888C338.044 92.5387 337.415 91.918 336.66 91.49Z" fill="#B4CE0B"/>
<path d="M249 98C249 98 255.88 71.72 268 78.59C280.12 85.46 274.39 112.93 282.92 112.46C291.45 111.99 301.16 94.46 308.5 98.03C315.84 101.6 315.61 133.45 324.84 138.45" fill="white"/>
<path d="M249.79 63.39L259.68 93.81L277.85 81.69L285.6 107.95L299.5 100.83L310.8 122.79L327.22 122.33" stroke="#42210B" stroke-width="0.75" stroke-miterlimit="10"/>
<path d="M327.622 125.627C328.773 125.485 329.525 123.899 329.302 122.085C329.078 120.271 327.964 118.915 326.813 119.056C325.662 119.198 324.91 120.784 325.133 122.598C325.356 124.413 326.471 125.768 327.622 125.627Z" fill="#89562C"/>
<path d="M250.189 66.6818C251.34 66.54 252.092 64.9543 251.869 63.1399C251.646 61.3256 250.531 59.9696 249.38 60.1114C248.229 60.2531 247.477 61.8389 247.7 63.6532C247.924 65.4676 249.038 66.8235 250.189 66.6818Z" fill="#89562C"/>
<path d="M76.4502 116.13C76.5202 116.28 76.9002 117.7 77.2002 117.4C77.5002 117.1 79.0702 117.78 79.0702 117.78L83.4502 112.21L82.8702 110.39H78.9202" fill="#B4CE0B"/>
<path d="M97.5998 92.14L97.9998 90.69L102.6 88.18V80.34C102.6 80.19 98.1498 82.96 98.1498 82.96L97.9998 82.52C97.7508 81.32 97.2939 80.1727 96.6498 79.13L99.8898 73.13L95.7299 70L92.6498 76.17C91.5288 75.9102 90.361 75.9308 89.2498 76.23V70.33L83.3398 73.6V79.8C82.1842 80.9077 81.1331 82.1195 80.1998 83.42L76.6498 81.15L72.6498 88.78L75.8298 91.31L75.5598 92.59C75.1436 93.9419 74.8096 95.3177 74.5598 96.71L69.8398 99.31V107.12L74.3398 104.44C74.5343 105.861 75.0285 107.224 75.7898 108.44L72.4198 114.16L76.6898 117.39L79.6898 111.5H83.4198V117.39L88.9998 114V108.21C90.2893 106.947 91.427 105.537 92.3898 104.01L95.7698 106.32L99.8498 98.53L96.4998 96L96.8298 94.83C97.1298 93.92 97.3898 93 97.5998 92.14Z" fill="#B4CE0B"/>
<path d="M108.28 83.6L103.07 80.45L101.77 82.38L103.79 86.59" fill="#B4CE0B"/>
<path d="M101.47 109.56L97.6104 107.96V105.63" fill="#B4CE0B"/>
<path d="M89.0702 120.66L83.4102 117.4L84.8502 113.12L89.9402 114.61L89.0702 120.66Z" fill="#B4CE0B"/>
<path d="M95.7296 70.01L101.39 73.27L98.2796 79.46L94.8896 79.52L94.0996 73.27L95.7296 70.01Z" fill="#B4CE0B"/>
<path d="M94.6324 97.9419C95.519 95.6853 95.1752 93.4385 93.8644 92.9235C92.5536 92.4085 90.7723 93.8203 89.8856 96.0769C88.999 98.3335 89.3429 100.58 90.6536 101.095C91.9644 101.61 93.7458 100.199 94.6324 97.9419Z" fill="#B4CE0B"/>
<path d="M83.3398 73.6L88.9998 76.86L94.8898 73.59L89.2198 70.33L83.3398 73.6Z" fill="#B4CE0B"/>
<path d="M82.2999 84.41L76.6399 81.14L72.6299 88.78L78.2899 92.04L82.2999 84.41Z" fill="#B4CE0B"/>
<path d="M72.4102 114.17L78.0702 117.43L82.3401 120.66L76.6802 117.4L72.4102 114.17Z" fill="#B4CE0B"/>
<path opacity="0.44" d="M76.4502 116.13C76.5202 116.28 76.9002 117.7 77.2002 117.4C77.5002 117.1 79.0702 117.78 79.0702 117.78L83.4502 112.21L82.8702 110.39H78.9202" fill="#053855"/>
<path d="M97.5998 92.14L97.9998 90.69L102.6 88.18V80.34C102.6 80.19 98.1498 82.96 98.1498 82.96L97.9998 82.52C97.7508 81.32 97.2939 80.1727 96.6498 79.13L99.8898 73.13L95.7299 70L92.6498 76.17C91.5288 75.9102 90.361 75.9308 89.2498 76.23V70.33L83.3398 73.6V79.8C82.1842 80.9077 81.1331 82.1195 80.1998 83.42L76.6498 81.15L72.6498 88.78L75.8298 91.31L75.5598 92.59C75.1436 93.9419 74.8096 95.3177 74.5598 96.71L69.8398 99.31V107.12L74.3398 104.44C74.5343 105.861 75.0285 107.224 75.7898 108.44L72.4198 114.16L76.6898 117.39L79.6898 111.5H83.4198V117.39L88.9998 114V108.21C90.2893 106.947 91.427 105.537 92.3898 104.01L95.7698 106.32L99.8498 98.53L96.4998 96L96.8298 94.83C97.1298 93.92 97.3898 93 97.5998 92.14Z" fill="#B4CE0B"/>
<path opacity="0.44" d="M108.28 83.6L103.07 80.45L101.77 82.38L103.79 86.59" fill="#053855"/>
<path d="M101.47 109.56L97.6104 107.96V105.63" fill="#B4CE0B"/>
<path d="M89.0702 120.66L83.4102 117.4L84.8502 113.12L89.9402 114.61L89.0702 120.66Z" fill="#B4CE0B"/>
<path d="M95.7296 70.01L101.39 73.27L98.2796 79.46L94.8896 79.52L94.0996 73.27L95.7296 70.01Z" fill="#B4CE0B"/>
<path d="M94.6324 97.9419C95.519 95.6853 95.1752 93.4385 93.8644 92.9235C92.5536 92.4085 90.7723 93.8203 89.8856 96.0769C88.999 98.3335 89.3429 100.58 90.6536 101.095C91.9644 101.61 93.7458 100.199 94.6324 97.9419Z" fill="#B4CE0B"/>
<path d="M82.2999 84.41L76.6399 81.14L72.6299 88.78L78.2899 92.04L82.2999 84.41Z" fill="#B4CE0B"/>
<path d="M72.4102 114.17L78.0702 117.43L82.3401 120.66L76.6802 117.4L72.4102 114.17Z" fill="#B4CE0B"/>
<path opacity="0.44" d="M97.5998 92.14L97.9998 90.69L102.6 88.18V80.34C102.6 80.19 98.1498 82.96 98.1498 82.96L97.9998 82.52C97.7508 81.32 97.2939 80.1727 96.6498 79.13L99.8898 73.13L95.7299 70L92.6498 76.17C91.5288 75.9102 90.361 75.9308 89.2498 76.23V70.33L83.3398 73.6V79.8C82.1842 80.9077 81.1331 82.1195 80.1998 83.42L76.6498 81.15L72.6498 88.78L75.8298 91.31L75.5598 92.59C75.1436 93.9419 74.8096 95.3177 74.5598 96.71L69.8398 99.31V107.12L74.3398 104.44C74.5343 105.861 75.0285 107.224 75.7898 108.44L72.4198 114.16L76.6898 117.39L79.6898 111.5H83.4198V117.39L88.9998 114V108.21C90.2893 106.947 91.427 105.537 92.3898 104.01L95.7698 106.32L99.8498 98.53L96.4998 96L96.8298 94.83C97.1298 93.92 97.3898 93 97.5998 92.14Z" fill="#053855"/>
<path opacity="0.1" d="M101.47 109.56L97.6104 107.96V105.63" fill="#053855"/>
<path opacity="0.1" d="M89.0702 120.66L83.4102 117.4L84.8502 113.12L89.9402 114.61L89.0702 120.66Z" fill="#053855"/>
<path opacity="0.1" d="M94.6324 97.9419C95.519 95.6853 95.1752 93.4385 93.8644 92.9235C92.5536 92.4085 90.7723 93.8203 89.8856 96.0769C88.999 98.3335 89.3429 100.58 90.6536 101.095C91.9644 101.61 93.7458 100.199 94.6324 97.9419Z" fill="#053855"/>
<path opacity="0.1" d="M82.2999 84.41L76.6399 81.14L72.6299 88.78L78.2899 92.04L82.2999 84.41Z" fill="#053855"/>
<path opacity="0.1" d="M72.4102 114.17L78.0702 117.43L82.3401 120.66L76.6802 117.4L72.4102 114.17Z" fill="#053855"/>
<path opacity="0.1" d="M101.47 109.56L97.6104 107.96V105.63" fill="#053855"/>
<path opacity="0.44" d="M89.0702 120.66L83.4102 117.4L84.8502 113.12L89.9402 114.61L89.0702 120.66Z" fill="#053855"/>
<path d="M103.26 95.4L103.67 93.95L108.27 91.44V83.6C108.27 83.45 103.82 86.22 103.82 86.22L103.61 85.78C103.361 84.58 102.904 83.4327 102.26 82.39L105.5 76.39L101.38 73.26L98.3002 79.43C97.1792 79.1702 96.0114 79.1908 94.9002 79.49V73.59L89.0002 76.86V83.06C87.8446 84.1677 86.7935 85.3795 85.8602 86.68L82.3002 84.41L78.3002 92.04L81.4802 94.57L81.2102 95.85C80.794 97.2019 80.46 98.5777 80.2102 99.97L75.4902 102.57V110.38L80.0002 107.7C80.1947 109.121 80.6889 110.484 81.4502 111.7L78.0802 117.42L82.3502 120.65L85.3502 114.76H89.0802V120.65L94.7002 117.22V111.43C95.9897 110.167 97.1273 108.757 98.0902 107.23L101.47 109.54L105.55 101.75L102.16 99.25L102.49 98.08C102.79 97.19 103.05 96.29 103.26 95.4Z" fill="#B4CE0B"/>
<path opacity="0.44" d="M94.6324 97.9419C95.519 95.6853 95.1752 93.4385 93.8644 92.9235C92.5536 92.4085 90.7723 93.8203 89.8856 96.0769C88.999 98.3335 89.3429 100.58 90.6536 101.095C91.9644 101.61 93.7458 100.199 94.6324 97.9419Z" fill="#053855"/>
<path opacity="0.44" d="M72.4102 114.17L78.0702 117.43L82.3401 120.66L76.6802 117.4L72.4102 114.17Z" fill="#053855"/>
<path d="M83.3398 73.6L88.9998 76.86L94.8898 73.59L89.2198 70.33L83.3398 73.6Z" fill="#B4CE0B"/>
<path opacity="0.44" d="M83.3398 73.58L88.9799 76.86L94.8898 73.62L89.2398 70.33L83.3398 73.58Z" fill="#053855"/>
<path d="M69.8301 99.3101L75.4901 102.58V110.39L69.8301 107.12V99.3101Z" fill="#B4CE0B"/>
<path opacity="0.44" d="M69.8301 99.3101L75.4901 102.58V110.39L69.8301 107.12V99.3101Z" fill="#053855"/>
<path d="M181.59 13.0001L180.86 103.36C180.852 104.317 181.095 105.259 181.565 106.093C182.036 106.926 182.716 107.622 183.54 108.11L224.01 132.11C224.511 132.412 225.084 132.574 225.669 132.581C226.254 132.589 226.831 132.44 227.339 132.151C227.848 131.862 228.271 131.443 228.565 130.937C228.858 130.43 229.012 129.855 229.01 129.27V38.0701C229.01 37.0919 228.754 36.1309 228.266 35.2831C227.778 34.4354 227.076 33.7309 226.23 33.2401L186.56 10.2401C186.065 9.94934 185.502 9.79279 184.928 9.78588C184.354 9.77897 183.788 9.92194 183.286 10.2007C182.784 10.4794 182.364 10.8842 182.066 11.3751C181.769 11.8661 181.604 12.4262 181.59 13.0001Z" fill="#B4CE0B"/>
<path d="M219.13 74.54V109.28L211.93 105.07L211.86 70.34L219.13 74.54Z" fill="#5FAD00"/>
<path d="M207.03 61.71L207.16 102.54L199.61 98.16V57.52L207.03 61.71Z" fill="#B4CE0B"/>
<path d="M194.84 50.67L194.96 95.72L188.24 91.82V46.65L194.84 50.67Z" fill="white"/>
<path d="M218.5 113.54C218.506 113.835 218.432 114.126 218.287 114.382C218.143 114.639 217.932 114.853 217.678 115.002C217.423 115.15 217.134 115.229 216.839 115.228C216.544 115.228 216.255 115.149 216 115L185.07 97.35C184.816 97.2053 184.604 96.996 184.457 96.7431C184.309 96.4902 184.231 96.2027 184.23 95.91C184.231 95.6198 184.308 95.3349 184.453 95.0836C184.598 94.8323 184.806 94.6234 185.057 94.4777C185.308 94.3321 185.593 94.2547 185.883 94.2533C186.173 94.2519 186.458 94.3266 186.71 94.47L217.66 112.1C217.915 112.245 218.127 112.454 218.274 112.707C218.422 112.96 218.5 113.247 218.5 113.54Z" fill="#FFE427"/>
<path d="M225.24 45.73V58.26C225.239 58.5686 225.157 58.8716 225.003 59.1385C224.848 59.4055 224.626 59.6271 224.358 59.7811C224.091 59.935 223.787 60.016 223.479 60.0158C223.17 60.0156 222.867 59.9343 222.6 59.78L188.55 40.11C188.283 39.9559 188.061 39.7344 187.907 39.4676C187.752 39.2009 187.671 38.8982 187.67 38.59V26.07C187.671 25.7614 187.753 25.4584 187.907 25.1915C188.062 24.9245 188.284 24.7029 188.552 24.549C188.819 24.395 189.122 24.314 189.431 24.3142C189.74 24.3144 190.043 24.3957 190.31 24.55L224.37 44.21C224.635 44.3654 224.855 44.5874 225.007 44.8541C225.16 45.1208 225.24 45.4228 225.24 45.73Z" fill="#FFE427"/>
<path d="M219.299 54.1514C221.636 53.4095 222.779 50.4397 221.852 47.5182C220.925 44.5966 218.278 42.8297 215.941 43.5715C213.604 44.3134 212.461 47.2832 213.388 50.2047C214.315 53.1262 216.962 54.8932 219.299 54.1514Z" fill="white"/>
<path d="M212.24 41.1301L192.32 30.0001C191.48 29.5301 190.72 30.8201 191.56 31.3001L211.47 42.4501C212.31 42.9201 213.07 41.6301 212.23 41.1501L212.24 41.1301Z" fill="#7F47DD"/>
<path d="M211.49 46L199.12 39.07C198.28 38.6 197.52 39.89 198.36 40.37L210.73 47.3C211.57 47.77 212.33 46.48 211.49 46Z" fill="#7F47DD"/>
<path d="M107.39 69.31C107.45 69.43 107.75 70.55 107.98 70.31C108.21 70.07 109.46 70.61 109.46 70.61L112.94 66.19L112.48 64.75H109.35" fill="#B4CE0B"/>
<path d="M124.19 50.2501L124.52 49.1001L128.18 47.1001V40.8801C128.18 40.7601 124.64 42.9601 124.64 42.9601L124.47 42.6101C124.272 41.658 123.91 40.7477 123.4 39.9201L126 35.1701L122.73 32.6801L120.28 37.5801C119.394 37.3586 118.466 37.3586 117.58 37.5801V32.9301L112.9 35.5201V40.4401C111.98 41.3211 111.143 42.2852 110.4 43.3201L107.58 41.5201L104.39 47.5801L106.91 49.5801L106.69 50.5801C106.364 51.6566 106.103 52.7519 105.91 53.8601L102.13 56.0001V62.2001L105.71 60.0001C105.862 61.1299 106.254 62.2141 106.86 63.1801L104.18 67.7301L107.57 70.3001L110 65.6401H113V70.3201L117.46 67.6001V63.0001C118.483 61.9951 119.386 60.8742 120.15 59.6601L122.84 61.5001L126 55.3101L123.31 53.3101L123.58 52.3801C123.82 51.6701 124 51.0001 124.19 50.2501Z" fill="#B4CE0B"/>
<path d="M132.67 43.47L128.54 40.97L127.5 42.5L129.1 45.85" fill="#B4CE0B"/>
<path d="M127.26 64.09L124.2 62.82V60.97" fill="#B4CE0B"/>
<path d="M117.42 72.91L112.92 70.32L114.06 66.92L118.11 68.11L117.42 72.91Z" fill="#B4CE0B"/>
<path d="M122.71 32.6801L127.2 35.2701L124.73 40.1901L122.04 40.2301L121.41 35.2701L122.71 32.6801Z" fill="#B4CE0B"/>
<path d="M121.834 54.8652C122.539 53.0712 122.265 51.2846 121.221 50.8746C120.178 50.4646 118.76 51.5865 118.056 53.3805C117.351 55.1745 117.625 56.9611 118.669 57.3711C119.712 57.7811 121.129 56.6592 121.834 54.8652Z" fill="#B4CE0B"/>
<path d="M112.86 35.5301L117.36 38.1201L122.04 35.5301L117.54 32.9301L112.86 35.5301Z" fill="#B4CE0B"/>
<path d="M112.04 44.12L107.55 41.52L104.36 47.59L108.86 50.18L112.04 44.12Z" fill="#B4CE0B"/>
<path d="M104.18 67.75L108.68 70.34L112.07 72.91L107.58 70.32L104.18 67.75Z" fill="#B4CE0B"/>
<path opacity="0.44" d="M107.39 69.31C107.45 69.43 107.75 70.55 107.98 70.31C108.21 70.07 109.46 70.61 109.46 70.61L112.94 66.19L112.48 64.75H109.35" fill="#053855"/>
<path d="M124.19 50.2501L124.52 49.1001L128.18 47.1001V40.8801C128.18 40.7601 124.64 42.9601 124.64 42.9601L124.47 42.6101C124.272 41.658 123.91 40.7477 123.4 39.9201L126 35.1701L122.73 32.6801L120.28 37.5801C119.394 37.3586 118.466 37.3586 117.58 37.5801V32.9301L112.9 35.5201V40.4401C111.98 41.3211 111.143 42.2852 110.4 43.3201L107.58 41.5201L104.39 47.5801L106.91 49.5801L106.69 50.5801C106.364 51.6566 106.103 52.7519 105.91 53.8601L102.13 56.0001V62.2001L105.71 60.0001C105.862 61.1299 106.254 62.2141 106.86 63.1801L104.18 67.7301L107.57 70.3001L110 65.6401H113V70.3201L117.46 67.6001V63.0001C118.483 61.9951 119.386 60.8742 120.15 59.6601L122.84 61.5001L126 55.3101L123.31 53.3101L123.58 52.3801C123.82 51.6701 124 51.0001 124.19 50.2501Z" fill="#B4CE0B"/>
<path opacity="0.44" d="M132.67 43.47L128.54 40.97L127.5 42.5L129.1 45.85" fill="#053855"/>
<path d="M127.26 64.09L124.2 62.82V60.97" fill="#B4CE0B"/>
<path d="M117.42 72.91L112.92 70.32L114.06 66.92L118.11 68.11L117.42 72.91Z" fill="#B4CE0B"/>
<path d="M122.71 32.6801L127.2 35.2701L124.73 40.1901L122.04 40.2301L121.41 35.2701L122.71 32.6801Z" fill="#B4CE0B"/>
<path d="M121.834 54.8652C122.539 53.0712 122.265 51.2846 121.221 50.8746C120.178 50.4646 118.76 51.5865 118.056 53.3805C117.351 55.1745 117.625 56.9611 118.669 57.3711C119.712 57.7811 121.129 56.6592 121.834 54.8652Z" fill="#B4CE0B"/>
<path d="M112.04 44.12L107.55 41.52L104.36 47.59L108.86 50.18L112.04 44.12Z" fill="#B4CE0B"/>
<path d="M104.18 67.75L108.68 70.34L112.07 72.91L107.58 70.32L104.18 67.75Z" fill="#B4CE0B"/>
<path opacity="0.44" d="M124.19 50.2501L124.52 49.1001L128.18 47.1001V40.8801C128.18 40.7601 124.64 42.9601 124.64 42.9601L124.47 42.6101C124.272 41.658 123.91 40.7477 123.4 39.9201L126 35.1701L122.73 32.6801L120.28 37.5801C119.394 37.3586 118.466 37.3586 117.58 37.5801V32.9301L112.9 35.5201V40.4401C111.98 41.3211 111.143 42.2852 110.4 43.3201L107.58 41.5201L104.39 47.5801L106.91 49.5801L106.69 50.5801C106.364 51.6566 106.103 52.7519 105.91 53.8601L102.13 56.0001V62.2001L105.71 60.0001C105.862 61.1299 106.254 62.2141 106.86 63.1801L104.18 67.7301L107.57 70.3001L110 65.6401H113V70.3201L117.46 67.6001V63.0001C118.483 61.9951 119.386 60.8742 120.15 59.6601L122.84 61.5001L126 55.3101L123.31 53.3101L123.58 52.3801C123.82 51.6701 124 51.0001 124.19 50.2501Z" fill="#053855"/>
<path opacity="0.1" d="M127.26 64.09L124.2 62.82V60.97" fill="#053855"/>
<path opacity="0.1" d="M117.42 72.91L112.92 70.32L114.06 66.92L118.11 68.11L117.42 72.91Z" fill="#053855"/>
<path opacity="0.1" d="M121.834 54.8652C122.539 53.0712 122.265 51.2846 121.221 50.8746C120.178 50.4646 118.76 51.5865 118.056 53.3805C117.351 55.1745 117.625 56.9611 118.669 57.3711C119.712 57.7811 121.129 56.6592 121.834 54.8652Z" fill="#053855"/>
<path opacity="0.1" d="M112.04 44.12L107.55 41.52L104.36 47.59L108.86 50.18L112.04 44.12Z" fill="#053855"/>
<path opacity="0.1" d="M104.18 67.75L108.68 70.34L112.07 72.91L107.58 70.32L104.18 67.75Z" fill="#053855"/>
<path opacity="0.1" d="M127.26 64.09L124.2 62.82V60.97" fill="#053855"/>
<path opacity="0.44" d="M117.42 72.91L112.92 70.32L114.06 66.92L118.11 68.11L117.42 72.91Z" fill="#053855"/>
<path d="M128.69 52.84L129 51.7L132.66 49.7V43.47C132.66 43.35 129.12 45.55 129.12 45.55L128.95 45.2C128.753 44.248 128.39 43.3376 127.88 42.51L130.46 37.76L127.19 35.27L124.74 40.17C123.854 39.9486 122.926 39.9486 122.04 40.17V35.53L117.36 38.12V43C116.44 43.881 115.603 44.8451 114.86 45.88L112 44.12L108.81 50.18L111.33 52.18L111.11 53.18C110.784 54.2566 110.523 55.3519 110.33 56.46L106.58 58.53V64.73L110.15 62.6C110.302 63.7299 110.695 64.8141 111.3 65.78L108.62 70.33L112.01 72.9L114.39 68.22H117.39V72.9L121.85 70.18V65.58C122.874 64.5751 123.776 63.4542 124.54 62.24L127.23 64.08L130.47 57.89L127.78 55.89L128.05 54.96C128.32 54.26 128.52 53.55 128.69 52.84Z" fill="#B4CE0B"/>
<path opacity="0.44" d="M121.834 54.8652C122.539 53.0712 122.265 51.2846 121.221 50.8746C120.178 50.4646 118.76 51.5865 118.056 53.3805C117.351 55.1745 117.625 56.9611 118.669 57.3711C119.712 57.7811 121.129 56.6592 121.834 54.8652Z" fill="#053855"/>
<path opacity="0.44" d="M104.18 67.75L108.68 70.34L112.07 72.91L107.58 70.32L104.18 67.75Z" fill="#053855"/>
<path d="M112.86 35.5301L117.36 38.1201L122.04 35.5301L117.54 32.9301L112.86 35.5301Z" fill="#B4CE0B"/>
<path opacity="0.44" d="M112.86 35.5099L117.35 38.1199L122.04 35.5399L117.55 32.9399L112.86 35.5099Z" fill="#053855"/>
<path d="M102.14 55.95L106.63 58.54V64.75L102.14 62.16V55.95Z" fill="#B4CE0B"/>
<path opacity="0.44" d="M102.14 55.95L106.63 58.54V64.75L102.14 62.16V55.95Z" fill="#053855"/>
<path d="M173.82 173.54C169.51 170.54 164.44 168.88 158.96 170.09C153.12 171.37 148.07 175.09 142.12 175.94C141.18 176.08 137.43 175.84 136.85 176.38C120.3 192.04 166.56 190.38 166.56 190.38C171.05 186.7 175.28 183.08 179.73 179.38C178.39 176.34 176.13 175.15 173.82 173.54Z" fill="#B4CE0B"/>
<path d="M152 196.24L150.36 243.49C150.3 245.28 153.08 245.28 153.14 243.49L154.78 196.24C154.89 194.45 152.11 194.45 152 196.24Z" fill="#B4CE0B"/>
<path d="M186.73 221.52C178.304 213.273 170.254 204.67 162.58 195.71C161.41 194.35 159.45 196.32 160.58 197.71C168.247 206.663 176.297 215.267 184.73 223.52C186 224.75 188 222.78 186.73 221.52Z" fill="#B4CE0B"/>
<path d="M142.39 191.87C135.85 204.217 129.69 216.75 123.91 229.47C123.17 231.09 125.57 232.47 126.31 230.88C132.09 218.16 138.25 205.627 144.79 193.28C145.63 191.69 143.23 190.28 142.39 191.87Z" fill="#B4CE0B"/>
<path d="M183.92 162.37C183.92 162.37 189.92 163.6 191.29 164.95C192.66 166.3 194.85 171.95 194.24 173.66C193.63 175.37 191.91 172.66 191.17 171.58C190.295 170.432 189.353 169.337 188.35 168.3C186.373 168.605 184.35 168.337 182.52 167.53" fill="#FCBF81"/>
<path d="M185.93 213.53C186.8 212.64 187.36 211.66 187.06 210.69C186.53 208.95 184.17 208.25 182.56 208.34C180.95 208.43 179.27 209.25 177.64 209.74C175.931 210.353 174.107 210.579 172.3 210.4C172.008 210.361 171.741 210.215 171.55 209.99C171.048 209.87 170.586 209.624 170.208 209.273C169.83 208.923 169.548 208.481 169.39 207.99L164 206.09C164 206.09 162.63 217.4 162.68 218.19C163.08 224.29 172.19 220.81 172.19 220.81C172.19 220.81 172.51 218.05 172.6 217.68C172.69 217.31 176.18 218.39 177.6 218.17C178.267 217.984 178.899 217.691 179.47 217.3C180.55 216.71 181.6 216.07 182.65 215.43C183.7 214.79 184.85 214.18 185.93 213.53Z" fill="#E55600"/>
<path d="M166 171.8C164 172 162 172.26 160 172.54C160.833 185.38 161.757 198.21 162.77 211.03C167.97 213.16 170.08 212.17 173.31 208.87C173.92 196.63 175 183.81 174.96 171.45C171.93 171.58 169 171.71 166 171.8Z" fill="#34323D"/>
<path d="M144.33 168.27C144.33 168.27 143.47 182.32 150.53 185.46C157.59 188.6 172.08 187.03 179.2 182.85C182.885 180.606 186.752 178.676 190.76 177.08C190.76 177.08 192.59 170.93 188.15 168.27C183.71 165.61 173.89 162.33 165.15 168.27" fill="#34323D"/>
<path d="M175.31 129.68C175.532 129.151 175.792 128.64 176.09 128.15C176.098 128.181 176.116 128.209 176.14 128.23C176.148 128.27 176.168 128.307 176.197 128.335C176.227 128.363 176.264 128.382 176.304 128.389C176.345 128.395 176.386 128.389 176.423 128.372C176.46 128.354 176.49 128.325 176.51 128.29L177.08 127.43C177.061 127.543 177.061 127.658 177.08 127.77C177.126 127.98 177.249 128.166 177.425 128.29C177.601 128.414 177.817 128.467 178.03 128.44C178.155 128.431 178.277 128.395 178.386 128.333C178.496 128.272 178.59 128.187 178.663 128.084C178.735 127.982 178.785 127.865 178.807 127.741C178.829 127.618 178.823 127.491 178.79 127.37L179.05 127.07C179.037 127.156 179.037 127.244 179.05 127.33C179.09 127.45 179.159 127.559 179.251 127.645C179.344 127.732 179.457 127.793 179.58 127.824C179.703 127.855 179.831 127.854 179.954 127.822C180.076 127.79 180.189 127.727 180.28 127.64C180.38 127.56 180.47 127.46 180.56 127.37C180.639 127.404 180.724 127.422 180.81 127.422C180.896 127.422 180.981 127.404 181.06 127.37C181.794 127.12 182.512 126.826 183.21 126.49C183.161 126.469 183.118 126.437 183.085 126.396C183.051 126.354 183.028 126.306 183.017 126.254C183.006 126.202 183.008 126.148 183.023 126.097C183.037 126.046 183.064 125.999 183.1 125.96C183.924 125.293 184.797 124.688 185.71 124.15C185.742 124.123 185.78 124.102 185.82 124.09L185.87 124C186.084 123.307 186.034 122.559 185.73 121.9C185.951 121.632 186.108 121.317 186.189 120.979C186.27 120.641 186.274 120.289 186.2 119.95C186.127 119.945 186.057 119.917 186 119.87C185.87 119.759 185.758 119.627 185.67 119.48C185.509 119.28 185.384 119.053 185.3 118.81C185.28 118.749 185.279 118.683 185.299 118.622C185.319 118.561 185.358 118.507 185.41 118.47C185.07 118.02 184.67 117.59 184.32 117.19C185.177 115.73 185.584 114.05 185.49 112.36C185.482 112.202 185.424 112.051 185.324 111.928C185.224 111.806 185.087 111.719 184.934 111.68C184.781 111.641 184.619 111.652 184.473 111.711C184.326 111.77 184.203 111.875 184.12 112.01C183.784 112.541 183.48 113.092 183.21 113.66C183.122 113.718 183.05 113.797 183 113.89C181.555 116.858 179.949 119.746 178.19 122.54C177.89 123.01 174.19 128.05 174.65 128.17C174.62 128.41 171.62 135.32 175.31 129.68ZM177.47 127.55C177.47 127.55 177.47 127.55 177.47 127.5C177.489 127.521 177.512 127.538 177.538 127.55C177.564 127.562 177.592 127.568 177.62 127.568C177.649 127.568 177.677 127.562 177.703 127.55C177.728 127.538 177.751 127.521 177.77 127.5C177.86 127.565 177.963 127.609 178.072 127.63C178.181 127.65 178.293 127.647 178.4 127.62C178.392 127.753 178.332 127.877 178.233 127.965C178.133 128.053 178.003 128.098 177.87 128.09C177.738 128.082 177.614 128.022 177.525 127.922C177.437 127.823 177.392 127.693 177.4 127.56L177.47 127.55Z" fill="#FCBF81"/>
<path d="M175.71 128.08C176.512 127.466 177.19 126.706 177.71 125.84C177.808 125.658 177.941 125.498 178.102 125.369C178.264 125.24 178.449 125.145 178.648 125.089C178.846 125.033 179.054 125.017 179.259 125.043C179.464 125.069 179.661 125.136 179.84 125.24C179.897 124.836 179.927 124.428 179.93 124.02C179.93 121.94 183.2 121.91 183.16 124.02C183.234 125.652 182.797 127.267 181.91 128.64C180.931 129.878 179.739 130.931 178.39 131.75C178.152 131.883 177.885 131.956 177.612 131.962C177.339 131.967 177.069 131.906 176.826 131.782C176.583 131.658 176.374 131.477 176.217 131.253C176.061 131.03 175.962 130.771 175.93 130.5L175.79 130.39C175.632 130.244 175.505 130.068 175.416 129.873C175.327 129.677 175.277 129.466 175.27 129.252C175.262 129.037 175.297 128.823 175.373 128.622C175.448 128.421 175.563 128.237 175.71 128.08Z" fill="#FCBF81"/>
<path d="M180.89 129.32C182.247 128.427 183.223 127.062 183.63 125.49C183.642 125.512 183.659 125.531 183.679 125.546C183.699 125.561 183.722 125.572 183.747 125.578C183.771 125.583 183.797 125.584 183.821 125.579C183.846 125.574 183.869 125.564 183.89 125.55L185.18 124.68C185.453 124.523 185.699 124.324 185.91 124.09C186.38 123.49 185.91 122.8 185.72 122.18C185.706 122.144 185.682 122.112 185.65 122.09L185.83 121.79C186.155 121.32 186.326 120.761 186.32 120.19C186.23 119.63 185.7 119.26 185.45 118.78C185.499 118.5 185.452 118.212 185.315 117.963C185.179 117.714 184.962 117.519 184.7 117.41C184.01 117.1 183.63 117.62 183.26 118.13C182.467 119.21 181.717 120.32 181.01 121.46C180.87 121.68 181.23 121.88 181.36 121.66C181.75 121.04 182.14 120.43 182.55 119.83C182.891 119.163 183.329 118.549 183.85 118.01C185.29 117.18 185.01 119.17 184.78 119.68C184.64 119.98 184.47 120.26 184.3 120.55L183.21 122.47C183.198 122.495 183.191 122.522 183.191 122.55C183.191 122.578 183.198 122.605 183.21 122.63C183.529 123.81 183.459 125.061 183.01 126.197C182.562 127.334 181.759 128.296 180.72 128.94C180.46 129.12 180.67 129.47 180.89 129.32ZM183.82 122.75C183.789 122.728 183.753 122.716 183.715 122.716C183.677 122.716 183.641 122.728 183.61 122.75V122.62C184.328 121.599 184.919 120.494 185.37 119.33C185.47 119.46 185.57 119.58 185.67 119.72C185.814 119.915 185.898 120.147 185.91 120.389C185.923 120.631 185.864 120.872 185.74 121.08C185.45 121.71 184.7 123.25 183.82 122.74V122.75ZM183.69 125.21C183.819 124.523 183.819 123.817 183.69 123.13C184.38 123.47 184.97 123.02 185.4 122.45C185.522 122.707 185.619 122.975 185.69 123.25C185.724 123.426 185.7 123.609 185.623 123.771C185.546 123.933 185.418 124.066 185.26 124.15C184.74 124.52 184.21 124.85 183.69 125.2V125.21Z" fill="#34323D"/>
<path d="M157.8 135.83C157.8 135.83 167.23 136.28 169.69 134.02C172.15 131.76 175.69 124.65 175.69 124.65C175.69 124.65 182.19 128.83 182.51 131.23C182.83 133.63 175.72 145.23 172.56 146.04" fill="#BA3E00"/>
<path d="M202.24 222.34C203.11 221.45 203.67 220.47 203.37 219.5C202.84 217.76 200.48 217.06 198.87 217.15C197.26 217.24 195.58 218.06 193.95 218.55C192.241 219.163 190.417 219.389 188.61 219.21C188.318 219.171 188.051 219.025 187.86 218.8C187.358 218.68 186.896 218.433 186.518 218.083C186.139 217.733 185.858 217.291 185.7 216.8L180.35 214.88C180.35 214.88 179 226.2 179 227C179.4 233.1 188.51 229.62 188.51 229.62C188.51 229.62 188.83 226.86 188.92 226.49C189.01 226.12 192.5 227.2 193.92 226.98C194.587 226.794 195.219 226.5 195.79 226.11C196.87 225.52 197.92 224.88 198.97 224.24C200.02 223.6 201.16 223 202.24 222.34Z" fill="#E55600"/>
<path d="M181.65 168.62C179.81 167.75 177.88 167.84 175.65 167.85C175.96 172.37 175.79 174 176.07 178.52L176.15 179.72C177 193.1 178 206.47 179 219.83C184.2 221.96 186.31 220.97 189.54 217.67C190.26 203.43 191.6 188.39 191.08 174.22C188.11 171.24 185.44 170.4 181.65 168.62Z" fill="#34323D"/>
<path d="M144.2 165.36C144.2 165.71 144.27 166.87 144.32 168.27C147.24 172.12 150.82 174.38 156.43 174.21C160.97 174.08 164.76 172.09 168.32 169.64C167.88 161.41 166.55 147.36 164.47 137.56C164.29 136.73 162.14 136.18 161.47 135.83C159.99 135.02 160.86 133.63 159.41 132.76C157.308 131.538 155.119 130.472 152.86 129.57H152.8C149.18 129.52 142.95 132.3 142.58 137.14C142.01 144.59 142.83 149.07 143.41 156.5C143.69 159.5 143.95 162.46 144.2 165.36Z" fill="#E55600"/>
<path d="M156.8 115.49C157.28 115.61 161.29 124.85 159.72 130.49C158.15 136.13 148.62 130.33 146.22 126.06C143.82 121.79 147.78 113.15 156.8 115.49Z" fill="#FCBF81"/>
<path d="M156.67 116.78C156.67 116.78 156.67 119.83 154.01 120.78C151.35 121.73 149.13 122.43 149.27 123.66C149.41 124.89 154.09 123.49 154.11 126.31C154.113 128.212 153.857 130.106 153.35 131.94C153.06 133.32 145.05 129.08 142.41 121.85C139.77 114.62 146.41 112.7 146.7 112.65C146.99 112.6 147.62 110.65 150.86 109.93C154.1 109.21 155.01 110.48 155.01 110.48C155.746 110.036 156.607 109.846 157.461 109.938C158.315 110.03 159.116 110.4 159.74 110.99C162.74 113.36 161.97 117.69 158.59 119.45L156.67 116.78Z" fill="#34323D"/>
<path d="M158.32 145.42C158.32 145.42 168.23 163.52 173.71 165.08C177.642 166.107 181.658 166.777 185.71 167.08C185.71 167.08 186.39 162.08 185.71 159.9C185.71 159.9 176.94 155.95 176.08 153.58C175.22 151.21 167.83 134.58 159.44 132.82" fill="#E55600"/>
<path d="M167.44 159.49C166.83 158.71 159.96 150.93 159.96 150.93L168.22 167.85L167.44 159.49Z" fill="#34323D"/>
<path d="M179.1 179C176.519 182.595 172.863 185.277 168.66 186.66C162.77 188.45 154.2 187.61 151.11 181.45C145.48 170.24 150.77 156.22 144.82 145.32C144.134 143.942 143.164 142.725 141.975 141.748C140.786 140.771 139.404 140.056 137.92 139.65C134.06 138.81 131.42 141.7 130.02 145.11C127.51 151.22 127.6 158.84 127.73 165.34C127.735 170.6 128.116 175.854 128.87 181.06C128.87 181.06 132.47 202.9 160.57 197.06C165.433 196.177 170.104 194.448 174.37 191.95C176.561 190.676 178.475 188.976 180 186.95C181.72 184.54 180.58 181.57 179.1 179Z" fill="#B4CE0B"/>
<path d="M51.3003 160.94C46.9003 160.56 42.3003 159.23 39.0303 156.22V169.22C39.0303 172.806 40.4547 176.245 42.9902 178.78C45.5257 181.316 48.9645 182.74 52.5503 182.74C56.136 182.74 59.5749 181.316 62.1104 178.78C64.6459 176.245 66.0703 172.806 66.0703 169.22V156C61.4603 157.89 56.2203 161.37 51.3003 160.94Z" fill="#B4CE0B"/>
<path d="M52.5503 163.31C60.0172 163.31 66.0703 160.1 66.0703 156.14C66.0703 152.18 60.0172 148.97 52.5503 148.97C45.0834 148.97 39.0303 152.18 39.0303 156.14C39.0303 160.1 45.0834 163.31 52.5503 163.31Z" fill="#5ED18D"/>
<path d="M52.5499 157.36C52.5499 157.36 43.3499 156.01 40.9199 141.13C40.9199 141.13 48.7599 145.46 52.5499 157.36Z" fill="#5ED18D"/>
<path d="M53.8998 155.46C53.8998 155.46 43.3498 136.53 53.8998 123.81C57.1234 134.114 57.1234 145.156 53.8998 155.46Z" fill="#5ED18D"/>
<path d="M52.5499 143.56C52.5499 143.56 43.3499 142.21 40.9199 127.33C40.9199 127.33 48.7599 131.66 52.5499 143.56Z" fill="#5ED18D"/>
<path d="M53.6699 149.63C53.6699 149.63 51.3699 140.63 64.1499 132.63C64.1499 132.63 63.1799 141.54 53.6699 149.63Z" fill="#5ED18D"/>
<path d="M52.5503 163.31C60.0172 163.31 66.0703 160.1 66.0703 156.14C66.0703 152.18 60.0172 148.97 52.5503 148.97C45.0834 148.97 39.0303 152.18 39.0303 156.14C39.0303 160.1 45.0834 163.31 52.5503 163.31Z" fill="#146666"/>
<path d="M52.5499 157.36C52.5499 157.36 43.3499 156.01 40.9199 141.13C40.9199 141.13 48.7599 145.46 52.5499 157.36Z" fill="#5ED18D"/>
<path d="M53.8998 155.46C53.8998 155.46 43.3498 136.53 53.8998 123.81C57.1234 134.114 57.1234 145.156 53.8998 155.46Z" fill="#5ED18D"/>
<path d="M52.5499 143.56C52.5499 143.56 43.3499 142.21 40.9199 127.33C40.9199 127.33 48.7599 131.66 52.5499 143.56Z" fill="#5ED18D"/>
<path d="M53.6699 149.63C53.6699 149.63 51.3699 140.63 64.1499 132.63C64.1499 132.63 63.1799 141.54 53.6699 149.63Z" fill="#5ED18D"/>
</svg>
